  0
SECTION
  2
HEADER
  9
$ANGBASE
  50
0.0
  9
$ANGDIR
  70
1
  9
$MEASUREMENT
  70
0
  9
$INSUNITS
  70
1
  0
ENDSEC
  0
SECTION
  2
TABLES
  0
TABLE
  2
LTYPE
  70
4
  0
LTYPE
  5
40F
  2
CONTINUOUS
  70
0
  3
Solid line
  72
65
  73
0
  40
0.0
  0
LTYPE
  5
410
  2
DASHDOT
 70
0
  3
Dash Dot ____ _ ____ _
 72
65
 73
4
 40
2.0
 49
1.25
 49
-0.25
 49
0.25
 49
-0.25
  0
LTYPE
  5
411
  2
DASHED
 70
0
  3
Dashed __ __ __ __ __
 72
65
 73
2
 40
0.75
 49
0.5
 49
-0.25
  0
LTYPE
  5
43B
  2
DOTTED
 70
0
  3
Dotted .  .  .  .
 72
65
 73
2
 40
0.2
 49
0.0
 49
-0.2
  0
ENDTAB
  0
TABLE
  2
STYLE
  70
4
  0
STYLE
  2
KICAD
  70
0
  40
0
  41
1
  42
1
  50
0
  71
0
  3
isocp.shx
  0
STYLE
  2
KICADB
  70
0
  40
0
  41
1
  42
1
  50
0
  71
0
  3
isocp.shx
  0
STYLE
  2
KICADI
  70
0
  40
0
  41
1
  42
1
  50
15
  71
0
  3
isocp.shx
  0
STYLE
  2
KICADBI
  70
0
  40
0
  41
1
  42
1
  50
15
  71
0
  3
isocp.shx
  0
ENDTAB
  0
TABLE
  2
LAYER
  70
11
  0
LAYER
  2
F.Cu
  70
0
  62
13
  420
13120564
  6
CONTINUOUS
  0
LAYER
  2
In1.Cu
  70
0
  62
91
  420
8374399
  6
CONTINUOUS
  0
LAYER
  2
In2.Cu
  70
0
  62
33
  420
13532460
  6
CONTINUOUS
  0
LAYER
  2
B.Cu
  70
0
  62
153
  420
5078980
  6
CONTINUOUS
  0
LAYER
  2
F.Paste
  70
0
  62
253
  420
11837594
  6
CONTINUOUS
  0
LAYER
  2
B.Paste
  70
0
  62
132
  420
49858
  6
CONTINUOUS
  0
LAYER
  2
F.Silkscreen
  70
0
  62
41
  420
15920545
  6
CONTINUOUS
  0
LAYER
  2
B.Silkscreen
  70
0
  62
31
  420
15250087
  6
CONTINUOUS
  0
LAYER
  2
F.Mask
  70
0
  62
201
  420
14181631
  6
CONTINUOUS
  0
LAYER
  2
B.Mask
  70
0
  62
4
  420
196590
  6
CONTINUOUS
  0
LAYER
  2
Edge.Cuts
  70
0
  62
254
  420
13685453
  6
CONTINUOUS
  0
ENDTAB
  0
ENDSEC
  0
SECTION
  2
ENTITIES
0
LINE
8
B.Mask
6
CONTINUOUS
10
6.0779448425196847
20
-3.9891816141732281
11
6.0854317716535435
21
-3.9922827952755906
0
LINE
8
B.Mask
6
CONTINUOUS
10
6.0854317716535435
20
-3.9922827952755906
11
6.0921698031496065
21
-3.996785
0
LINE
8
B.Mask
6
CONTINUOUS
10
6.0921698031496065
20
-3.996785
11
6.0979000393700789
21
-4.0025152362204723
0
LINE
8
B.Mask
6
CONTINUOUS
10
6.0979000393700789
20
-4.0025152362204723
11
6.1024022440944883
21
-4.0092532677165353
0
LINE
8
B.Mask
6
CONTINUOUS
10
6.1024022440944883
20
-4.0092532677165353
11
6.1055034251968499
21
-4.0167401968503933
0
LINE
8
B.Mask
6
CONTINUOUS
10
6.1055034251968499
20
-4.0167401968503933
11
6.1070844094488184
21
-4.0246882677165354
0
LINE
8
B.Mask
6
CONTINUOUS
10
6.1070844094488184
20
-4.0246882677165354
11
6.1070844094488184
21
-4.0327920472440946
0
LINE
8
B.Mask
6
CONTINUOUS
10
6.1070844094488184
20
-4.0327920472440946
11
6.1055034251968499
21
-4.0407401181102358
0
LINE
8
B.Mask
6
CONTINUOUS
10
6.1055034251968499
20
-4.0407401181102358
11
6.1024022440944883
21
-4.0482270472440947
0
LINE
8
B.Mask
6
CONTINUOUS
10
6.1024022440944883
20
-4.0482270472440947
11
6.0979000393700789
21
-4.0549650787401577
0
LINE
8
B.Mask
6
CONTINUOUS
10
6.0979000393700789
20
-4.0549650787401577
11
6.0921698031496065
21
-4.06069531496063
0
LINE
8
B.Mask
6
CONTINUOUS
10
6.0921698031496065
20
-4.06069531496063
11
6.0854317716535435
21
-4.0651975196850394
0
LINE
8
B.Mask
6
CONTINUOUS
10
6.0854317716535435
20
-4.0651975196850394
11
6.0779448425196847
21
-4.0682987007874019
0
LINE
8
B.Mask
6
CONTINUOUS
10
6.0779448425196847
20
-4.0682987007874019
11
6.0699967716535435
21
-4.0698796850393704
0
LINE
8
B.Mask
6
CONTINUOUS
10
6.0699967716535435
20
-4.0698796850393704
11
6.0618929921259843
21
-4.0698796850393704
0
LINE
8
B.Mask
6
CONTINUOUS
10
6.0618929921259843
20
-4.0698796850393704
11
6.0539449212598422
21
-4.0682987007874019
0
LINE
8
B.Mask
6
CONTINUOUS
10
6.0539449212598422
20
-4.0682987007874019
11
6.0464579921259842
21
-4.0651975196850394
0
LINE
8
B.Mask
6
CONTINUOUS
10
6.0464579921259842
20
-4.0651975196850394
11
6.0397199606299212
21
-4.06069531496063
0
LINE
8
B.Mask
6
CONTINUOUS
10
6.0397199606299212
20
-4.06069531496063
11
6.0339897244094489
21
-4.0549650787401577
0
LINE
8
B.Mask
6
CONTINUOUS
10
6.0339897244094489
20
-4.0549650787401577
11
6.0294875196850395
21
-4.0482270472440947
0
LINE
8
B.Mask
6
CONTINUOUS
10
6.0294875196850395
20
-4.0482270472440947
11
6.026386338582677
21
-4.0407401181102358
0
LINE
8
B.Mask
6
CONTINUOUS
10
6.026386338582677
20
-4.0407401181102358
11
6.0248053543307085
21
-4.0327920472440946
0
LINE
8
B.Mask
6
CONTINUOUS
10
6.0248053543307085
20
-4.0327920472440946
11
6.0248053543307085
21
-4.0246882677165354
0
LINE
8
B.Mask
6
CONTINUOUS
10
6.0248053543307085
20
-4.0246882677165354
11
6.026386338582677
21
-4.0167401968503933
0
LINE
8
B.Mask
6
CONTINUOUS
10
6.026386338582677
20
-4.0167401968503933
11
6.0294875196850395
21
-4.0092532677165353
0
LINE
8
B.Mask
6
CONTINUOUS
10
6.0294875196850395
20
-4.0092532677165353
11
6.0339897244094489
21
-4.0025152362204723
0
LINE
8
B.Mask
6
CONTINUOUS
10
6.0339897244094489
20
-4.0025152362204723
11
6.0397199606299212
21
-3.996785
0
LINE
8
B.Mask
6
CONTINUOUS
10
6.0397199606299212
20
-3.996785
11
6.0464579921259842
21
-3.9922827952755906
0
LINE
8
B.Mask
6
CONTINUOUS
10
6.0464579921259842
20
-3.9922827952755906
11
6.0539449212598422
21
-3.9891816141732281
0
LINE
8
B.Mask
6
CONTINUOUS
10
6.0539449212598422
20
-3.9891816141732281
11
6.0618929921259843
21
-3.9876006299212596
0
LINE
8
B.Mask
6
CONTINUOUS
10
6.0618929921259843
20
-3.9876006299212596
11
6.0699967716535435
21
-3.9876006299212596
0
LINE
8
B.Mask
6
CONTINUOUS
10
6.0699967716535435
20
-3.9876006299212596
11
6.0779448425196847
21
-3.9891816141732281
0
LINE
8
B.Mask
6
CONTINUOUS
10
5.2188475196850392
20
-3.987325118110236
11
5.2263344488188972
21
-3.9904262992125985
0
LINE
8
B.Mask
6
CONTINUOUS
10
5.2263344488188972
20
-3.9904262992125985
11
5.2330724803149602
21
-3.9949285039370079
0
LINE
8
B.Mask
6
CONTINUOUS
10
5.2330724803149602
20
-3.9949285039370079
11
5.2388027165354334
21
-4.0006587401574798
0
LINE
8
B.Mask
6
CONTINUOUS
10
5.2388027165354334
20
-4.0006587401574798
11
5.2433049212598428
21
-4.0073967716535428
0
LINE
8
B.Mask
6
CONTINUOUS
10
5.2433049212598428
20
-4.0073967716535428
11
5.2464061023622044
21
-4.0148837007874016
0
LINE
8
B.Mask
6
CONTINUOUS
10
5.2464061023622044
20
-4.0148837007874016
11
5.2479870866141729
21
-4.0228317716535429
0
LINE
8
B.Mask
6
CONTINUOUS
10
5.2479870866141729
20
-4.0228317716535429
11
5.2479870866141729
21
-4.030935551181102
0
LINE
8
B.Mask
6
CONTINUOUS
10
5.2479870866141729
20
-4.030935551181102
11
5.2464061023622044
21
-4.0388836220472442
0
LINE
8
B.Mask
6
CONTINUOUS
10
5.2464061023622044
20
-4.0388836220472442
11
5.2433049212598428
21
-4.0463705511811021
0
LINE
8
B.Mask
6
CONTINUOUS
10
5.2433049212598428
20
-4.0463705511811021
11
5.2388027165354334
21
-4.0531085826771651
0
LINE
8
B.Mask
6
CONTINUOUS
10
5.2388027165354334
20
-4.0531085826771651
11
5.2330724803149602
21
-4.0588388188976374
0
LINE
8
B.Mask
6
CONTINUOUS
10
5.2330724803149602
20
-4.0588388188976374
11
5.2263344488188972
21
-4.0633410236220469
0
LINE
8
B.Mask
6
CONTINUOUS
10
5.2263344488188972
20
-4.0633410236220469
11
5.2188475196850392
21
-4.0664422047244093
0
LINE
8
B.Mask
6
CONTINUOUS
10
5.2188475196850392
20
-4.0664422047244093
11
5.2108994488188971
21
-4.0680231889763778
0
LINE
8
B.Mask
6
CONTINUOUS
10
5.2108994488188971
20
-4.0680231889763778
11
5.2027956692913389
21
-4.0680231889763778
0
LINE
8
B.Mask
6
CONTINUOUS
10
5.2027956692913389
20
-4.0680231889763778
11
5.1948475984251967
21
-4.0664422047244093
0
LINE
8
B.Mask
6
CONTINUOUS
10
5.1948475984251967
20
-4.0664422047244093
11
5.1873606692913388
21
-4.0633410236220469
0
LINE
8
B.Mask
6
CONTINUOUS
10
5.1873606692913388
20
-4.0633410236220469
11
5.1806226377952758
21
-4.0588388188976374
0
LINE
8
B.Mask
6
CONTINUOUS
10
5.1806226377952758
20
-4.0588388188976374
11
5.1748924015748035
21
-4.0531085826771651
0
LINE
8
B.Mask
6
CONTINUOUS
10
5.1748924015748035
20
-4.0531085826771651
11
5.170390196850394
21
-4.0463705511811021
0
LINE
8
B.Mask
6
CONTINUOUS
10
5.170390196850394
20
-4.0463705511811021
11
5.1672890157480316
21
-4.0388836220472442
0
LINE
8
B.Mask
6
CONTINUOUS
10
5.1672890157480316
20
-4.0388836220472442
11
5.1657080314960631
21
-4.030935551181102
0
LINE
8
B.Mask
6
CONTINUOUS
10
5.1657080314960631
20
-4.030935551181102
11
5.1657080314960631
21
-4.0228317716535429
0
LINE
8
B.Mask
6
CONTINUOUS
10
5.1657080314960631
20
-4.0228317716535429
11
5.1672890157480316
21
-4.0148837007874016
0
LINE
8
B.Mask
6
CONTINUOUS
10
5.1672890157480316
20
-4.0148837007874016
11
5.170390196850394
21
-4.0073967716535428
0
LINE
8
B.Mask
6
CONTINUOUS
10
5.170390196850394
20
-4.0073967716535428
11
5.1748924015748035
21
-4.0006587401574798
0
LINE
8
B.Mask
6
CONTINUOUS
10
5.1748924015748035
20
-4.0006587401574798
11
5.1806226377952758
21
-3.9949285039370079
0
LINE
8
B.Mask
6
CONTINUOUS
10
5.1806226377952758
20
-3.9949285039370079
11
5.1873606692913388
21
-3.9904262992125985
0
LINE
8
B.Mask
6
CONTINUOUS
10
5.1873606692913388
20
-3.9904262992125985
11
5.1948475984251967
21
-3.987325118110236
0
LINE
8
B.Mask
6
CONTINUOUS
10
5.1948475984251967
20
-3.987325118110236
11
5.2027956692913389
21
-3.9857441338582675
0
LINE
8
B.Mask
6
CONTINUOUS
10
5.2027956692913389
20
-3.9857441338582675
11
5.2108994488188971
21
-3.9857441338582675
0
LINE
8
B.Mask
6
CONTINUOUS
10
5.2108994488188971
20
-3.9857441338582675
11
5.2188475196850392
21
-3.987325118110236
0
LINE
8
B.Mask
6
CONTINUOUS
10
5.1857730708661416
20
-3.678235472440945
11
5.1918338976377951
21
-3.6807459448818896
0
LINE
8
B.Mask
6
CONTINUOUS
10
5.1918338976377951
20
-3.6807459448818896
11
5.197288503937008
21
-3.6843905905511809
0
LINE
8
B.Mask
6
CONTINUOUS
10
5.197288503937008
20
-3.6843905905511809
11
5.2019272834645669
21
-3.6890293700787402
0
LINE
8
B.Mask
6
CONTINUOUS
10
5.2019272834645669
20
-3.6890293700787402
11
5.2055719291338578
21
-3.6944839763779527
0
LINE
8
B.Mask
6
CONTINUOUS
10
5.2055719291338578
20
-3.6944839763779527
11
5.2080824015748028
21
-3.7005448031496062
0
LINE
8
B.Mask
6
CONTINUOUS
10
5.2080824015748028
20
-3.7005448031496062
11
5.2093622440944882
21
-3.7069789370078738
0
LINE
8
B.Mask
6
CONTINUOUS
10
5.2093622440944882
20
-3.7069789370078738
11
5.2093622440944882
21
-3.7135391732283463
0
LINE
8
B.Mask
6
CONTINUOUS
10
5.2093622440944882
20
-3.7135391732283463
11
5.2080824015748028
21
-3.7199733070866139
0
LINE
8
B.Mask
6
CONTINUOUS
10
5.2080824015748028
20
-3.7199733070866139
11
5.2055719291338578
21
-3.7260341338582674
0
LINE
8
B.Mask
6
CONTINUOUS
10
5.2055719291338578
20
-3.7260341338582674
11
5.2019272834645669
21
-3.7314887401574803
0
LINE
8
B.Mask
6
CONTINUOUS
10
5.2019272834645669
20
-3.7314887401574803
11
5.197288503937008
21
-3.7361275196850392
0
LINE
8
B.Mask
6
CONTINUOUS
10
5.197288503937008
20
-3.7361275196850392
11
5.1918338976377951
21
-3.7397721653543305
0
LINE
8
B.Mask
6
CONTINUOUS
10
5.1918338976377951
20
-3.7397721653543305
11
5.1857730708661416
21
-3.7422826377952756
0
LINE
8
B.Mask
6
CONTINUOUS
10
5.1857730708661416
20
-3.7422826377952756
11
5.1793389370078735
21
-3.7435624803149605
0
LINE
8
B.Mask
6
CONTINUOUS
10
5.1793389370078735
20
-3.7435624803149605
11
5.1727787007874015
21
-3.7435624803149605
0
LINE
8
B.Mask
6
CONTINUOUS
10
5.1727787007874015
20
-3.7435624803149605
11
5.1663445669291335
21
-3.7422826377952756
0
LINE
8
B.Mask
6
CONTINUOUS
10
5.1663445669291335
20
-3.7422826377952756
11
5.1602837401574799
21
-3.7397721653543305
0
LINE
8
B.Mask
6
CONTINUOUS
10
5.1602837401574799
20
-3.7397721653543305
11
5.1548291338582679
21
-3.7361275196850392
0
LINE
8
B.Mask
6
CONTINUOUS
10
5.1548291338582679
20
-3.7361275196850392
11
5.1501903543307082
21
-3.7314887401574803
0
LINE
8
B.Mask
6
CONTINUOUS
10
5.1501903543307082
20
-3.7314887401574803
11
5.1465457086614173
21
-3.7260341338582674
0
LINE
8
B.Mask
6
CONTINUOUS
10
5.1465457086614173
20
-3.7260341338582674
11
5.1440352362204722
21
-3.7199733070866139
0
LINE
8
B.Mask
6
CONTINUOUS
10
5.1440352362204722
20
-3.7199733070866139
11
5.1427553937007877
21
-3.7135391732283463
0
LINE
8
B.Mask
6
CONTINUOUS
10
5.1427553937007877
20
-3.7135391732283463
11
5.1427553937007877
21
-3.7069789370078738
0
LINE
8
B.Mask
6
CONTINUOUS
10
5.1427553937007877
20
-3.7069789370078738
11
5.1440352362204722
21
-3.7005448031496062
0
LINE
8
B.Mask
6
CONTINUOUS
10
5.1440352362204722
20
-3.7005448031496062
11
5.1465457086614173
21
-3.6944839763779527
0
LINE
8
B.Mask
6
CONTINUOUS
10
5.1465457086614173
20
-3.6944839763779527
11
5.1501903543307082
21
-3.6890293700787402
0
LINE
8
B.Mask
6
CONTINUOUS
10
5.1501903543307082
20
-3.6890293700787402
11
5.1548291338582679
21
-3.6843905905511809
0
LINE
8
B.Mask
6
CONTINUOUS
10
5.1548291338582679
20
-3.6843905905511809
11
5.1602837401574799
21
-3.6807459448818896
0
LINE
8
B.Mask
6
CONTINUOUS
10
5.1602837401574799
20
-3.6807459448818896
11
5.1663445669291335
21
-3.678235472440945
0
LINE
8
B.Mask
6
CONTINUOUS
10
5.1663445669291335
20
-3.678235472440945
11
5.1727787007874015
21
-3.6769556299212596
0
LINE
8
B.Mask
6
CONTINUOUS
10
5.1727787007874015
20
-3.6769556299212596
11
5.1793389370078735
21
-3.6769556299212596
0
LINE
8
B.Mask
6
CONTINUOUS
10
5.1793389370078735
20
-3.6769556299212596
11
5.1857730708661416
21
-3.678235472440945
0
LINE
8
B.Mask
6
CONTINUOUS
10
6.0973126771653545
20
-3.6765818897637796
11
6.1033735039370081
21
-3.6790923622047242
0
LINE
8
B.Mask
6
CONTINUOUS
10
6.1033735039370081
20
-3.6790923622047242
11
6.1088281102362201
21
-3.6827370078740156
0
LINE
8
B.Mask
6
CONTINUOUS
10
6.1088281102362201
20
-3.6827370078740156
11
6.1134668897637798
21
-3.6873757874015749
0
LINE
8
B.Mask
6
CONTINUOUS
10
6.1134668897637798
20
-3.6873757874015749
11
6.1171115354330707
21
-3.6928303937007874
0
LINE
8
B.Mask
6
CONTINUOUS
10
6.1171115354330707
20
-3.6928303937007874
11
6.1196220078740158
21
-3.6988912204724409
0
LINE
8
B.Mask
6
CONTINUOUS
10
6.1196220078740158
20
-3.6988912204724409
11
6.1209018503937003
21
-3.7053253543307085
0
LINE
8
B.Mask
6
CONTINUOUS
10
6.1209018503937003
20
-3.7053253543307085
11
6.1209018503937003
21
-3.7118855905511809
0
LINE
8
B.Mask
6
CONTINUOUS
10
6.1209018503937003
20
-3.7118855905511809
11
6.1196220078740158
21
-3.7183197244094486
0
LINE
8
B.Mask
6
CONTINUOUS
10
6.1196220078740158
20
-3.7183197244094486
11
6.1171115354330707
21
-3.7243805511811021
0
LINE
8
B.Mask
6
CONTINUOUS
10
6.1171115354330707
20
-3.7243805511811021
11
6.1134668897637798
21
-3.729835157480315
0
LINE
8
B.Mask
6
CONTINUOUS
10
6.1134668897637798
20
-3.729835157480315
11
6.1088281102362201
21
-3.7344739370078739
0
LINE
8
B.Mask
6
CONTINUOUS
10
6.1088281102362201
20
-3.7344739370078739
11
6.1033735039370081
21
-3.7381185826771652
0
LINE
8
B.Mask
6
CONTINUOUS
10
6.1033735039370081
20
-3.7381185826771652
11
6.0973126771653545
21
-3.7406290551181103
0
LINE
8
B.Mask
6
CONTINUOUS
10
6.0973126771653545
20
-3.7406290551181103
11
6.0908785433070864
21
-3.7419088976377952
0
LINE
8
B.Mask
6
CONTINUOUS
10
6.0908785433070864
20
-3.7419088976377952
11
6.0843183070866145
21
-3.7419088976377952
0
LINE
8
B.Mask
6
CONTINUOUS
10
6.0843183070866145
20
-3.7419088976377952
11
6.0778841732283464
21
-3.7406290551181103
0
LINE
8
B.Mask
6
CONTINUOUS
10
6.0778841732283464
20
-3.7406290551181103
11
6.0718233464566929
21
-3.7381185826771652
0
LINE
8
B.Mask
6
CONTINUOUS
10
6.0718233464566929
20
-3.7381185826771652
11
6.06636874015748
21
-3.7344739370078739
0
LINE
8
B.Mask
6
CONTINUOUS
10
6.06636874015748
20
-3.7344739370078739
11
6.0617299606299211
21
-3.729835157480315
0
LINE
8
B.Mask
6
CONTINUOUS
10
6.0617299606299211
20
-3.729835157480315
11
6.0580853149606302
21
-3.7243805511811021
0
LINE
8
B.Mask
6
CONTINUOUS
10
6.0580853149606302
20
-3.7243805511811021
11
6.0555748425196851
21
-3.7183197244094486
0
LINE
8
B.Mask
6
CONTINUOUS
10
6.0555748425196851
20
-3.7183197244094486
11
6.0542949999999998
21
-3.7118855905511809
0
LINE
8
B.Mask
6
CONTINUOUS
10
6.0542949999999998
20
-3.7118855905511809
11
6.0542949999999998
21
-3.7053253543307085
0
LINE
8
B.Mask
6
CONTINUOUS
10
6.0542949999999998
20
-3.7053253543307085
11
6.0555748425196851
21
-3.6988912204724409
0
LINE
8
B.Mask
6
CONTINUOUS
10
6.0555748425196851
20
-3.6988912204724409
11
6.0580853149606302
21
-3.6928303937007874
0
LINE
8
B.Mask
6
CONTINUOUS
10
6.0580853149606302
20
-3.6928303937007874
11
6.0617299606299211
21
-3.6873757874015749
0
LINE
8
B.Mask
6
CONTINUOUS
10
6.0617299606299211
20
-3.6873757874015749
11
6.06636874015748
21
-3.6827370078740156
0
LINE
8
B.Mask
6
CONTINUOUS
10
6.06636874015748
20
-3.6827370078740156
11
6.0718233464566929
21
-3.6790923622047242
0
LINE
8
B.Mask
6
CONTINUOUS
10
6.0718233464566929
20
-3.6790923622047242
11
6.0778841732283464
21
-3.6765818897637796
0
LINE
8
B.Mask
6
CONTINUOUS
10
6.0778841732283464
20
-3.6765818897637796
11
6.0843183070866145
21
-3.6753020472440943
0
LINE
8
B.Mask
6
CONTINUOUS
10
6.0843183070866145
20
-3.6753020472440943
11
6.0908785433070864
21
-3.6753020472440943
0
LINE
8
B.Mask
6
CONTINUOUS
10
6.0908785433070864
20
-3.6753020472440943
11
6.0973126771653545
21
-3.6765818897637796
0
LINE
8
B.Mask
6
CONTINUOUS
10
5.1857730708661416
20
-3.5782354724409449
11
5.1918338976377951
21
-3.5807459448818895
0
LINE
8
B.Mask
6
CONTINUOUS
10
5.1918338976377951
20
-3.5807459448818895
11
5.197288503937008
21
-3.5843905905511808
0
LINE
8
B.Mask
6
CONTINUOUS
10
5.197288503937008
20
-3.5843905905511808
11
5.2019272834645669
21
-3.5890293700787401
0
LINE
8
B.Mask
6
CONTINUOUS
10
5.2019272834645669
20
-3.5890293700787401
11
5.2055719291338578
21
-3.5944839763779526
0
LINE
8
B.Mask
6
CONTINUOUS
10
5.2055719291338578
20
-3.5944839763779526
11
5.2080824015748028
21
-3.6005448031496061
0
LINE
8
B.Mask
6
CONTINUOUS
10
5.2080824015748028
20
-3.6005448031496061
11
5.2093622440944882
21
-3.6069789370078738
0
LINE
8
B.Mask
6
CONTINUOUS
10
5.2093622440944882
20
-3.6069789370078738
11
5.2093622440944882
21
-3.6135391732283462
0
LINE
8
B.Mask
6
CONTINUOUS
10
5.2093622440944882
20
-3.6135391732283462
11
5.2080824015748028
21
-3.6199733070866142
0
LINE
8
B.Mask
6
CONTINUOUS
10
5.2080824015748028
20
-3.6199733070866142
11
5.2055719291338578
21
-3.6260341338582678
0
LINE
8
B.Mask
6
CONTINUOUS
10
5.2055719291338578
20
-3.6260341338582678
11
5.2019272834645669
21
-3.6314887401574802
0
LINE
8
B.Mask
6
CONTINUOUS
10
5.2019272834645669
20
-3.6314887401574802
11
5.197288503937008
21
-3.6361275196850391
0
LINE
8
B.Mask
6
CONTINUOUS
10
5.197288503937008
20
-3.6361275196850391
11
5.1918338976377951
21
-3.6397721653543305
0
LINE
8
B.Mask
6
CONTINUOUS
10
5.1918338976377951
20
-3.6397721653543305
11
5.1857730708661416
21
-3.6422826377952755
0
LINE
8
B.Mask
6
CONTINUOUS
10
5.1857730708661416
20
-3.6422826377952755
11
5.1793389370078735
21
-3.6435624803149604
0
LINE
8
B.Mask
6
CONTINUOUS
10
5.1793389370078735
20
-3.6435624803149604
11
5.1727787007874015
21
-3.6435624803149604
0
LINE
8
B.Mask
6
CONTINUOUS
10
5.1727787007874015
20
-3.6435624803149604
11
5.1663445669291335
21
-3.6422826377952755
0
LINE
8
B.Mask
6
CONTINUOUS
10
5.1663445669291335
20
-3.6422826377952755
11
5.1602837401574799
21
-3.6397721653543305
0
LINE
8
B.Mask
6
CONTINUOUS
10
5.1602837401574799
20
-3.6397721653543305
11
5.1548291338582679
21
-3.6361275196850391
0
LINE
8
B.Mask
6
CONTINUOUS
10
5.1548291338582679
20
-3.6361275196850391
11
5.1501903543307082
21
-3.6314887401574802
0
LINE
8
B.Mask
6
CONTINUOUS
10
5.1501903543307082
20
-3.6314887401574802
11
5.1465457086614173
21
-3.6260341338582678
0
LINE
8
B.Mask
6
CONTINUOUS
10
5.1465457086614173
20
-3.6260341338582678
11
5.1440352362204722
21
-3.6199733070866142
0
LINE
8
B.Mask
6
CONTINUOUS
10
5.1440352362204722
20
-3.6199733070866142
11
5.1427553937007877
21
-3.6135391732283462
0
LINE
8
B.Mask
6
CONTINUOUS
10
5.1427553937007877
20
-3.6135391732283462
11
5.1427553937007877
21
-3.6069789370078738
0
LINE
8
B.Mask
6
CONTINUOUS
10
5.1427553937007877
20
-3.6069789370078738
11
5.1440352362204722
21
-3.6005448031496061
0
LINE
8
B.Mask
6
CONTINUOUS
10
5.1440352362204722
20
-3.6005448031496061
11
5.1465457086614173
21
-3.5944839763779526
0
LINE
8
B.Mask
6
CONTINUOUS
10
5.1465457086614173
20
-3.5944839763779526
11
5.1501903543307082
21
-3.5890293700787401
0
LINE
8
B.Mask
6
CONTINUOUS
10
5.1501903543307082
20
-3.5890293700787401
11
5.1548291338582679
21
-3.5843905905511808
0
LINE
8
B.Mask
6
CONTINUOUS
10
5.1548291338582679
20
-3.5843905905511808
11
5.1602837401574799
21
-3.5807459448818895
0
LINE
8
B.Mask
6
CONTINUOUS
10
5.1602837401574799
20
-3.5807459448818895
11
5.1663445669291335
21
-3.5782354724409449
0
LINE
8
B.Mask
6
CONTINUOUS
10
5.1663445669291335
20
-3.5782354724409449
11
5.1727787007874015
21
-3.5769556299212599
0
LINE
8
B.Mask
6
CONTINUOUS
10
5.1727787007874015
20
-3.5769556299212599
11
5.1793389370078735
21
-3.5769556299212599
0
LINE
8
B.Mask
6
CONTINUOUS
10
5.1793389370078735
20
-3.5769556299212599
11
5.1857730708661416
21
-3.5782354724409449
0
LINE
8
B.Mask
6
CONTINUOUS
10
6.0973126771653545
20
-3.5765818897637796
11
6.1033735039370081
21
-3.5790923622047242
0
LINE
8
B.Mask
6
CONTINUOUS
10
6.1033735039370081
20
-3.5790923622047242
11
6.1088281102362201
21
-3.5827370078740155
0
LINE
8
B.Mask
6
CONTINUOUS
10
6.1088281102362201
20
-3.5827370078740155
11
6.1134668897637798
21
-3.5873757874015748
0
LINE
8
B.Mask
6
CONTINUOUS
10
6.1134668897637798
20
-3.5873757874015748
11
6.1171115354330707
21
-3.5928303937007873
0
LINE
8
B.Mask
6
CONTINUOUS
10
6.1171115354330707
20
-3.5928303937007873
11
6.1196220078740158
21
-3.5988912204724408
0
LINE
8
B.Mask
6
CONTINUOUS
10
6.1196220078740158
20
-3.5988912204724408
11
6.1209018503937003
21
-3.6053253543307084
0
LINE
8
B.Mask
6
CONTINUOUS
10
6.1209018503937003
20
-3.6053253543307084
11
6.1209018503937003
21
-3.6118855905511809
0
LINE
8
B.Mask
6
CONTINUOUS
10
6.1209018503937003
20
-3.6118855905511809
11
6.1196220078740158
21
-3.6183197244094489
0
LINE
8
B.Mask
6
CONTINUOUS
10
6.1196220078740158
20
-3.6183197244094489
11
6.1171115354330707
21
-3.6243805511811025
0
LINE
8
B.Mask
6
CONTINUOUS
10
6.1171115354330707
20
-3.6243805511811025
11
6.1134668897637798
21
-3.6298351574803149
0
LINE
8
B.Mask
6
CONTINUOUS
10
6.1134668897637798
20
-3.6298351574803149
11
6.1088281102362201
21
-3.6344739370078738
0
LINE
8
B.Mask
6
CONTINUOUS
10
6.1088281102362201
20
-3.6344739370078738
11
6.1033735039370081
21
-3.6381185826771651
0
LINE
8
B.Mask
6
CONTINUOUS
10
6.1033735039370081
20
-3.6381185826771651
11
6.0973126771653545
21
-3.6406290551181102
0
LINE
8
B.Mask
6
CONTINUOUS
10
6.0973126771653545
20
-3.6406290551181102
11
6.0908785433070864
21
-3.6419088976377951
0
LINE
8
B.Mask
6
CONTINUOUS
10
6.0908785433070864
20
-3.6419088976377951
11
6.0843183070866145
21
-3.6419088976377951
0
LINE
8
B.Mask
6
CONTINUOUS
10
6.0843183070866145
20
-3.6419088976377951
11
6.0778841732283464
21
-3.6406290551181102
0
LINE
8
B.Mask
6
CONTINUOUS
10
6.0778841732283464
20
-3.6406290551181102
11
6.0718233464566929
21
-3.6381185826771651
0
LINE
8
B.Mask
6
CONTINUOUS
10
6.0718233464566929
20
-3.6381185826771651
11
6.06636874015748
21
-3.6344739370078738
0
LINE
8
B.Mask
6
CONTINUOUS
10
6.06636874015748
20
-3.6344739370078738
11
6.0617299606299211
21
-3.6298351574803149
0
LINE
8
B.Mask
6
CONTINUOUS
10
6.0617299606299211
20
-3.6298351574803149
11
6.0580853149606302
21
-3.6243805511811025
0
LINE
8
B.Mask
6
CONTINUOUS
10
6.0580853149606302
20
-3.6243805511811025
11
6.0555748425196851
21
-3.6183197244094489
0
LINE
8
B.Mask
6
CONTINUOUS
10
6.0555748425196851
20
-3.6183197244094489
11
6.0542949999999998
21
-3.6118855905511809
0
LINE
8
B.Mask
6
CONTINUOUS
10
6.0542949999999998
20
-3.6118855905511809
11
6.0542949999999998
21
-3.6053253543307084
0
LINE
8
B.Mask
6
CONTINUOUS
10
6.0542949999999998
20
-3.6053253543307084
11
6.0555748425196851
21
-3.5988912204724408
0
LINE
8
B.Mask
6
CONTINUOUS
10
6.0555748425196851
20
-3.5988912204724408
11
6.0580853149606302
21
-3.5928303937007873
0
LINE
8
B.Mask
6
CONTINUOUS
10
6.0580853149606302
20
-3.5928303937007873
11
6.0617299606299211
21
-3.5873757874015748
0
LINE
8
B.Mask
6
CONTINUOUS
10
6.0617299606299211
20
-3.5873757874015748
11
6.06636874015748
21
-3.5827370078740155
0
LINE
8
B.Mask
6
CONTINUOUS
10
6.06636874015748
20
-3.5827370078740155
11
6.0718233464566929
21
-3.5790923622047242
0
LINE
8
B.Mask
6
CONTINUOUS
10
6.0718233464566929
20
-3.5790923622047242
11
6.0778841732283464
21
-3.5765818897637796
0
LINE
8
B.Mask
6
CONTINUOUS
10
6.0778841732283464
20
-3.5765818897637796
11
6.0843183070866145
21
-3.5753020472440946
0
LINE
8
B.Mask
6
CONTINUOUS
10
6.0843183070866145
20
-3.5753020472440946
11
6.0908785433070864
21
-3.5753020472440946
0
LINE
8
B.Mask
6
CONTINUOUS
10
6.0908785433070864
20
-3.5753020472440946
11
6.0973126771653545
21
-3.5765818897637796
0
LINE
8
B.Mask
6
CONTINUOUS
10
5.1857730708661416
20
-3.4782354724409448
11
5.1918338976377951
21
-3.4807459448818898
0
LINE
8
B.Mask
6
CONTINUOUS
10
5.1918338976377951
20
-3.4807459448818898
11
5.197288503937008
21
-3.4843905905511812
0
LINE
8
B.Mask
6
CONTINUOUS
10
5.197288503937008
20
-3.4843905905511812
11
5.2019272834645669
21
-3.48902937007874
0
LINE
8
B.Mask
6
CONTINUOUS
10
5.2019272834645669
20
-3.48902937007874
11
5.2055719291338578
21
-3.4944839763779525
0
LINE
8
B.Mask
6
CONTINUOUS
10
5.2055719291338578
20
-3.4944839763779525
11
5.2080824015748028
21
-3.500544803149606
0
LINE
8
B.Mask
6
CONTINUOUS
10
5.2080824015748028
20
-3.500544803149606
11
5.2093622440944882
21
-3.5069789370078741
0
LINE
8
B.Mask
6
CONTINUOUS
10
5.2093622440944882
20
-3.5069789370078741
11
5.2093622440944882
21
-3.5135391732283465
0
LINE
8
B.Mask
6
CONTINUOUS
10
5.2093622440944882
20
-3.5135391732283465
11
5.2080824015748028
21
-3.5199733070866142
0
LINE
8
B.Mask
6
CONTINUOUS
10
5.2080824015748028
20
-3.5199733070866142
11
5.2055719291338578
21
-3.5260341338582677
0
LINE
8
B.Mask
6
CONTINUOUS
10
5.2055719291338578
20
-3.5260341338582677
11
5.2019272834645669
21
-3.5314887401574802
0
LINE
8
B.Mask
6
CONTINUOUS
10
5.2019272834645669
20
-3.5314887401574802
11
5.197288503937008
21
-3.5361275196850395
0
LINE
8
B.Mask
6
CONTINUOUS
10
5.197288503937008
20
-3.5361275196850395
11
5.1918338976377951
21
-3.5397721653543308
0
LINE
8
B.Mask
6
CONTINUOUS
10
5.1918338976377951
20
-3.5397721653543308
11
5.1857730708661416
21
-3.5422826377952754
0
LINE
8
B.Mask
6
CONTINUOUS
10
5.1857730708661416
20
-3.5422826377952754
11
5.1793389370078735
21
-3.5435624803149604
0
LINE
8
B.Mask
6
CONTINUOUS
10
5.1793389370078735
20
-3.5435624803149604
11
5.1727787007874015
21
-3.5435624803149604
0
LINE
8
B.Mask
6
CONTINUOUS
10
5.1727787007874015
20
-3.5435624803149604
11
5.1663445669291335
21
-3.5422826377952754
0
LINE
8
B.Mask
6
CONTINUOUS
10
5.1663445669291335
20
-3.5422826377952754
11
5.1602837401574799
21
-3.5397721653543308
0
LINE
8
B.Mask
6
CONTINUOUS
10
5.1602837401574799
20
-3.5397721653543308
11
5.1548291338582679
21
-3.5361275196850395
0
LINE
8
B.Mask
6
CONTINUOUS
10
5.1548291338582679
20
-3.5361275196850395
11
5.1501903543307082
21
-3.5314887401574802
0
LINE
8
B.Mask
6
CONTINUOUS
10
5.1501903543307082
20
-3.5314887401574802
11
5.1465457086614173
21
-3.5260341338582677
0
LINE
8
B.Mask
6
CONTINUOUS
10
5.1465457086614173
20
-3.5260341338582677
11
5.1440352362204722
21
-3.5199733070866142
0
LINE
8
B.Mask
6
CONTINUOUS
10
5.1440352362204722
20
-3.5199733070866142
11
5.1427553937007877
21
-3.5135391732283465
0
LINE
8
B.Mask
6
CONTINUOUS
10
5.1427553937007877
20
-3.5135391732283465
11
5.1427553937007877
21
-3.5069789370078741
0
LINE
8
B.Mask
6
CONTINUOUS
10
5.1427553937007877
20
-3.5069789370078741
11
5.1440352362204722
21
-3.500544803149606
0
LINE
8
B.Mask
6
CONTINUOUS
10
5.1440352362204722
20
-3.500544803149606
11
5.1465457086614173
21
-3.4944839763779525
0
LINE
8
B.Mask
6
CONTINUOUS
10
5.1465457086614173
20
-3.4944839763779525
11
5.1501903543307082
21
-3.48902937007874
0
LINE
8
B.Mask
6
CONTINUOUS
10
5.1501903543307082
20
-3.48902937007874
11
5.1548291338582679
21
-3.4843905905511812
0
LINE
8
B.Mask
6
CONTINUOUS
10
5.1548291338582679
20
-3.4843905905511812
11
5.1602837401574799
21
-3.4807459448818898
0
LINE
8
B.Mask
6
CONTINUOUS
10
5.1602837401574799
20
-3.4807459448818898
11
5.1663445669291335
21
-3.4782354724409448
0
LINE
8
B.Mask
6
CONTINUOUS
10
5.1663445669291335
20
-3.4782354724409448
11
5.1727787007874015
21
-3.4769556299212598
0
LINE
8
B.Mask
6
CONTINUOUS
10
5.1727787007874015
20
-3.4769556299212598
11
5.1793389370078735
21
-3.4769556299212598
0
LINE
8
B.Mask
6
CONTINUOUS
10
5.1793389370078735
20
-3.4769556299212598
11
5.1857730708661416
21
-3.4782354724409448
0
LINE
8
B.Mask
6
CONTINUOUS
10
6.0973126771653545
20
-3.4765818897637795
11
6.1033735039370081
21
-3.4790923622047245
0
LINE
8
B.Mask
6
CONTINUOUS
10
6.1033735039370081
20
-3.4790923622047245
11
6.1088281102362201
21
-3.4827370078740159
0
LINE
8
B.Mask
6
CONTINUOUS
10
6.1088281102362201
20
-3.4827370078740159
11
6.1134668897637798
21
-3.4873757874015747
0
LINE
8
B.Mask
6
CONTINUOUS
10
6.1134668897637798
20
-3.4873757874015747
11
6.1171115354330707
21
-3.4928303937007872
0
LINE
8
B.Mask
6
CONTINUOUS
10
6.1171115354330707
20
-3.4928303937007872
11
6.1196220078740158
21
-3.4988912204724407
0
LINE
8
B.Mask
6
CONTINUOUS
10
6.1196220078740158
20
-3.4988912204724407
11
6.1209018503937003
21
-3.5053253543307088
0
LINE
8
B.Mask
6
CONTINUOUS
10
6.1209018503937003
20
-3.5053253543307088
11
6.1209018503937003
21
-3.5118855905511812
0
LINE
8
B.Mask
6
CONTINUOUS
10
6.1209018503937003
20
-3.5118855905511812
11
6.1196220078740158
21
-3.5183197244094488
0
LINE
8
B.Mask
6
CONTINUOUS
10
6.1196220078740158
20
-3.5183197244094488
11
6.1171115354330707
21
-3.5243805511811024
0
LINE
8
B.Mask
6
CONTINUOUS
10
6.1171115354330707
20
-3.5243805511811024
11
6.1134668897637798
21
-3.5298351574803148
0
LINE
8
B.Mask
6
CONTINUOUS
10
6.1134668897637798
20
-3.5298351574803148
11
6.1088281102362201
21
-3.5344739370078742
0
LINE
8
B.Mask
6
CONTINUOUS
10
6.1088281102362201
20
-3.5344739370078742
11
6.1033735039370081
21
-3.5381185826771651
0
LINE
8
B.Mask
6
CONTINUOUS
10
6.1033735039370081
20
-3.5381185826771651
11
6.0973126771653545
21
-3.5406290551181101
0
LINE
8
B.Mask
6
CONTINUOUS
10
6.0973126771653545
20
-3.5406290551181101
11
6.0908785433070864
21
-3.541908897637795
0
LINE
8
B.Mask
6
CONTINUOUS
10
6.0908785433070864
20
-3.541908897637795
11
6.0843183070866145
21
-3.541908897637795
0
LINE
8
B.Mask
6
CONTINUOUS
10
6.0843183070866145
20
-3.541908897637795
11
6.0778841732283464
21
-3.5406290551181101
0
LINE
8
B.Mask
6
CONTINUOUS
10
6.0778841732283464
20
-3.5406290551181101
11
6.0718233464566929
21
-3.5381185826771651
0
LINE
8
B.Mask
6
CONTINUOUS
10
6.0718233464566929
20
-3.5381185826771651
11
6.06636874015748
21
-3.5344739370078742
0
LINE
8
B.Mask
6
CONTINUOUS
10
6.06636874015748
20
-3.5344739370078742
11
6.0617299606299211
21
-3.5298351574803148
0
LINE
8
B.Mask
6
CONTINUOUS
10
6.0617299606299211
20
-3.5298351574803148
11
6.0580853149606302
21
-3.5243805511811024
0
LINE
8
B.Mask
6
CONTINUOUS
10
6.0580853149606302
20
-3.5243805511811024
11
6.0555748425196851
21
-3.5183197244094488
0
LINE
8
B.Mask
6
CONTINUOUS
10
6.0555748425196851
20
-3.5183197244094488
11
6.0542949999999998
21
-3.5118855905511812
0
LINE
8
B.Mask
6
CONTINUOUS
10
6.0542949999999998
20
-3.5118855905511812
11
6.0542949999999998
21
-3.5053253543307088
0
LINE
8
B.Mask
6
CONTINUOUS
10
6.0542949999999998
20
-3.5053253543307088
11
6.0555748425196851
21
-3.4988912204724407
0
LINE
8
B.Mask
6
CONTINUOUS
10
6.0555748425196851
20
-3.4988912204724407
11
6.0580853149606302
21
-3.4928303937007872
0
LINE
8
B.Mask
6
CONTINUOUS
10
6.0580853149606302
20
-3.4928303937007872
11
6.0617299606299211
21
-3.4873757874015747
0
LINE
8
B.Mask
6
CONTINUOUS
10
6.0617299606299211
20
-3.4873757874015747
11
6.06636874015748
21
-3.4827370078740159
0
LINE
8
B.Mask
6
CONTINUOUS
10
6.06636874015748
20
-3.4827370078740159
11
6.0718233464566929
21
-3.4790923622047245
0
LINE
8
B.Mask
6
CONTINUOUS
10
6.0718233464566929
20
-3.4790923622047245
11
6.0778841732283464
21
-3.4765818897637795
0
LINE
8
B.Mask
6
CONTINUOUS
10
6.0778841732283464
20
-3.4765818897637795
11
6.0843183070866145
21
-3.4753020472440945
0
LINE
8
B.Mask
6
CONTINUOUS
10
6.0843183070866145
20
-3.4753020472440945
11
6.0908785433070864
21
-3.4753020472440945
0
LINE
8
B.Mask
6
CONTINUOUS
10
6.0908785433070864
20
-3.4753020472440945
11
6.0973126771653545
21
-3.4765818897637795
0
LINE
8
B.Mask
6
CONTINUOUS
10
5.1857730708661416
20
-3.3782354724409447
11
5.1918338976377951
21
-3.3807459448818897
0
LINE
8
B.Mask
6
CONTINUOUS
10
5.1918338976377951
20
-3.3807459448818897
11
5.197288503937008
21
-3.3843905905511811
0
LINE
8
B.Mask
6
CONTINUOUS
10
5.197288503937008
20
-3.3843905905511811
11
5.2019272834645669
21
-3.3890293700787399
0
LINE
8
B.Mask
6
CONTINUOUS
10
5.2019272834645669
20
-3.3890293700787399
11
5.2055719291338578
21
-3.3944839763779528
0
LINE
8
B.Mask
6
CONTINUOUS
10
5.2055719291338578
20
-3.3944839763779528
11
5.2080824015748028
21
-3.4005448031496064
0
LINE
8
B.Mask
6
CONTINUOUS
10
5.2080824015748028
20
-3.4005448031496064
11
5.2093622440944882
21
-3.406978937007874
0
LINE
8
B.Mask
6
CONTINUOUS
10
5.2093622440944882
20
-3.406978937007874
11
5.2093622440944882
21
-3.4135391732283464
0
LINE
8
B.Mask
6
CONTINUOUS
10
5.2093622440944882
20
-3.4135391732283464
11
5.2080824015748028
21
-3.4199733070866141
0
LINE
8
B.Mask
6
CONTINUOUS
10
5.2080824015748028
20
-3.4199733070866141
11
5.2055719291338578
21
-3.4260341338582676
0
LINE
8
B.Mask
6
CONTINUOUS
10
5.2055719291338578
20
-3.4260341338582676
11
5.2019272834645669
21
-3.4314887401574801
0
LINE
8
B.Mask
6
CONTINUOUS
10
5.2019272834645669
20
-3.4314887401574801
11
5.197288503937008
21
-3.4361275196850394
0
LINE
8
B.Mask
6
CONTINUOUS
10
5.197288503937008
20
-3.4361275196850394
11
5.1918338976377951
21
-3.4397721653543307
0
LINE
8
B.Mask
6
CONTINUOUS
10
5.1918338976377951
20
-3.4397721653543307
11
5.1857730708661416
21
-3.4422826377952753
0
LINE
8
B.Mask
6
CONTINUOUS
10
5.1857730708661416
20
-3.4422826377952753
11
5.1793389370078735
21
-3.4435624803149607
0
LINE
8
B.Mask
6
CONTINUOUS
10
5.1793389370078735
20
-3.4435624803149607
11
5.1727787007874015
21
-3.4435624803149607
0
LINE
8
B.Mask
6
CONTINUOUS
10
5.1727787007874015
20
-3.4435624803149607
11
5.1663445669291335
21
-3.4422826377952753
0
LINE
8
B.Mask
6
CONTINUOUS
10
5.1663445669291335
20
-3.4422826377952753
11
5.1602837401574799
21
-3.4397721653543307
0
LINE
8
B.Mask
6
CONTINUOUS
10
5.1602837401574799
20
-3.4397721653543307
11
5.1548291338582679
21
-3.4361275196850394
0
LINE
8
B.Mask
6
CONTINUOUS
10
5.1548291338582679
20
-3.4361275196850394
11
5.1501903543307082
21
-3.4314887401574801
0
LINE
8
B.Mask
6
CONTINUOUS
10
5.1501903543307082
20
-3.4314887401574801
11
5.1465457086614173
21
-3.4260341338582676
0
LINE
8
B.Mask
6
CONTINUOUS
10
5.1465457086614173
20
-3.4260341338582676
11
5.1440352362204722
21
-3.4199733070866141
0
LINE
8
B.Mask
6
CONTINUOUS
10
5.1440352362204722
20
-3.4199733070866141
11
5.1427553937007877
21
-3.4135391732283464
0
LINE
8
B.Mask
6
CONTINUOUS
10
5.1427553937007877
20
-3.4135391732283464
11
5.1427553937007877
21
-3.406978937007874
0
LINE
8
B.Mask
6
CONTINUOUS
10
5.1427553937007877
20
-3.406978937007874
11
5.1440352362204722
21
-3.4005448031496064
0
LINE
8
B.Mask
6
CONTINUOUS
10
5.1440352362204722
20
-3.4005448031496064
11
5.1465457086614173
21
-3.3944839763779528
0
LINE
8
B.Mask
6
CONTINUOUS
10
5.1465457086614173
20
-3.3944839763779528
11
5.1501903543307082
21
-3.3890293700787399
0
LINE
8
B.Mask
6
CONTINUOUS
10
5.1501903543307082
20
-3.3890293700787399
11
5.1548291338582679
21
-3.3843905905511811
0
LINE
8
B.Mask
6
CONTINUOUS
10
5.1548291338582679
20
-3.3843905905511811
11
5.1602837401574799
21
-3.3807459448818897
0
LINE
8
B.Mask
6
CONTINUOUS
10
5.1602837401574799
20
-3.3807459448818897
11
5.1663445669291335
21
-3.3782354724409447
0
LINE
8
B.Mask
6
CONTINUOUS
10
5.1663445669291335
20
-3.3782354724409447
11
5.1727787007874015
21
-3.3769556299212597
0
LINE
8
B.Mask
6
CONTINUOUS
10
5.1727787007874015
20
-3.3769556299212597
11
5.1793389370078735
21
-3.3769556299212597
0
LINE
8
B.Mask
6
CONTINUOUS
10
5.1793389370078735
20
-3.3769556299212597
11
5.1857730708661416
21
-3.3782354724409447
0
LINE
8
B.Mask
6
CONTINUOUS
10
6.0973126771653545
20
-3.3765818897637794
11
6.1033735039370081
21
-3.3790923622047244
0
LINE
8
B.Mask
6
CONTINUOUS
10
6.1033735039370081
20
-3.3790923622047244
11
6.1088281102362201
21
-3.3827370078740158
0
LINE
8
B.Mask
6
CONTINUOUS
10
6.1088281102362201
20
-3.3827370078740158
11
6.1134668897637798
21
-3.3873757874015746
0
LINE
8
B.Mask
6
CONTINUOUS
10
6.1134668897637798
20
-3.3873757874015746
11
6.1171115354330707
21
-3.3928303937007875
0
LINE
8
B.Mask
6
CONTINUOUS
10
6.1171115354330707
20
-3.3928303937007875
11
6.1196220078740158
21
-3.3988912204724411
0
LINE
8
B.Mask
6
CONTINUOUS
10
6.1196220078740158
20
-3.3988912204724411
11
6.1209018503937003
21
-3.4053253543307087
0
LINE
8
B.Mask
6
CONTINUOUS
10
6.1209018503937003
20
-3.4053253543307087
11
6.1209018503937003
21
-3.4118855905511811
0
LINE
8
B.Mask
6
CONTINUOUS
10
6.1209018503937003
20
-3.4118855905511811
11
6.1196220078740158
21
-3.4183197244094488
0
LINE
8
B.Mask
6
CONTINUOUS
10
6.1196220078740158
20
-3.4183197244094488
11
6.1171115354330707
21
-3.4243805511811023
0
LINE
8
B.Mask
6
CONTINUOUS
10
6.1171115354330707
20
-3.4243805511811023
11
6.1134668897637798
21
-3.4298351574803148
0
LINE
8
B.Mask
6
CONTINUOUS
10
6.1134668897637798
20
-3.4298351574803148
11
6.1088281102362201
21
-3.4344739370078741
0
LINE
8
B.Mask
6
CONTINUOUS
10
6.1088281102362201
20
-3.4344739370078741
11
6.1033735039370081
21
-3.4381185826771654
0
LINE
8
B.Mask
6
CONTINUOUS
10
6.1033735039370081
20
-3.4381185826771654
11
6.0973126771653545
21
-3.44062905511811
0
LINE
8
B.Mask
6
CONTINUOUS
10
6.0973126771653545
20
-3.44062905511811
11
6.0908785433070864
21
-3.4419088976377954
0
LINE
8
B.Mask
6
CONTINUOUS
10
6.0908785433070864
20
-3.4419088976377954
11
6.0843183070866145
21
-3.4419088976377954
0
LINE
8
B.Mask
6
CONTINUOUS
10
6.0843183070866145
20
-3.4419088976377954
11
6.0778841732283464
21
-3.44062905511811
0
LINE
8
B.Mask
6
CONTINUOUS
10
6.0778841732283464
20
-3.44062905511811
11
6.0718233464566929
21
-3.4381185826771654
0
LINE
8
B.Mask
6
CONTINUOUS
10
6.0718233464566929
20
-3.4381185826771654
11
6.06636874015748
21
-3.4344739370078741
0
LINE
8
B.Mask
6
CONTINUOUS
10
6.06636874015748
20
-3.4344739370078741
11
6.0617299606299211
21
-3.4298351574803148
0
LINE
8
B.Mask
6
CONTINUOUS
10
6.0617299606299211
20
-3.4298351574803148
11
6.0580853149606302
21
-3.4243805511811023
0
LINE
8
B.Mask
6
CONTINUOUS
10
6.0580853149606302
20
-3.4243805511811023
11
6.0555748425196851
21
-3.4183197244094488
0
LINE
8
B.Mask
6
CONTINUOUS
10
6.0555748425196851
20
-3.4183197244094488
11
6.0542949999999998
21
-3.4118855905511811
0
LINE
8
B.Mask
6
CONTINUOUS
10
6.0542949999999998
20
-3.4118855905511811
11
6.0542949999999998
21
-3.4053253543307087
0
LINE
8
B.Mask
6
CONTINUOUS
10
6.0542949999999998
20
-3.4053253543307087
11
6.0555748425196851
21
-3.3988912204724411
0
LINE
8
B.Mask
6
CONTINUOUS
10
6.0555748425196851
20
-3.3988912204724411
11
6.0580853149606302
21
-3.3928303937007875
0
LINE
8
B.Mask
6
CONTINUOUS
10
6.0580853149606302
20
-3.3928303937007875
11
6.0617299606299211
21
-3.3873757874015746
0
LINE
8
B.Mask
6
CONTINUOUS
10
6.0617299606299211
20
-3.3873757874015746
11
6.06636874015748
21
-3.3827370078740158
0
LINE
8
B.Mask
6
CONTINUOUS
10
6.06636874015748
20
-3.3827370078740158
11
6.0718233464566929
21
-3.3790923622047244
0
LINE
8
B.Mask
6
CONTINUOUS
10
6.0718233464566929
20
-3.3790923622047244
11
6.0778841732283464
21
-3.3765818897637794
0
LINE
8
B.Mask
6
CONTINUOUS
10
6.0778841732283464
20
-3.3765818897637794
11
6.0843183070866145
21
-3.3753020472440944
0
LINE
8
B.Mask
6
CONTINUOUS
10
6.0843183070866145
20
-3.3753020472440944
11
6.0908785433070864
21
-3.3753020472440944
0
LINE
8
B.Mask
6
CONTINUOUS
10
6.0908785433070864
20
-3.3753020472440944
11
6.0973126771653545
21
-3.3765818897637794
0
LINE
8
B.Mask
6
CONTINUOUS
10
5.1857730708661416
20
-3.2782354724409446
11
5.1918338976377951
21
-3.2807459448818896
0
LINE
8
B.Mask
6
CONTINUOUS
10
5.1918338976377951
20
-3.2807459448818896
11
5.197288503937008
21
-3.284390590551181
0
LINE
8
B.Mask
6
CONTINUOUS
10
5.197288503937008
20
-3.284390590551181
11
5.2019272834645669
21
-3.2890293700787403
0
LINE
8
B.Mask
6
CONTINUOUS
10
5.2019272834645669
20
-3.2890293700787403
11
5.2055719291338578
21
-3.2944839763779528
0
LINE
8
B.Mask
6
CONTINUOUS
10
5.2055719291338578
20
-3.2944839763779528
11
5.2080824015748028
21
-3.3005448031496063
0
LINE
8
B.Mask
6
CONTINUOUS
10
5.2080824015748028
20
-3.3005448031496063
11
5.2093622440944882
21
-3.3069789370078739
0
LINE
8
B.Mask
6
CONTINUOUS
10
5.2093622440944882
20
-3.3069789370078739
11
5.2093622440944882
21
-3.3135391732283463
0
LINE
8
B.Mask
6
CONTINUOUS
10
5.2093622440944882
20
-3.3135391732283463
11
5.2080824015748028
21
-3.319973307086614
0
LINE
8
B.Mask
6
CONTINUOUS
10
5.2080824015748028
20
-3.319973307086614
11
5.2055719291338578
21
-3.3260341338582675
0
LINE
8
B.Mask
6
CONTINUOUS
10
5.2055719291338578
20
-3.3260341338582675
11
5.2019272834645669
21
-3.3314887401574804
0
LINE
8
B.Mask
6
CONTINUOUS
10
5.2019272834645669
20
-3.3314887401574804
11
5.197288503937008
21
-3.3361275196850393
0
LINE
8
B.Mask
6
CONTINUOUS
10
5.197288503937008
20
-3.3361275196850393
11
5.1918338976377951
21
-3.3397721653543306
0
LINE
8
B.Mask
6
CONTINUOUS
10
5.1918338976377951
20
-3.3397721653543306
11
5.1857730708661416
21
-3.3422826377952757
0
LINE
8
B.Mask
6
CONTINUOUS
10
5.1857730708661416
20
-3.3422826377952757
11
5.1793389370078735
21
-3.3435624803149606
0
LINE
8
B.Mask
6
CONTINUOUS
10
5.1793389370078735
20
-3.3435624803149606
11
5.1727787007874015
21
-3.3435624803149606
0
LINE
8
B.Mask
6
CONTINUOUS
10
5.1727787007874015
20
-3.3435624803149606
11
5.1663445669291335
21
-3.3422826377952757
0
LINE
8
B.Mask
6
CONTINUOUS
10
5.1663445669291335
20
-3.3422826377952757
11
5.1602837401574799
21
-3.3397721653543306
0
LINE
8
B.Mask
6
CONTINUOUS
10
5.1602837401574799
20
-3.3397721653543306
11
5.1548291338582679
21
-3.3361275196850393
0
LINE
8
B.Mask
6
CONTINUOUS
10
5.1548291338582679
20
-3.3361275196850393
11
5.1501903543307082
21
-3.3314887401574804
0
LINE
8
B.Mask
6
CONTINUOUS
10
5.1501903543307082
20
-3.3314887401574804
11
5.1465457086614173
21
-3.3260341338582675
0
LINE
8
B.Mask
6
CONTINUOUS
10
5.1465457086614173
20
-3.3260341338582675
11
5.1440352362204722
21
-3.319973307086614
0
LINE
8
B.Mask
6
CONTINUOUS
10
5.1440352362204722
20
-3.319973307086614
11
5.1427553937007877
21
-3.3135391732283463
0
LINE
8
B.Mask
6
CONTINUOUS
10
5.1427553937007877
20
-3.3135391732283463
11
5.1427553937007877
21
-3.3069789370078739
0
LINE
8
B.Mask
6
CONTINUOUS
10
5.1427553937007877
20
-3.3069789370078739
11
5.1440352362204722
21
-3.3005448031496063
0
LINE
8
B.Mask
6
CONTINUOUS
10
5.1440352362204722
20
-3.3005448031496063
11
5.1465457086614173
21
-3.2944839763779528
0
LINE
8
B.Mask
6
CONTINUOUS
10
5.1465457086614173
20
-3.2944839763779528
11
5.1501903543307082
21
-3.2890293700787403
0
LINE
8
B.Mask
6
CONTINUOUS
10
5.1501903543307082
20
-3.2890293700787403
11
5.1548291338582679
21
-3.284390590551181
0
LINE
8
B.Mask
6
CONTINUOUS
10
5.1548291338582679
20
-3.284390590551181
11
5.1602837401574799
21
-3.2807459448818896
0
LINE
8
B.Mask
6
CONTINUOUS
10
5.1602837401574799
20
-3.2807459448818896
11
5.1663445669291335
21
-3.2782354724409446
0
LINE
8
B.Mask
6
CONTINUOUS
10
5.1663445669291335
20
-3.2782354724409446
11
5.1727787007874015
21
-3.2769556299212597
0
LINE
8
B.Mask
6
CONTINUOUS
10
5.1727787007874015
20
-3.2769556299212597
11
5.1793389370078735
21
-3.2769556299212597
0
LINE
8
B.Mask
6
CONTINUOUS
10
5.1793389370078735
20
-3.2769556299212597
11
5.1857730708661416
21
-3.2782354724409446
0
LINE
8
B.Mask
6
CONTINUOUS
10
6.0973126771653545
20
-3.2765818897637793
11
6.1033735039370081
21
-3.2790923622047243
0
LINE
8
B.Mask
6
CONTINUOUS
10
6.1033735039370081
20
-3.2790923622047243
11
6.1088281102362201
21
-3.2827370078740157
0
LINE
8
B.Mask
6
CONTINUOUS
10
6.1088281102362201
20
-3.2827370078740157
11
6.1134668897637798
21
-3.2873757874015745
0
LINE
8
B.Mask
6
CONTINUOUS
10
6.1134668897637798
20
-3.2873757874015745
11
6.1171115354330707
21
-3.2928303937007875
0
LINE
8
B.Mask
6
CONTINUOUS
10
6.1171115354330707
20
-3.2928303937007875
11
6.1196220078740158
21
-3.298891220472441
0
LINE
8
B.Mask
6
CONTINUOUS
10
6.1196220078740158
20
-3.298891220472441
11
6.1209018503937003
21
-3.3053253543307086
0
LINE
8
B.Mask
6
CONTINUOUS
10
6.1209018503937003
20
-3.3053253543307086
11
6.1209018503937003
21
-3.311885590551181
0
LINE
8
B.Mask
6
CONTINUOUS
10
6.1209018503937003
20
-3.311885590551181
11
6.1196220078740158
21
-3.3183197244094487
0
LINE
8
B.Mask
6
CONTINUOUS
10
6.1196220078740158
20
-3.3183197244094487
11
6.1171115354330707
21
-3.3243805511811022
0
LINE
8
B.Mask
6
CONTINUOUS
10
6.1171115354330707
20
-3.3243805511811022
11
6.1134668897637798
21
-3.3298351574803147
0
LINE
8
B.Mask
6
CONTINUOUS
10
6.1134668897637798
20
-3.3298351574803147
11
6.1088281102362201
21
-3.334473937007874
0
LINE
8
B.Mask
6
CONTINUOUS
10
6.1088281102362201
20
-3.334473937007874
11
6.1033735039370081
21
-3.3381185826771653
0
LINE
8
B.Mask
6
CONTINUOUS
10
6.1033735039370081
20
-3.3381185826771653
11
6.0973126771653545
21
-3.3406290551181104
0
LINE
8
B.Mask
6
CONTINUOUS
10
6.0973126771653545
20
-3.3406290551181104
11
6.0908785433070864
21
-3.3419088976377953
0
LINE
8
B.Mask
6
CONTINUOUS
10
6.0908785433070864
20
-3.3419088976377953
11
6.0843183070866145
21
-3.3419088976377953
0
LINE
8
B.Mask
6
CONTINUOUS
10
6.0843183070866145
20
-3.3419088976377953
11
6.0778841732283464
21
-3.3406290551181104
0
LINE
8
B.Mask
6
CONTINUOUS
10
6.0778841732283464
20
-3.3406290551181104
11
6.0718233464566929
21
-3.3381185826771653
0
LINE
8
B.Mask
6
CONTINUOUS
10
6.0718233464566929
20
-3.3381185826771653
11
6.06636874015748
21
-3.334473937007874
0
LINE
8
B.Mask
6
CONTINUOUS
10
6.06636874015748
20
-3.334473937007874
11
6.0617299606299211
21
-3.3298351574803147
0
LINE
8
B.Mask
6
CONTINUOUS
10
6.0617299606299211
20
-3.3298351574803147
11
6.0580853149606302
21
-3.3243805511811022
0
LINE
8
B.Mask
6
CONTINUOUS
10
6.0580853149606302
20
-3.3243805511811022
11
6.0555748425196851
21
-3.3183197244094487
0
LINE
8
B.Mask
6
CONTINUOUS
10
6.0555748425196851
20
-3.3183197244094487
11
6.0542949999999998
21
-3.311885590551181
0
LINE
8
B.Mask
6
CONTINUOUS
10
6.0542949999999998
20
-3.311885590551181
11
6.0542949999999998
21
-3.3053253543307086
0
LINE
8
B.Mask
6
CONTINUOUS
10
6.0542949999999998
20
-3.3053253543307086
11
6.0555748425196851
21
-3.298891220472441
0
LINE
8
B.Mask
6
CONTINUOUS
10
6.0555748425196851
20
-3.298891220472441
11
6.0580853149606302
21
-3.2928303937007875
0
LINE
8
B.Mask
6
CONTINUOUS
10
6.0580853149606302
20
-3.2928303937007875
11
6.0617299606299211
21
-3.2873757874015745
0
LINE
8
B.Mask
6
CONTINUOUS
10
6.0617299606299211
20
-3.2873757874015745
11
6.06636874015748
21
-3.2827370078740157
0
LINE
8
B.Mask
6
CONTINUOUS
10
6.06636874015748
20
-3.2827370078740157
11
6.0718233464566929
21
-3.2790923622047243
0
LINE
8
B.Mask
6
CONTINUOUS
10
6.0718233464566929
20
-3.2790923622047243
11
6.0778841732283464
21
-3.2765818897637793
0
LINE
8
B.Mask
6
CONTINUOUS
10
6.0778841732283464
20
-3.2765818897637793
11
6.0843183070866145
21
-3.2753020472440944
0
LINE
8
B.Mask
6
CONTINUOUS
10
6.0843183070866145
20
-3.2753020472440944
11
6.0908785433070864
21
-3.2753020472440944
0
LINE
8
B.Mask
6
CONTINUOUS
10
6.0908785433070864
20
-3.2753020472440944
11
6.0973126771653545
21
-3.2765818897637793
0
LINE
8
B.Mask
6
CONTINUOUS
10
5.2095233858267713
20
-3.2437236220472441
11
5.1425942519685037
21
-3.2437236220472441
0
LINE
8
B.Mask
6
CONTINUOUS
10
5.1425942519685037
20
-3.2437236220472441
11
5.1425942519685037
21
-3.1767944881889765
0
LINE
8
B.Mask
6
CONTINUOUS
10
5.1425942519685037
20
-3.1767944881889765
11
5.2095233858267713
21
-3.1767944881889765
0
LINE
8
B.Mask
6
CONTINUOUS
10
5.2095233858267713
20
-3.1767944881889765
11
5.2095233858267713
21
-3.2437236220472441
0
LINE
8
B.Mask
6
CONTINUOUS
10
6.1210629921259843
20
-3.2420700393700788
11
6.0541338582677167
21
-3.2420700393700788
0
LINE
8
B.Mask
6
CONTINUOUS
10
6.0541338582677167
20
-3.2420700393700788
11
6.0541338582677167
21
-3.1751409055118112
0
LINE
8
B.Mask
6
CONTINUOUS
10
6.0541338582677167
20
-3.1751409055118112
11
6.1210629921259843
21
-3.1751409055118112
0
LINE
8
B.Mask
6
CONTINUOUS
10
6.1210629921259843
20
-3.1751409055118112
11
6.1210629921259843
21
-3.2420700393700788
0
LINE
8
B.Mask
6
CONTINUOUS
10
5.1857730708661416
20
-3.0782354724409449
11
5.1918338976377951
21
-3.0807459448818899
0
LINE
8
B.Mask
6
CONTINUOUS
10
5.1918338976377951
20
-3.0807459448818899
11
5.197288503937008
21
-3.0843905905511808
0
LINE
8
B.Mask
6
CONTINUOUS
10
5.197288503937008
20
-3.0843905905511808
11
5.2019272834645669
21
-3.0890293700787401
0
LINE
8
B.Mask
6
CONTINUOUS
10
5.2019272834645669
20
-3.0890293700787401
11
5.2055719291338578
21
-3.0944839763779526
0
LINE
8
B.Mask
6
CONTINUOUS
10
5.2055719291338578
20
-3.0944839763779526
11
5.2080824015748028
21
-3.1005448031496061
0
LINE
8
B.Mask
6
CONTINUOUS
10
5.2080824015748028
20
-3.1005448031496061
11
5.2093622440944882
21
-3.1069789370078738
0
LINE
8
B.Mask
6
CONTINUOUS
10
5.2093622440944882
20
-3.1069789370078738
11
5.2093622440944882
21
-3.1135391732283462
0
LINE
8
B.Mask
6
CONTINUOUS
10
5.2093622440944882
20
-3.1135391732283462
11
5.2080824015748028
21
-3.1199733070866142
0
LINE
8
B.Mask
6
CONTINUOUS
10
5.2080824015748028
20
-3.1199733070866142
11
5.2055719291338578
21
-3.1260341338582678
0
LINE
8
B.Mask
6
CONTINUOUS
10
5.2055719291338578
20
-3.1260341338582678
11
5.2019272834645669
21
-3.1314887401574802
0
LINE
8
B.Mask
6
CONTINUOUS
10
5.2019272834645669
20
-3.1314887401574802
11
5.197288503937008
21
-3.1361275196850391
0
LINE
8
B.Mask
6
CONTINUOUS
10
5.197288503937008
20
-3.1361275196850391
11
5.1918338976377951
21
-3.1397721653543305
0
LINE
8
B.Mask
6
CONTINUOUS
10
5.1918338976377951
20
-3.1397721653543305
11
5.1857730708661416
21
-3.1422826377952755
0
LINE
8
B.Mask
6
CONTINUOUS
10
5.1857730708661416
20
-3.1422826377952755
11
5.1793389370078735
21
-3.1435624803149604
0
LINE
8
B.Mask
6
CONTINUOUS
10
5.1793389370078735
20
-3.1435624803149604
11
5.1727787007874015
21
-3.1435624803149604
0
LINE
8
B.Mask
6
CONTINUOUS
10
5.1727787007874015
20
-3.1435624803149604
11
5.1663445669291335
21
-3.1422826377952755
0
LINE
8
B.Mask
6
CONTINUOUS
10
5.1663445669291335
20
-3.1422826377952755
11
5.1602837401574799
21
-3.1397721653543305
0
LINE
8
B.Mask
6
CONTINUOUS
10
5.1602837401574799
20
-3.1397721653543305
11
5.1548291338582679
21
-3.1361275196850391
0
LINE
8
B.Mask
6
CONTINUOUS
10
5.1548291338582679
20
-3.1361275196850391
11
5.1501903543307082
21
-3.1314887401574802
0
LINE
8
B.Mask
6
CONTINUOUS
10
5.1501903543307082
20
-3.1314887401574802
11
5.1465457086614173
21
-3.1260341338582678
0
LINE
8
B.Mask
6
CONTINUOUS
10
5.1465457086614173
20
-3.1260341338582678
11
5.1440352362204722
21
-3.1199733070866142
0
LINE
8
B.Mask
6
CONTINUOUS
10
5.1440352362204722
20
-3.1199733070866142
11
5.1427553937007877
21
-3.1135391732283462
0
LINE
8
B.Mask
6
CONTINUOUS
10
5.1427553937007877
20
-3.1135391732283462
11
5.1427553937007877
21
-3.1069789370078738
0
LINE
8
B.Mask
6
CONTINUOUS
10
5.1427553937007877
20
-3.1069789370078738
11
5.1440352362204722
21
-3.1005448031496061
0
LINE
8
B.Mask
6
CONTINUOUS
10
5.1440352362204722
20
-3.1005448031496061
11
5.1465457086614173
21
-3.0944839763779526
0
LINE
8
B.Mask
6
CONTINUOUS
10
5.1465457086614173
20
-3.0944839763779526
11
5.1501903543307082
21
-3.0890293700787401
0
LINE
8
B.Mask
6
CONTINUOUS
10
5.1501903543307082
20
-3.0890293700787401
11
5.1548291338582679
21
-3.0843905905511808
0
LINE
8
B.Mask
6
CONTINUOUS
10
5.1548291338582679
20
-3.0843905905511808
11
5.1602837401574799
21
-3.0807459448818899
0
LINE
8
B.Mask
6
CONTINUOUS
10
5.1602837401574799
20
-3.0807459448818899
11
5.1663445669291335
21
-3.0782354724409449
0
LINE
8
B.Mask
6
CONTINUOUS
10
5.1663445669291335
20
-3.0782354724409449
11
5.1727787007874015
21
-3.0769556299212599
0
LINE
8
B.Mask
6
CONTINUOUS
10
5.1727787007874015
20
-3.0769556299212599
11
5.1793389370078735
21
-3.0769556299212599
0
LINE
8
B.Mask
6
CONTINUOUS
10
5.1793389370078735
20
-3.0769556299212599
11
5.1857730708661416
21
-3.0782354724409449
0
LINE
8
B.Mask
6
CONTINUOUS
10
6.0973126771653545
20
-3.0765818897637796
11
6.1033735039370081
21
-3.0790923622047242
0
LINE
8
B.Mask
6
CONTINUOUS
10
6.1033735039370081
20
-3.0790923622047242
11
6.1088281102362201
21
-3.0827370078740155
0
LINE
8
B.Mask
6
CONTINUOUS
10
6.1088281102362201
20
-3.0827370078740155
11
6.1134668897637798
21
-3.0873757874015748
0
LINE
8
B.Mask
6
CONTINUOUS
10
6.1134668897637798
20
-3.0873757874015748
11
6.1171115354330707
21
-3.0928303937007873
0
LINE
8
B.Mask
6
CONTINUOUS
10
6.1171115354330707
20
-3.0928303937007873
11
6.1196220078740158
21
-3.0988912204724408
0
LINE
8
B.Mask
6
CONTINUOUS
10
6.1196220078740158
20
-3.0988912204724408
11
6.1209018503937003
21
-3.1053253543307084
0
LINE
8
B.Mask
6
CONTINUOUS
10
6.1209018503937003
20
-3.1053253543307084
11
6.1209018503937003
21
-3.1118855905511809
0
LINE
8
B.Mask
6
CONTINUOUS
10
6.1209018503937003
20
-3.1118855905511809
11
6.1196220078740158
21
-3.1183197244094489
0
LINE
8
B.Mask
6
CONTINUOUS
10
6.1196220078740158
20
-3.1183197244094489
11
6.1171115354330707
21
-3.1243805511811025
0
LINE
8
B.Mask
6
CONTINUOUS
10
6.1171115354330707
20
-3.1243805511811025
11
6.1134668897637798
21
-3.1298351574803149
0
LINE
8
B.Mask
6
CONTINUOUS
10
6.1134668897637798
20
-3.1298351574803149
11
6.1088281102362201
21
-3.1344739370078738
0
LINE
8
B.Mask
6
CONTINUOUS
10
6.1088281102362201
20
-3.1344739370078738
11
6.1033735039370081
21
-3.1381185826771651
0
LINE
8
B.Mask
6
CONTINUOUS
10
6.1033735039370081
20
-3.1381185826771651
11
6.0973126771653545
21
-3.1406290551181102
0
LINE
8
B.Mask
6
CONTINUOUS
10
6.0973126771653545
20
-3.1406290551181102
11
6.0908785433070864
21
-3.1419088976377951
0
LINE
8
B.Mask
6
CONTINUOUS
10
6.0908785433070864
20
-3.1419088976377951
11
6.0843183070866145
21
-3.1419088976377951
0
LINE
8
B.Mask
6
CONTINUOUS
10
6.0843183070866145
20
-3.1419088976377951
11
6.0778841732283464
21
-3.1406290551181102
0
LINE
8
B.Mask
6
CONTINUOUS
10
6.0778841732283464
20
-3.1406290551181102
11
6.0718233464566929
21
-3.1381185826771651
0
LINE
8
B.Mask
6
CONTINUOUS
10
6.0718233464566929
20
-3.1381185826771651
11
6.06636874015748
21
-3.1344739370078738
0
LINE
8
B.Mask
6
CONTINUOUS
10
6.06636874015748
20
-3.1344739370078738
11
6.0617299606299211
21
-3.1298351574803149
0
LINE
8
B.Mask
6
CONTINUOUS
10
6.0617299606299211
20
-3.1298351574803149
11
6.0580853149606302
21
-3.1243805511811025
0
LINE
8
B.Mask
6
CONTINUOUS
10
6.0580853149606302
20
-3.1243805511811025
11
6.0555748425196851
21
-3.1183197244094489
0
LINE
8
B.Mask
6
CONTINUOUS
10
6.0555748425196851
20
-3.1183197244094489
11
6.0542949999999998
21
-3.1118855905511809
0
LINE
8
B.Mask
6
CONTINUOUS
10
6.0542949999999998
20
-3.1118855905511809
11
6.0542949999999998
21
-3.1053253543307084
0
LINE
8
B.Mask
6
CONTINUOUS
10
6.0542949999999998
20
-3.1053253543307084
11
6.0555748425196851
21
-3.0988912204724408
0
LINE
8
B.Mask
6
CONTINUOUS
10
6.0555748425196851
20
-3.0988912204724408
11
6.0580853149606302
21
-3.0928303937007873
0
LINE
8
B.Mask
6
CONTINUOUS
10
6.0580853149606302
20
-3.0928303937007873
11
6.0617299606299211
21
-3.0873757874015748
0
LINE
8
B.Mask
6
CONTINUOUS
10
6.0617299606299211
20
-3.0873757874015748
11
6.06636874015748
21
-3.0827370078740155
0
LINE
8
B.Mask
6
CONTINUOUS
10
6.06636874015748
20
-3.0827370078740155
11
6.0718233464566929
21
-3.0790923622047242
0
LINE
8
B.Mask
6
CONTINUOUS
10
6.0718233464566929
20
-3.0790923622047242
11
6.0778841732283464
21
-3.0765818897637796
0
LINE
8
B.Mask
6
CONTINUOUS
10
6.0778841732283464
20
-3.0765818897637796
11
6.0843183070866145
21
-3.0753020472440946
0
LINE
8
B.Mask
6
CONTINUOUS
10
6.0843183070866145
20
-3.0753020472440946
11
6.0908785433070864
21
-3.0753020472440946
0
LINE
8
B.Mask
6
CONTINUOUS
10
6.0908785433070864
20
-3.0753020472440946
11
6.0973126771653545
21
-3.0765818897637796
0
LINE
8
B.Mask
6
CONTINUOUS
10
5.1857730708661416
20
-2.9782354724409448
11
5.1918338976377951
21
-2.9807459448818898
0
LINE
8
B.Mask
6
CONTINUOUS
10
5.1918338976377951
20
-2.9807459448818898
11
5.197288503937008
21
-2.9843905905511812
0
LINE
8
B.Mask
6
CONTINUOUS
10
5.197288503937008
20
-2.9843905905511812
11
5.2019272834645669
21
-2.98902937007874
0
LINE
8
B.Mask
6
CONTINUOUS
10
5.2019272834645669
20
-2.98902937007874
11
5.2055719291338578
21
-2.9944839763779525
0
LINE
8
B.Mask
6
CONTINUOUS
10
5.2055719291338578
20
-2.9944839763779525
11
5.2080824015748028
21
-3.000544803149606
0
LINE
8
B.Mask
6
CONTINUOUS
10
5.2080824015748028
20
-3.000544803149606
11
5.2093622440944882
21
-3.0069789370078741
0
LINE
8
B.Mask
6
CONTINUOUS
10
5.2093622440944882
20
-3.0069789370078741
11
5.2093622440944882
21
-3.0135391732283465
0
LINE
8
B.Mask
6
CONTINUOUS
10
5.2093622440944882
20
-3.0135391732283465
11
5.2080824015748028
21
-3.0199733070866142
0
LINE
8
B.Mask
6
CONTINUOUS
10
5.2080824015748028
20
-3.0199733070866142
11
5.2055719291338578
21
-3.0260341338582677
0
LINE
8
B.Mask
6
CONTINUOUS
10
5.2055719291338578
20
-3.0260341338582677
11
5.2019272834645669
21
-3.0314887401574802
0
LINE
8
B.Mask
6
CONTINUOUS
10
5.2019272834645669
20
-3.0314887401574802
11
5.197288503937008
21
-3.0361275196850395
0
LINE
8
B.Mask
6
CONTINUOUS
10
5.197288503937008
20
-3.0361275196850395
11
5.1918338976377951
21
-3.0397721653543308
0
LINE
8
B.Mask
6
CONTINUOUS
10
5.1918338976377951
20
-3.0397721653543308
11
5.1857730708661416
21
-3.0422826377952754
0
LINE
8
B.Mask
6
CONTINUOUS
10
5.1857730708661416
20
-3.0422826377952754
11
5.1793389370078735
21
-3.0435624803149604
0
LINE
8
B.Mask
6
CONTINUOUS
10
5.1793389370078735
20
-3.0435624803149604
11
5.1727787007874015
21
-3.0435624803149604
0
LINE
8
B.Mask
6
CONTINUOUS
10
5.1727787007874015
20
-3.0435624803149604
11
5.1663445669291335
21
-3.0422826377952754
0
LINE
8
B.Mask
6
CONTINUOUS
10
5.1663445669291335
20
-3.0422826377952754
11
5.1602837401574799
21
-3.0397721653543308
0
LINE
8
B.Mask
6
CONTINUOUS
10
5.1602837401574799
20
-3.0397721653543308
11
5.1548291338582679
21
-3.0361275196850395
0
LINE
8
B.Mask
6
CONTINUOUS
10
5.1548291338582679
20
-3.0361275196850395
11
5.1501903543307082
21
-3.0314887401574802
0
LINE
8
B.Mask
6
CONTINUOUS
10
5.1501903543307082
20
-3.0314887401574802
11
5.1465457086614173
21
-3.0260341338582677
0
LINE
8
B.Mask
6
CONTINUOUS
10
5.1465457086614173
20
-3.0260341338582677
11
5.1440352362204722
21
-3.0199733070866142
0
LINE
8
B.Mask
6
CONTINUOUS
10
5.1440352362204722
20
-3.0199733070866142
11
5.1427553937007877
21
-3.0135391732283465
0
LINE
8
B.Mask
6
CONTINUOUS
10
5.1427553937007877
20
-3.0135391732283465
11
5.1427553937007877
21
-3.0069789370078741
0
LINE
8
B.Mask
6
CONTINUOUS
10
5.1427553937007877
20
-3.0069789370078741
11
5.1440352362204722
21
-3.000544803149606
0
LINE
8
B.Mask
6
CONTINUOUS
10
5.1440352362204722
20
-3.000544803149606
11
5.1465457086614173
21
-2.9944839763779525
0
LINE
8
B.Mask
6
CONTINUOUS
10
5.1465457086614173
20
-2.9944839763779525
11
5.1501903543307082
21
-2.98902937007874
0
LINE
8
B.Mask
6
CONTINUOUS
10
5.1501903543307082
20
-2.98902937007874
11
5.1548291338582679
21
-2.9843905905511812
0
LINE
8
B.Mask
6
CONTINUOUS
10
5.1548291338582679
20
-2.9843905905511812
11
5.1602837401574799
21
-2.9807459448818898
0
LINE
8
B.Mask
6
CONTINUOUS
10
5.1602837401574799
20
-2.9807459448818898
11
5.1663445669291335
21
-2.9782354724409448
0
LINE
8
B.Mask
6
CONTINUOUS
10
5.1663445669291335
20
-2.9782354724409448
11
5.1727787007874015
21
-2.9769556299212598
0
LINE
8
B.Mask
6
CONTINUOUS
10
5.1727787007874015
20
-2.9769556299212598
11
5.1793389370078735
21
-2.9769556299212598
0
LINE
8
B.Mask
6
CONTINUOUS
10
5.1793389370078735
20
-2.9769556299212598
11
5.1857730708661416
21
-2.9782354724409448
0
LINE
8
B.Mask
6
CONTINUOUS
10
6.0973126771653545
20
-2.9765818897637795
11
6.1033735039370081
21
-2.9790923622047245
0
LINE
8
B.Mask
6
CONTINUOUS
10
6.1033735039370081
20
-2.9790923622047245
11
6.1088281102362201
21
-2.9827370078740159
0
LINE
8
B.Mask
6
CONTINUOUS
10
6.1088281102362201
20
-2.9827370078740159
11
6.1134668897637798
21
-2.9873757874015747
0
LINE
8
B.Mask
6
CONTINUOUS
10
6.1134668897637798
20
-2.9873757874015747
11
6.1171115354330707
21
-2.9928303937007872
0
LINE
8
B.Mask
6
CONTINUOUS
10
6.1171115354330707
20
-2.9928303937007872
11
6.1196220078740158
21
-2.9988912204724407
0
LINE
8
B.Mask
6
CONTINUOUS
10
6.1196220078740158
20
-2.9988912204724407
11
6.1209018503937003
21
-3.0053253543307088
0
LINE
8
B.Mask
6
CONTINUOUS
10
6.1209018503937003
20
-3.0053253543307088
11
6.1209018503937003
21
-3.0118855905511812
0
LINE
8
B.Mask
6
CONTINUOUS
10
6.1209018503937003
20
-3.0118855905511812
11
6.1196220078740158
21
-3.0183197244094488
0
LINE
8
B.Mask
6
CONTINUOUS
10
6.1196220078740158
20
-3.0183197244094488
11
6.1171115354330707
21
-3.0243805511811024
0
LINE
8
B.Mask
6
CONTINUOUS
10
6.1171115354330707
20
-3.0243805511811024
11
6.1134668897637798
21
-3.0298351574803148
0
LINE
8
B.Mask
6
CONTINUOUS
10
6.1134668897637798
20
-3.0298351574803148
11
6.1088281102362201
21
-3.0344739370078742
0
LINE
8
B.Mask
6
CONTINUOUS
10
6.1088281102362201
20
-3.0344739370078742
11
6.1033735039370081
21
-3.0381185826771655
0
LINE
8
B.Mask
6
CONTINUOUS
10
6.1033735039370081
20
-3.0381185826771655
11
6.0973126771653545
21
-3.0406290551181101
0
LINE
8
B.Mask
6
CONTINUOUS
10
6.0973126771653545
20
-3.0406290551181101
11
6.0908785433070864
21
-3.041908897637795
0
LINE
8
B.Mask
6
CONTINUOUS
10
6.0908785433070864
20
-3.041908897637795
11
6.0843183070866145
21
-3.041908897637795
0
LINE
8
B.Mask
6
CONTINUOUS
10
6.0843183070866145
20
-3.041908897637795
11
6.0778841732283464
21
-3.0406290551181101
0
LINE
8
B.Mask
6
CONTINUOUS
10
6.0778841732283464
20
-3.0406290551181101
11
6.0718233464566929
21
-3.0381185826771655
0
LINE
8
B.Mask
6
CONTINUOUS
10
6.0718233464566929
20
-3.0381185826771655
11
6.06636874015748
21
-3.0344739370078742
0
LINE
8
B.Mask
6
CONTINUOUS
10
6.06636874015748
20
-3.0344739370078742
11
6.0617299606299211
21
-3.0298351574803148
0
LINE
8
B.Mask
6
CONTINUOUS
10
6.0617299606299211
20
-3.0298351574803148
11
6.0580853149606302
21
-3.0243805511811024
0
LINE
8
B.Mask
6
CONTINUOUS
10
6.0580853149606302
20
-3.0243805511811024
11
6.0555748425196851
21
-3.0183197244094488
0
LINE
8
B.Mask
6
CONTINUOUS
10
6.0555748425196851
20
-3.0183197244094488
11
6.0542949999999998
21
-3.0118855905511812
0
LINE
8
B.Mask
6
CONTINUOUS
10
6.0542949999999998
20
-3.0118855905511812
11
6.0542949999999998
21
-3.0053253543307088
0
LINE
8
B.Mask
6
CONTINUOUS
10
6.0542949999999998
20
-3.0053253543307088
11
6.0555748425196851
21
-2.9988912204724407
0
LINE
8
B.Mask
6
CONTINUOUS
10
6.0555748425196851
20
-2.9988912204724407
11
6.0580853149606302
21
-2.9928303937007872
0
LINE
8
B.Mask
6
CONTINUOUS
10
6.0580853149606302
20
-2.9928303937007872
11
6.0617299606299211
21
-2.9873757874015747
0
LINE
8
B.Mask
6
CONTINUOUS
10
6.0617299606299211
20
-2.9873757874015747
11
6.06636874015748
21
-2.9827370078740159
0
LINE
8
B.Mask
6
CONTINUOUS
10
6.06636874015748
20
-2.9827370078740159
11
6.0718233464566929
21
-2.9790923622047245
0
LINE
8
B.Mask
6
CONTINUOUS
10
6.0718233464566929
20
-2.9790923622047245
11
6.0778841732283464
21
-2.9765818897637795
0
LINE
8
B.Mask
6
CONTINUOUS
10
6.0778841732283464
20
-2.9765818897637795
11
6.0843183070866145
21
-2.9753020472440945
0
LINE
8
B.Mask
6
CONTINUOUS
10
6.0843183070866145
20
-2.9753020472440945
11
6.0908785433070864
21
-2.9753020472440945
0
LINE
8
B.Mask
6
CONTINUOUS
10
6.0908785433070864
20
-2.9753020472440945
11
6.0973126771653545
21
-2.9765818897637795
0
LINE
8
B.Mask
6
CONTINUOUS
10
5.1857730708661416
20
-2.8782354724409447
11
5.1918338976377951
21
-2.8807459448818897
0
LINE
8
B.Mask
6
CONTINUOUS
10
5.1918338976377951
20
-2.8807459448818897
11
5.197288503937008
21
-2.8843905905511811
0
LINE
8
B.Mask
6
CONTINUOUS
10
5.197288503937008
20
-2.8843905905511811
11
5.2019272834645669
21
-2.8890293700787399
0
LINE
8
B.Mask
6
CONTINUOUS
10
5.2019272834645669
20
-2.8890293700787399
11
5.2055719291338578
21
-2.8944839763779528
0
LINE
8
B.Mask
6
CONTINUOUS
10
5.2055719291338578
20
-2.8944839763779528
11
5.2080824015748028
21
-2.9005448031496064
0
LINE
8
B.Mask
6
CONTINUOUS
10
5.2080824015748028
20
-2.9005448031496064
11
5.2093622440944882
21
-2.906978937007874
0
LINE
8
B.Mask
6
CONTINUOUS
10
5.2093622440944882
20
-2.906978937007874
11
5.2093622440944882
21
-2.9135391732283464
0
LINE
8
B.Mask
6
CONTINUOUS
10
5.2093622440944882
20
-2.9135391732283464
11
5.2080824015748028
21
-2.9199733070866141
0
LINE
8
B.Mask
6
CONTINUOUS
10
5.2080824015748028
20
-2.9199733070866141
11
5.2055719291338578
21
-2.9260341338582676
0
LINE
8
B.Mask
6
CONTINUOUS
10
5.2055719291338578
20
-2.9260341338582676
11
5.2019272834645669
21
-2.9314887401574801
0
LINE
8
B.Mask
6
CONTINUOUS
10
5.2019272834645669
20
-2.9314887401574801
11
5.197288503937008
21
-2.9361275196850394
0
LINE
8
B.Mask
6
CONTINUOUS
10
5.197288503937008
20
-2.9361275196850394
11
5.1918338976377951
21
-2.9397721653543307
0
LINE
8
B.Mask
6
CONTINUOUS
10
5.1918338976377951
20
-2.9397721653543307
11
5.1857730708661416
21
-2.9422826377952753
0
LINE
8
B.Mask
6
CONTINUOUS
10
5.1857730708661416
20
-2.9422826377952753
11
5.1793389370078735
21
-2.9435624803149607
0
LINE
8
B.Mask
6
CONTINUOUS
10
5.1793389370078735
20
-2.9435624803149607
11
5.1727787007874015
21
-2.9435624803149607
0
LINE
8
B.Mask
6
CONTINUOUS
10
5.1727787007874015
20
-2.9435624803149607
11
5.1663445669291335
21
-2.9422826377952753
0
LINE
8
B.Mask
6
CONTINUOUS
10
5.1663445669291335
20
-2.9422826377952753
11
5.1602837401574799
21
-2.9397721653543307
0
LINE
8
B.Mask
6
CONTINUOUS
10
5.1602837401574799
20
-2.9397721653543307
11
5.1548291338582679
21
-2.9361275196850394
0
LINE
8
B.Mask
6
CONTINUOUS
10
5.1548291338582679
20
-2.9361275196850394
11
5.1501903543307082
21
-2.9314887401574801
0
LINE
8
B.Mask
6
CONTINUOUS
10
5.1501903543307082
20
-2.9314887401574801
11
5.1465457086614173
21
-2.9260341338582676
0
LINE
8
B.Mask
6
CONTINUOUS
10
5.1465457086614173
20
-2.9260341338582676
11
5.1440352362204722
21
-2.9199733070866141
0
LINE
8
B.Mask
6
CONTINUOUS
10
5.1440352362204722
20
-2.9199733070866141
11
5.1427553937007877
21
-2.9135391732283464
0
LINE
8
B.Mask
6
CONTINUOUS
10
5.1427553937007877
20
-2.9135391732283464
11
5.1427553937007877
21
-2.906978937007874
0
LINE
8
B.Mask
6
CONTINUOUS
10
5.1427553937007877
20
-2.906978937007874
11
5.1440352362204722
21
-2.9005448031496064
0
LINE
8
B.Mask
6
CONTINUOUS
10
5.1440352362204722
20
-2.9005448031496064
11
5.1465457086614173
21
-2.8944839763779528
0
LINE
8
B.Mask
6
CONTINUOUS
10
5.1465457086614173
20
-2.8944839763779528
11
5.1501903543307082
21
-2.8890293700787399
0
LINE
8
B.Mask
6
CONTINUOUS
10
5.1501903543307082
20
-2.8890293700787399
11
5.1548291338582679
21
-2.8843905905511811
0
LINE
8
B.Mask
6
CONTINUOUS
10
5.1548291338582679
20
-2.8843905905511811
11
5.1602837401574799
21
-2.8807459448818897
0
LINE
8
B.Mask
6
CONTINUOUS
10
5.1602837401574799
20
-2.8807459448818897
11
5.1663445669291335
21
-2.8782354724409447
0
LINE
8
B.Mask
6
CONTINUOUS
10
5.1663445669291335
20
-2.8782354724409447
11
5.1727787007874015
21
-2.8769556299212597
0
LINE
8
B.Mask
6
CONTINUOUS
10
5.1727787007874015
20
-2.8769556299212597
11
5.1793389370078735
21
-2.8769556299212597
0
LINE
8
B.Mask
6
CONTINUOUS
10
5.1793389370078735
20
-2.8769556299212597
11
5.1857730708661416
21
-2.8782354724409447
0
LINE
8
B.Mask
6
CONTINUOUS
10
6.0973126771653545
20
-2.8765818897637794
11
6.1033735039370081
21
-2.8790923622047244
0
LINE
8
B.Mask
6
CONTINUOUS
10
6.1033735039370081
20
-2.8790923622047244
11
6.1088281102362201
21
-2.8827370078740158
0
LINE
8
B.Mask
6
CONTINUOUS
10
6.1088281102362201
20
-2.8827370078740158
11
6.1134668897637798
21
-2.8873757874015746
0
LINE
8
B.Mask
6
CONTINUOUS
10
6.1134668897637798
20
-2.8873757874015746
11
6.1171115354330707
21
-2.8928303937007875
0
LINE
8
B.Mask
6
CONTINUOUS
10
6.1171115354330707
20
-2.8928303937007875
11
6.1196220078740158
21
-2.8988912204724411
0
LINE
8
B.Mask
6
CONTINUOUS
10
6.1196220078740158
20
-2.8988912204724411
11
6.1209018503937003
21
-2.9053253543307087
0
LINE
8
B.Mask
6
CONTINUOUS
10
6.1209018503937003
20
-2.9053253543307087
11
6.1209018503937003
21
-2.9118855905511811
0
LINE
8
B.Mask
6
CONTINUOUS
10
6.1209018503937003
20
-2.9118855905511811
11
6.1196220078740158
21
-2.9183197244094488
0
LINE
8
B.Mask
6
CONTINUOUS
10
6.1196220078740158
20
-2.9183197244094488
11
6.1171115354330707
21
-2.9243805511811023
0
LINE
8
B.Mask
6
CONTINUOUS
10
6.1171115354330707
20
-2.9243805511811023
11
6.1134668897637798
21
-2.9298351574803148
0
LINE
8
B.Mask
6
CONTINUOUS
10
6.1134668897637798
20
-2.9298351574803148
11
6.1088281102362201
21
-2.9344739370078741
0
LINE
8
B.Mask
6
CONTINUOUS
10
6.1088281102362201
20
-2.9344739370078741
11
6.1033735039370081
21
-2.9381185826771654
0
LINE
8
B.Mask
6
CONTINUOUS
10
6.1033735039370081
20
-2.9381185826771654
11
6.0973126771653545
21
-2.94062905511811
0
LINE
8
B.Mask
6
CONTINUOUS
10
6.0973126771653545
20
-2.94062905511811
11
6.0908785433070864
21
-2.9419088976377954
0
LINE
8
B.Mask
6
CONTINUOUS
10
6.0908785433070864
20
-2.9419088976377954
11
6.0843183070866145
21
-2.9419088976377954
0
LINE
8
B.Mask
6
CONTINUOUS
10
6.0843183070866145
20
-2.9419088976377954
11
6.0778841732283464
21
-2.94062905511811
0
LINE
8
B.Mask
6
CONTINUOUS
10
6.0778841732283464
20
-2.94062905511811
11
6.0718233464566929
21
-2.9381185826771654
0
LINE
8
B.Mask
6
CONTINUOUS
10
6.0718233464566929
20
-2.9381185826771654
11
6.06636874015748
21
-2.9344739370078741
0
LINE
8
B.Mask
6
CONTINUOUS
10
6.06636874015748
20
-2.9344739370078741
11
6.0617299606299211
21
-2.9298351574803148
0
LINE
8
B.Mask
6
CONTINUOUS
10
6.0617299606299211
20
-2.9298351574803148
11
6.0580853149606302
21
-2.9243805511811023
0
LINE
8
B.Mask
6
CONTINUOUS
10
6.0580853149606302
20
-2.9243805511811023
11
6.0555748425196851
21
-2.9183197244094488
0
LINE
8
B.Mask
6
CONTINUOUS
10
6.0555748425196851
20
-2.9183197244094488
11
6.0542949999999998
21
-2.9118855905511811
0
LINE
8
B.Mask
6
CONTINUOUS
10
6.0542949999999998
20
-2.9118855905511811
11
6.0542949999999998
21
-2.9053253543307087
0
LINE
8
B.Mask
6
CONTINUOUS
10
6.0542949999999998
20
-2.9053253543307087
11
6.0555748425196851
21
-2.8988912204724411
0
LINE
8
B.Mask
6
CONTINUOUS
10
6.0555748425196851
20
-2.8988912204724411
11
6.0580853149606302
21
-2.8928303937007875
0
LINE
8
B.Mask
6
CONTINUOUS
10
6.0580853149606302
20
-2.8928303937007875
11
6.0617299606299211
21
-2.8873757874015746
0
LINE
8
B.Mask
6
CONTINUOUS
10
6.0617299606299211
20
-2.8873757874015746
11
6.06636874015748
21
-2.8827370078740158
0
LINE
8
B.Mask
6
CONTINUOUS
10
6.06636874015748
20
-2.8827370078740158
11
6.0718233464566929
21
-2.8790923622047244
0
LINE
8
B.Mask
6
CONTINUOUS
10
6.0718233464566929
20
-2.8790923622047244
11
6.0778841732283464
21
-2.8765818897637794
0
LINE
8
B.Mask
6
CONTINUOUS
10
6.0778841732283464
20
-2.8765818897637794
11
6.0843183070866145
21
-2.8753020472440944
0
LINE
8
B.Mask
6
CONTINUOUS
10
6.0843183070866145
20
-2.8753020472440944
11
6.0908785433070864
21
-2.8753020472440944
0
LINE
8
B.Mask
6
CONTINUOUS
10
6.0908785433070864
20
-2.8753020472440944
11
6.0973126771653545
21
-2.8765818897637794
0
LINE
8
B.Mask
6
CONTINUOUS
10
5.2095233858267713
20
-2.8437236220472442
11
5.1425942519685037
21
-2.8437236220472442
0
LINE
8
B.Mask
6
CONTINUOUS
10
5.1425942519685037
20
-2.8437236220472442
11
5.1425942519685037
21
-2.7767944881889761
0
LINE
8
B.Mask
6
CONTINUOUS
10
5.1425942519685037
20
-2.7767944881889761
11
5.2095233858267713
21
-2.7767944881889761
0
LINE
8
B.Mask
6
CONTINUOUS
10
5.2095233858267713
20
-2.7767944881889761
11
5.2095233858267713
21
-2.8437236220472442
0
LINE
8
B.Mask
6
CONTINUOUS
10
6.0973126771653545
20
-2.7765818897637793
11
6.1033735039370081
21
-2.7790923622047243
0
LINE
8
B.Mask
6
CONTINUOUS
10
6.1033735039370081
20
-2.7790923622047243
11
6.1088281102362201
21
-2.7827370078740157
0
LINE
8
B.Mask
6
CONTINUOUS
10
6.1088281102362201
20
-2.7827370078740157
11
6.1134668897637798
21
-2.7873757874015745
0
LINE
8
B.Mask
6
CONTINUOUS
10
6.1134668897637798
20
-2.7873757874015745
11
6.1171115354330707
21
-2.7928303937007875
0
LINE
8
B.Mask
6
CONTINUOUS
10
6.1171115354330707
20
-2.7928303937007875
11
6.1196220078740158
21
-2.798891220472441
0
LINE
8
B.Mask
6
CONTINUOUS
10
6.1196220078740158
20
-2.798891220472441
11
6.1209018503937003
21
-2.8053253543307086
0
LINE
8
B.Mask
6
CONTINUOUS
10
6.1209018503937003
20
-2.8053253543307086
11
6.1209018503937003
21
-2.811885590551181
0
LINE
8
B.Mask
6
CONTINUOUS
10
6.1209018503937003
20
-2.811885590551181
11
6.1196220078740158
21
-2.8183197244094487
0
LINE
8
B.Mask
6
CONTINUOUS
10
6.1196220078740158
20
-2.8183197244094487
11
6.1171115354330707
21
-2.8243805511811022
0
LINE
8
B.Mask
6
CONTINUOUS
10
6.1171115354330707
20
-2.8243805511811022
11
6.1134668897637798
21
-2.8298351574803151
0
LINE
8
B.Mask
6
CONTINUOUS
10
6.1134668897637798
20
-2.8298351574803151
11
6.1088281102362201
21
-2.834473937007874
0
LINE
8
B.Mask
6
CONTINUOUS
10
6.1088281102362201
20
-2.834473937007874
11
6.1033735039370081
21
-2.8381185826771653
0
LINE
8
B.Mask
6
CONTINUOUS
10
6.1033735039370081
20
-2.8381185826771653
11
6.0973126771653545
21
-2.8406290551181104
0
LINE
8
B.Mask
6
CONTINUOUS
10
6.0973126771653545
20
-2.8406290551181104
11
6.0908785433070864
21
-2.8419088976377953
0
LINE
8
B.Mask
6
CONTINUOUS
10
6.0908785433070864
20
-2.8419088976377953
11
6.0843183070866145
21
-2.8419088976377953
0
LINE
8
B.Mask
6
CONTINUOUS
10
6.0843183070866145
20
-2.8419088976377953
11
6.0778841732283464
21
-2.8406290551181104
0
LINE
8
B.Mask
6
CONTINUOUS
10
6.0778841732283464
20
-2.8406290551181104
11
6.0718233464566929
21
-2.8381185826771653
0
LINE
8
B.Mask
6
CONTINUOUS
10
6.0718233464566929
20
-2.8381185826771653
11
6.06636874015748
21
-2.834473937007874
0
LINE
8
B.Mask
6
CONTINUOUS
10
6.06636874015748
20
-2.834473937007874
11
6.0617299606299211
21
-2.8298351574803151
0
LINE
8
B.Mask
6
CONTINUOUS
10
6.0617299606299211
20
-2.8298351574803151
11
6.0580853149606302
21
-2.8243805511811022
0
LINE
8
B.Mask
6
CONTINUOUS
10
6.0580853149606302
20
-2.8243805511811022
11
6.0555748425196851
21
-2.8183197244094487
0
LINE
8
B.Mask
6
CONTINUOUS
10
6.0555748425196851
20
-2.8183197244094487
11
6.0542949999999998
21
-2.811885590551181
0
LINE
8
B.Mask
6
CONTINUOUS
10
6.0542949999999998
20
-2.811885590551181
11
6.0542949999999998
21
-2.8053253543307086
0
LINE
8
B.Mask
6
CONTINUOUS
10
6.0542949999999998
20
-2.8053253543307086
11
6.0555748425196851
21
-2.798891220472441
0
LINE
8
B.Mask
6
CONTINUOUS
10
6.0555748425196851
20
-2.798891220472441
11
6.0580853149606302
21
-2.7928303937007875
0
LINE
8
B.Mask
6
CONTINUOUS
10
6.0580853149606302
20
-2.7928303937007875
11
6.0617299606299211
21
-2.7873757874015745
0
LINE
8
B.Mask
6
CONTINUOUS
10
6.0617299606299211
20
-2.7873757874015745
11
6.06636874015748
21
-2.7827370078740157
0
LINE
8
B.Mask
6
CONTINUOUS
10
6.06636874015748
20
-2.7827370078740157
11
6.0718233464566929
21
-2.7790923622047243
0
LINE
8
B.Mask
6
CONTINUOUS
10
6.0718233464566929
20
-2.7790923622047243
11
6.0778841732283464
21
-2.7765818897637793
0
LINE
8
B.Mask
6
CONTINUOUS
10
6.0778841732283464
20
-2.7765818897637793
11
6.0843183070866145
21
-2.7753020472440944
0
LINE
8
B.Mask
6
CONTINUOUS
10
6.0843183070866145
20
-2.7753020472440944
11
6.0908785433070864
21
-2.7753020472440944
0
LINE
8
B.Mask
6
CONTINUOUS
10
6.0908785433070864
20
-2.7753020472440944
11
6.0973126771653545
21
-2.7765818897637793
0
LINE
8
B.Mask
6
CONTINUOUS
10
5.1857730708661416
20
-2.678235472440945
11
5.1918338976377951
21
-2.6807459448818896
0
LINE
8
B.Mask
6
CONTINUOUS
10
5.1918338976377951
20
-2.6807459448818896
11
5.197288503937008
21
-2.6843905905511809
0
LINE
8
B.Mask
6
CONTINUOUS
10
5.197288503937008
20
-2.6843905905511809
11
5.2019272834645669
21
-2.6890293700787402
0
LINE
8
B.Mask
6
CONTINUOUS
10
5.2019272834645669
20
-2.6890293700787402
11
5.2055719291338578
21
-2.6944839763779527
0
LINE
8
B.Mask
6
CONTINUOUS
10
5.2055719291338578
20
-2.6944839763779527
11
5.2080824015748028
21
-2.7005448031496062
0
LINE
8
B.Mask
6
CONTINUOUS
10
5.2080824015748028
20
-2.7005448031496062
11
5.2093622440944882
21
-2.7069789370078738
0
LINE
8
B.Mask
6
CONTINUOUS
10
5.2093622440944882
20
-2.7069789370078738
11
5.2093622440944882
21
-2.7135391732283463
0
LINE
8
B.Mask
6
CONTINUOUS
10
5.2093622440944882
20
-2.7135391732283463
11
5.2080824015748028
21
-2.7199733070866139
0
LINE
8
B.Mask
6
CONTINUOUS
10
5.2080824015748028
20
-2.7199733070866139
11
5.2055719291338578
21
-2.7260341338582679
0
LINE
8
B.Mask
6
CONTINUOUS
10
5.2055719291338578
20
-2.7260341338582679
11
5.2019272834645669
21
-2.7314887401574803
0
LINE
8
B.Mask
6
CONTINUOUS
10
5.2019272834645669
20
-2.7314887401574803
11
5.197288503937008
21
-2.7361275196850392
0
LINE
8
B.Mask
6
CONTINUOUS
10
5.197288503937008
20
-2.7361275196850392
11
5.1918338976377951
21
-2.7397721653543305
0
LINE
8
B.Mask
6
CONTINUOUS
10
5.1918338976377951
20
-2.7397721653543305
11
5.1857730708661416
21
-2.7422826377952756
0
LINE
8
B.Mask
6
CONTINUOUS
10
5.1857730708661416
20
-2.7422826377952756
11
5.1793389370078735
21
-2.7435624803149605
0
LINE
8
B.Mask
6
CONTINUOUS
10
5.1793389370078735
20
-2.7435624803149605
11
5.1727787007874015
21
-2.7435624803149605
0
LINE
8
B.Mask
6
CONTINUOUS
10
5.1727787007874015
20
-2.7435624803149605
11
5.1663445669291335
21
-2.7422826377952756
0
LINE
8
B.Mask
6
CONTINUOUS
10
5.1663445669291335
20
-2.7422826377952756
11
5.1602837401574799
21
-2.7397721653543305
0
LINE
8
B.Mask
6
CONTINUOUS
10
5.1602837401574799
20
-2.7397721653543305
11
5.1548291338582679
21
-2.7361275196850392
0
LINE
8
B.Mask
6
CONTINUOUS
10
5.1548291338582679
20
-2.7361275196850392
11
5.1501903543307082
21
-2.7314887401574803
0
LINE
8
B.Mask
6
CONTINUOUS
10
5.1501903543307082
20
-2.7314887401574803
11
5.1465457086614173
21
-2.7260341338582679
0
LINE
8
B.Mask
6
CONTINUOUS
10
5.1465457086614173
20
-2.7260341338582679
11
5.1440352362204722
21
-2.7199733070866139
0
LINE
8
B.Mask
6
CONTINUOUS
10
5.1440352362204722
20
-2.7199733070866139
11
5.1427553937007877
21
-2.7135391732283463
0
LINE
8
B.Mask
6
CONTINUOUS
10
5.1427553937007877
20
-2.7135391732283463
11
5.1427553937007877
21
-2.7069789370078738
0
LINE
8
B.Mask
6
CONTINUOUS
10
5.1427553937007877
20
-2.7069789370078738
11
5.1440352362204722
21
-2.7005448031496062
0
LINE
8
B.Mask
6
CONTINUOUS
10
5.1440352362204722
20
-2.7005448031496062
11
5.1465457086614173
21
-2.6944839763779527
0
LINE
8
B.Mask
6
CONTINUOUS
10
5.1465457086614173
20
-2.6944839763779527
11
5.1501903543307082
21
-2.6890293700787402
0
LINE
8
B.Mask
6
CONTINUOUS
10
5.1501903543307082
20
-2.6890293700787402
11
5.1548291338582679
21
-2.6843905905511809
0
LINE
8
B.Mask
6
CONTINUOUS
10
5.1548291338582679
20
-2.6843905905511809
11
5.1602837401574799
21
-2.6807459448818896
0
LINE
8
B.Mask
6
CONTINUOUS
10
5.1602837401574799
20
-2.6807459448818896
11
5.1663445669291335
21
-2.678235472440945
0
LINE
8
B.Mask
6
CONTINUOUS
10
5.1663445669291335
20
-2.678235472440945
11
5.1727787007874015
21
-2.6769556299212596
0
LINE
8
B.Mask
6
CONTINUOUS
10
5.1727787007874015
20
-2.6769556299212596
11
5.1793389370078735
21
-2.6769556299212596
0
LINE
8
B.Mask
6
CONTINUOUS
10
5.1793389370078735
20
-2.6769556299212596
11
5.1857730708661416
21
-2.678235472440945
0
LINE
8
B.Mask
6
CONTINUOUS
10
6.0973126771653545
20
-2.6765818897637796
11
6.1033735039370081
21
-2.6790923622047242
0
LINE
8
B.Mask
6
CONTINUOUS
10
6.1033735039370081
20
-2.6790923622047242
11
6.1088281102362201
21
-2.6827370078740156
0
LINE
8
B.Mask
6
CONTINUOUS
10
6.1088281102362201
20
-2.6827370078740156
11
6.1134668897637798
21
-2.6873757874015749
0
LINE
8
B.Mask
6
CONTINUOUS
10
6.1134668897637798
20
-2.6873757874015749
11
6.1171115354330707
21
-2.6928303937007874
0
LINE
8
B.Mask
6
CONTINUOUS
10
6.1171115354330707
20
-2.6928303937007874
11
6.1196220078740158
21
-2.6988912204724409
0
LINE
8
B.Mask
6
CONTINUOUS
10
6.1196220078740158
20
-2.6988912204724409
11
6.1209018503937003
21
-2.7053253543307085
0
LINE
8
B.Mask
6
CONTINUOUS
10
6.1209018503937003
20
-2.7053253543307085
11
6.1209018503937003
21
-2.7118855905511809
0
LINE
8
B.Mask
6
CONTINUOUS
10
6.1209018503937003
20
-2.7118855905511809
11
6.1196220078740158
21
-2.7183197244094486
0
LINE
8
B.Mask
6
CONTINUOUS
10
6.1196220078740158
20
-2.7183197244094486
11
6.1171115354330707
21
-2.7243805511811021
0
LINE
8
B.Mask
6
CONTINUOUS
10
6.1171115354330707
20
-2.7243805511811021
11
6.1134668897637798
21
-2.729835157480315
0
LINE
8
B.Mask
6
CONTINUOUS
10
6.1134668897637798
20
-2.729835157480315
11
6.1088281102362201
21
-2.7344739370078739
0
LINE
8
B.Mask
6
CONTINUOUS
10
6.1088281102362201
20
-2.7344739370078739
11
6.1033735039370081
21
-2.7381185826771652
0
LINE
8
B.Mask
6
CONTINUOUS
10
6.1033735039370081
20
-2.7381185826771652
11
6.0973126771653545
21
-2.7406290551181103
0
LINE
8
B.Mask
6
CONTINUOUS
10
6.0973126771653545
20
-2.7406290551181103
11
6.0908785433070864
21
-2.7419088976377952
0
LINE
8
B.Mask
6
CONTINUOUS
10
6.0908785433070864
20
-2.7419088976377952
11
6.0843183070866145
21
-2.7419088976377952
0
LINE
8
B.Mask
6
CONTINUOUS
10
6.0843183070866145
20
-2.7419088976377952
11
6.0778841732283464
21
-2.7406290551181103
0
LINE
8
B.Mask
6
CONTINUOUS
10
6.0778841732283464
20
-2.7406290551181103
11
6.0718233464566929
21
-2.7381185826771652
0
LINE
8
B.Mask
6
CONTINUOUS
10
6.0718233464566929
20
-2.7381185826771652
11
6.06636874015748
21
-2.7344739370078739
0
LINE
8
B.Mask
6
CONTINUOUS
10
6.06636874015748
20
-2.7344739370078739
11
6.0617299606299211
21
-2.729835157480315
0
LINE
8
B.Mask
6
CONTINUOUS
10
6.0617299606299211
20
-2.729835157480315
11
6.0580853149606302
21
-2.7243805511811021
0
LINE
8
B.Mask
6
CONTINUOUS
10
6.0580853149606302
20
-2.7243805511811021
11
6.0555748425196851
21
-2.7183197244094486
0
LINE
8
B.Mask
6
CONTINUOUS
10
6.0555748425196851
20
-2.7183197244094486
11
6.0542949999999998
21
-2.7118855905511809
0
LINE
8
B.Mask
6
CONTINUOUS
10
6.0542949999999998
20
-2.7118855905511809
11
6.0542949999999998
21
-2.7053253543307085
0
LINE
8
B.Mask
6
CONTINUOUS
10
6.0542949999999998
20
-2.7053253543307085
11
6.0555748425196851
21
-2.6988912204724409
0
LINE
8
B.Mask
6
CONTINUOUS
10
6.0555748425196851
20
-2.6988912204724409
11
6.0580853149606302
21
-2.6928303937007874
0
LINE
8
B.Mask
6
CONTINUOUS
10
6.0580853149606302
20
-2.6928303937007874
11
6.0617299606299211
21
-2.6873757874015749
0
LINE
8
B.Mask
6
CONTINUOUS
10
6.0617299606299211
20
-2.6873757874015749
11
6.06636874015748
21
-2.6827370078740156
0
LINE
8
B.Mask
6
CONTINUOUS
10
6.06636874015748
20
-2.6827370078740156
11
6.0718233464566929
21
-2.6790923622047242
0
LINE
8
B.Mask
6
CONTINUOUS
10
6.0718233464566929
20
-2.6790923622047242
11
6.0778841732283464
21
-2.6765818897637796
0
LINE
8
B.Mask
6
CONTINUOUS
10
6.0778841732283464
20
-2.6765818897637796
11
6.0843183070866145
21
-2.6753020472440943
0
LINE
8
B.Mask
6
CONTINUOUS
10
6.0843183070866145
20
-2.6753020472440943
11
6.0908785433070864
21
-2.6753020472440943
0
LINE
8
B.Mask
6
CONTINUOUS
10
6.0908785433070864
20
-2.6753020472440943
11
6.0973126771653545
21
-2.6765818897637796
0
LINE
8
B.Mask
6
CONTINUOUS
10
5.1857730708661416
20
-2.5782354724409449
11
5.1918338976377951
21
-2.5807459448818899
0
LINE
8
B.Mask
6
CONTINUOUS
10
5.1918338976377951
20
-2.5807459448818899
11
5.197288503937008
21
-2.5843905905511813
0
LINE
8
B.Mask
6
CONTINUOUS
10
5.197288503937008
20
-2.5843905905511813
11
5.2019272834645669
21
-2.5890293700787401
0
LINE
8
B.Mask
6
CONTINUOUS
10
5.2019272834645669
20
-2.5890293700787401
11
5.2055719291338578
21
-2.5944839763779526
0
LINE
8
B.Mask
6
CONTINUOUS
10
5.2055719291338578
20
-2.5944839763779526
11
5.2080824015748028
21
-2.6005448031496061
0
LINE
8
B.Mask
6
CONTINUOUS
10
5.2080824015748028
20
-2.6005448031496061
11
5.2093622440944882
21
-2.6069789370078738
0
LINE
8
B.Mask
6
CONTINUOUS
10
5.2093622440944882
20
-2.6069789370078738
11
5.2093622440944882
21
-2.6135391732283466
0
LINE
8
B.Mask
6
CONTINUOUS
10
5.2093622440944882
20
-2.6135391732283466
11
5.2080824015748028
21
-2.6199733070866142
0
LINE
8
B.Mask
6
CONTINUOUS
10
5.2080824015748028
20
-2.6199733070866142
11
5.2055719291338578
21
-2.6260341338582678
0
LINE
8
B.Mask
6
CONTINUOUS
10
5.2055719291338578
20
-2.6260341338582678
11
5.2019272834645669
21
-2.6314887401574802
0
LINE
8
B.Mask
6
CONTINUOUS
10
5.2019272834645669
20
-2.6314887401574802
11
5.197288503937008
21
-2.6361275196850391
0
LINE
8
B.Mask
6
CONTINUOUS
10
5.197288503937008
20
-2.6361275196850391
11
5.1918338976377951
21
-2.6397721653543305
0
LINE
8
B.Mask
6
CONTINUOUS
10
5.1918338976377951
20
-2.6397721653543305
11
5.1857730708661416
21
-2.6422826377952755
0
LINE
8
B.Mask
6
CONTINUOUS
10
5.1857730708661416
20
-2.6422826377952755
11
5.1793389370078735
21
-2.6435624803149604
0
LINE
8
B.Mask
6
CONTINUOUS
10
5.1793389370078735
20
-2.6435624803149604
11
5.1727787007874015
21
-2.6435624803149604
0
LINE
8
B.Mask
6
CONTINUOUS
10
5.1727787007874015
20
-2.6435624803149604
11
5.1663445669291335
21
-2.6422826377952755
0
LINE
8
B.Mask
6
CONTINUOUS
10
5.1663445669291335
20
-2.6422826377952755
11
5.1602837401574799
21
-2.6397721653543305
0
LINE
8
B.Mask
6
CONTINUOUS
10
5.1602837401574799
20
-2.6397721653543305
11
5.1548291338582679
21
-2.6361275196850391
0
LINE
8
B.Mask
6
CONTINUOUS
10
5.1548291338582679
20
-2.6361275196850391
11
5.1501903543307082
21
-2.6314887401574802
0
LINE
8
B.Mask
6
CONTINUOUS
10
5.1501903543307082
20
-2.6314887401574802
11
5.1465457086614173
21
-2.6260341338582678
0
LINE
8
B.Mask
6
CONTINUOUS
10
5.1465457086614173
20
-2.6260341338582678
11
5.1440352362204722
21
-2.6199733070866142
0
LINE
8
B.Mask
6
CONTINUOUS
10
5.1440352362204722
20
-2.6199733070866142
11
5.1427553937007877
21
-2.6135391732283466
0
LINE
8
B.Mask
6
CONTINUOUS
10
5.1427553937007877
20
-2.6135391732283466
11
5.1427553937007877
21
-2.6069789370078738
0
LINE
8
B.Mask
6
CONTINUOUS
10
5.1427553937007877
20
-2.6069789370078738
11
5.1440352362204722
21
-2.6005448031496061
0
LINE
8
B.Mask
6
CONTINUOUS
10
5.1440352362204722
20
-2.6005448031496061
11
5.1465457086614173
21
-2.5944839763779526
0
LINE
8
B.Mask
6
CONTINUOUS
10
5.1465457086614173
20
-2.5944839763779526
11
5.1501903543307082
21
-2.5890293700787401
0
LINE
8
B.Mask
6
CONTINUOUS
10
5.1501903543307082
20
-2.5890293700787401
11
5.1548291338582679
21
-2.5843905905511813
0
LINE
8
B.Mask
6
CONTINUOUS
10
5.1548291338582679
20
-2.5843905905511813
11
5.1602837401574799
21
-2.5807459448818899
0
LINE
8
B.Mask
6
CONTINUOUS
10
5.1602837401574799
20
-2.5807459448818899
11
5.1663445669291335
21
-2.5782354724409449
0
LINE
8
B.Mask
6
CONTINUOUS
10
5.1663445669291335
20
-2.5782354724409449
11
5.1727787007874015
21
-2.5769556299212599
0
LINE
8
B.Mask
6
CONTINUOUS
10
5.1727787007874015
20
-2.5769556299212599
11
5.1793389370078735
21
-2.5769556299212599
0
LINE
8
B.Mask
6
CONTINUOUS
10
5.1793389370078735
20
-2.5769556299212599
11
5.1857730708661416
21
-2.5782354724409449
0
LINE
8
B.Mask
6
CONTINUOUS
10
6.1210629921259843
20
-2.6420700393700787
11
6.0541338582677167
21
-2.6420700393700787
0
LINE
8
B.Mask
6
CONTINUOUS
10
6.0541338582677167
20
-2.6420700393700787
11
6.0541338582677167
21
-2.5751409055118111
0
LINE
8
B.Mask
6
CONTINUOUS
10
6.0541338582677167
20
-2.5751409055118111
11
6.1210629921259843
21
-2.5751409055118111
0
LINE
8
B.Mask
6
CONTINUOUS
10
6.1210629921259843
20
-2.5751409055118111
11
6.1210629921259843
21
-2.6420700393700787
0
LINE
8
B.Mask
6
CONTINUOUS
10
5.1857730708661416
20
-2.4782354724409448
11
5.1918338976377951
21
-2.4807459448818898
0
LINE
8
B.Mask
6
CONTINUOUS
10
5.1918338976377951
20
-2.4807459448818898
11
5.197288503937008
21
-2.4843905905511812
0
LINE
8
B.Mask
6
CONTINUOUS
10
5.197288503937008
20
-2.4843905905511812
11
5.2019272834645669
21
-2.48902937007874
0
LINE
8
B.Mask
6
CONTINUOUS
10
5.2019272834645669
20
-2.48902937007874
11
5.2055719291338578
21
-2.4944839763779525
0
LINE
8
B.Mask
6
CONTINUOUS
10
5.2055719291338578
20
-2.4944839763779525
11
5.2080824015748028
21
-2.500544803149606
0
LINE
8
B.Mask
6
CONTINUOUS
10
5.2080824015748028
20
-2.500544803149606
11
5.2093622440944882
21
-2.5069789370078741
0
LINE
8
B.Mask
6
CONTINUOUS
10
5.2093622440944882
20
-2.5069789370078741
11
5.2093622440944882
21
-2.5135391732283465
0
LINE
8
B.Mask
6
CONTINUOUS
10
5.2093622440944882
20
-2.5135391732283465
11
5.2080824015748028
21
-2.5199733070866142
0
LINE
8
B.Mask
6
CONTINUOUS
10
5.2080824015748028
20
-2.5199733070866142
11
5.2055719291338578
21
-2.5260341338582677
0
LINE
8
B.Mask
6
CONTINUOUS
10
5.2055719291338578
20
-2.5260341338582677
11
5.2019272834645669
21
-2.5314887401574802
0
LINE
8
B.Mask
6
CONTINUOUS
10
5.2019272834645669
20
-2.5314887401574802
11
5.197288503937008
21
-2.5361275196850395
0
LINE
8
B.Mask
6
CONTINUOUS
10
5.197288503937008
20
-2.5361275196850395
11
5.1918338976377951
21
-2.5397721653543308
0
LINE
8
B.Mask
6
CONTINUOUS
10
5.1918338976377951
20
-2.5397721653543308
11
5.1857730708661416
21
-2.5422826377952754
0
LINE
8
B.Mask
6
CONTINUOUS
10
5.1857730708661416
20
-2.5422826377952754
11
5.1793389370078735
21
-2.5435624803149604
0
LINE
8
B.Mask
6
CONTINUOUS
10
5.1793389370078735
20
-2.5435624803149604
11
5.1727787007874015
21
-2.5435624803149604
0
LINE
8
B.Mask
6
CONTINUOUS
10
5.1727787007874015
20
-2.5435624803149604
11
5.1663445669291335
21
-2.5422826377952754
0
LINE
8
B.Mask
6
CONTINUOUS
10
5.1663445669291335
20
-2.5422826377952754
11
5.1602837401574799
21
-2.5397721653543308
0
LINE
8
B.Mask
6
CONTINUOUS
10
5.1602837401574799
20
-2.5397721653543308
11
5.1548291338582679
21
-2.5361275196850395
0
LINE
8
B.Mask
6
CONTINUOUS
10
5.1548291338582679
20
-2.5361275196850395
11
5.1501903543307082
21
-2.5314887401574802
0
LINE
8
B.Mask
6
CONTINUOUS
10
5.1501903543307082
20
-2.5314887401574802
11
5.1465457086614173
21
-2.5260341338582677
0
LINE
8
B.Mask
6
CONTINUOUS
10
5.1465457086614173
20
-2.5260341338582677
11
5.1440352362204722
21
-2.5199733070866142
0
LINE
8
B.Mask
6
CONTINUOUS
10
5.1440352362204722
20
-2.5199733070866142
11
5.1427553937007877
21
-2.5135391732283465
0
LINE
8
B.Mask
6
CONTINUOUS
10
5.1427553937007877
20
-2.5135391732283465
11
5.1427553937007877
21
-2.5069789370078741
0
LINE
8
B.Mask
6
CONTINUOUS
10
5.1427553937007877
20
-2.5069789370078741
11
5.1440352362204722
21
-2.500544803149606
0
LINE
8
B.Mask
6
CONTINUOUS
10
5.1440352362204722
20
-2.500544803149606
11
5.1465457086614173
21
-2.4944839763779525
0
LINE
8
B.Mask
6
CONTINUOUS
10
5.1465457086614173
20
-2.4944839763779525
11
5.1501903543307082
21
-2.48902937007874
0
LINE
8
B.Mask
6
CONTINUOUS
10
5.1501903543307082
20
-2.48902937007874
11
5.1548291338582679
21
-2.4843905905511812
0
LINE
8
B.Mask
6
CONTINUOUS
10
5.1548291338582679
20
-2.4843905905511812
11
5.1602837401574799
21
-2.4807459448818898
0
LINE
8
B.Mask
6
CONTINUOUS
10
5.1602837401574799
20
-2.4807459448818898
11
5.1663445669291335
21
-2.4782354724409448
0
LINE
8
B.Mask
6
CONTINUOUS
10
5.1663445669291335
20
-2.4782354724409448
11
5.1727787007874015
21
-2.4769556299212598
0
LINE
8
B.Mask
6
CONTINUOUS
10
5.1727787007874015
20
-2.4769556299212598
11
5.1793389370078735
21
-2.4769556299212598
0
LINE
8
B.Mask
6
CONTINUOUS
10
5.1793389370078735
20
-2.4769556299212598
11
5.1857730708661416
21
-2.4782354724409448
0
LINE
8
B.Mask
6
CONTINUOUS
10
6.0973126771653545
20
-2.4765818897637795
11
6.1033735039370081
21
-2.4790923622047245
0
LINE
8
B.Mask
6
CONTINUOUS
10
6.1033735039370081
20
-2.4790923622047245
11
6.1088281102362201
21
-2.4827370078740159
0
LINE
8
B.Mask
6
CONTINUOUS
10
6.1088281102362201
20
-2.4827370078740159
11
6.1134668897637798
21
-2.4873757874015747
0
LINE
8
B.Mask
6
CONTINUOUS
10
6.1134668897637798
20
-2.4873757874015747
11
6.1171115354330707
21
-2.4928303937007872
0
LINE
8
B.Mask
6
CONTINUOUS
10
6.1171115354330707
20
-2.4928303937007872
11
6.1196220078740158
21
-2.4988912204724407
0
LINE
8
B.Mask
6
CONTINUOUS
10
6.1196220078740158
20
-2.4988912204724407
11
6.1209018503937003
21
-2.5053253543307088
0
LINE
8
B.Mask
6
CONTINUOUS
10
6.1209018503937003
20
-2.5053253543307088
11
6.1209018503937003
21
-2.5118855905511812
0
LINE
8
B.Mask
6
CONTINUOUS
10
6.1209018503937003
20
-2.5118855905511812
11
6.1196220078740158
21
-2.5183197244094488
0
LINE
8
B.Mask
6
CONTINUOUS
10
6.1196220078740158
20
-2.5183197244094488
11
6.1171115354330707
21
-2.5243805511811024
0
LINE
8
B.Mask
6
CONTINUOUS
10
6.1171115354330707
20
-2.5243805511811024
11
6.1134668897637798
21
-2.5298351574803148
0
LINE
8
B.Mask
6
CONTINUOUS
10
6.1134668897637798
20
-2.5298351574803148
11
6.1088281102362201
21
-2.5344739370078742
0
LINE
8
B.Mask
6
CONTINUOUS
10
6.1088281102362201
20
-2.5344739370078742
11
6.1033735039370081
21
-2.5381185826771655
0
LINE
8
B.Mask
6
CONTINUOUS
10
6.1033735039370081
20
-2.5381185826771655
11
6.0973126771653545
21
-2.5406290551181101
0
LINE
8
B.Mask
6
CONTINUOUS
10
6.0973126771653545
20
-2.5406290551181101
11
6.0908785433070864
21
-2.541908897637795
0
LINE
8
B.Mask
6
CONTINUOUS
10
6.0908785433070864
20
-2.541908897637795
11
6.0843183070866145
21
-2.541908897637795
0
LINE
8
B.Mask
6
CONTINUOUS
10
6.0843183070866145
20
-2.541908897637795
11
6.0778841732283464
21
-2.5406290551181101
0
LINE
8
B.Mask
6
CONTINUOUS
10
6.0778841732283464
20
-2.5406290551181101
11
6.0718233464566929
21
-2.5381185826771655
0
LINE
8
B.Mask
6
CONTINUOUS
10
6.0718233464566929
20
-2.5381185826771655
11
6.06636874015748
21
-2.5344739370078742
0
LINE
8
B.Mask
6
CONTINUOUS
10
6.06636874015748
20
-2.5344739370078742
11
6.0617299606299211
21
-2.5298351574803148
0
LINE
8
B.Mask
6
CONTINUOUS
10
6.0617299606299211
20
-2.5298351574803148
11
6.0580853149606302
21
-2.5243805511811024
0
LINE
8
B.Mask
6
CONTINUOUS
10
6.0580853149606302
20
-2.5243805511811024
11
6.0555748425196851
21
-2.5183197244094488
0
LINE
8
B.Mask
6
CONTINUOUS
10
6.0555748425196851
20
-2.5183197244094488
11
6.0542949999999998
21
-2.5118855905511812
0
LINE
8
B.Mask
6
CONTINUOUS
10
6.0542949999999998
20
-2.5118855905511812
11
6.0542949999999998
21
-2.5053253543307088
0
LINE
8
B.Mask
6
CONTINUOUS
10
6.0542949999999998
20
-2.5053253543307088
11
6.0555748425196851
21
-2.4988912204724407
0
LINE
8
B.Mask
6
CONTINUOUS
10
6.0555748425196851
20
-2.4988912204724407
11
6.0580853149606302
21
-2.4928303937007872
0
LINE
8
B.Mask
6
CONTINUOUS
10
6.0580853149606302
20
-2.4928303937007872
11
6.0617299606299211
21
-2.4873757874015747
0
LINE
8
B.Mask
6
CONTINUOUS
10
6.0617299606299211
20
-2.4873757874015747
11
6.06636874015748
21
-2.4827370078740159
0
LINE
8
B.Mask
6
CONTINUOUS
10
6.06636874015748
20
-2.4827370078740159
11
6.0718233464566929
21
-2.4790923622047245
0
LINE
8
B.Mask
6
CONTINUOUS
10
6.0718233464566929
20
-2.4790923622047245
11
6.0778841732283464
21
-2.4765818897637795
0
LINE
8
B.Mask
6
CONTINUOUS
10
6.0778841732283464
20
-2.4765818897637795
11
6.0843183070866145
21
-2.4753020472440945
0
LINE
8
B.Mask
6
CONTINUOUS
10
6.0843183070866145
20
-2.4753020472440945
11
6.0908785433070864
21
-2.4753020472440945
0
LINE
8
B.Mask
6
CONTINUOUS
10
6.0908785433070864
20
-2.4753020472440945
11
6.0973126771653545
21
-2.4765818897637795
0
LINE
8
B.Mask
6
CONTINUOUS
10
5.2095233858267713
20
-2.4437236220472442
11
5.1425942519685037
21
-2.4437236220472442
0
LINE
8
B.Mask
6
CONTINUOUS
10
5.1425942519685037
20
-2.4437236220472442
11
5.1425942519685037
21
-2.3767944881889762
0
LINE
8
B.Mask
6
CONTINUOUS
10
5.1425942519685037
20
-2.3767944881889762
11
5.2095233858267713
21
-2.3767944881889762
0
LINE
8
B.Mask
6
CONTINUOUS
10
5.2095233858267713
20
-2.3767944881889762
11
5.2095233858267713
21
-2.4437236220472442
0
LINE
8
B.Mask
6
CONTINUOUS
10
6.0973126771653545
20
-2.3765818897637794
11
6.1033735039370081
21
-2.3790923622047244
0
LINE
8
B.Mask
6
CONTINUOUS
10
6.1033735039370081
20
-2.3790923622047244
11
6.1088281102362201
21
-2.3827370078740158
0
LINE
8
B.Mask
6
CONTINUOUS
10
6.1088281102362201
20
-2.3827370078740158
11
6.1134668897637798
21
-2.3873757874015746
0
LINE
8
B.Mask
6
CONTINUOUS
10
6.1134668897637798
20
-2.3873757874015746
11
6.1171115354330707
21
-2.3928303937007875
0
LINE
8
B.Mask
6
CONTINUOUS
10
6.1171115354330707
20
-2.3928303937007875
11
6.1196220078740158
21
-2.3988912204724411
0
LINE
8
B.Mask
6
CONTINUOUS
10
6.1196220078740158
20
-2.3988912204724411
11
6.1209018503937003
21
-2.4053253543307087
0
LINE
8
B.Mask
6
CONTINUOUS
10
6.1209018503937003
20
-2.4053253543307087
11
6.1209018503937003
21
-2.4118855905511811
0
LINE
8
B.Mask
6
CONTINUOUS
10
6.1209018503937003
20
-2.4118855905511811
11
6.1196220078740158
21
-2.4183197244094488
0
LINE
8
B.Mask
6
CONTINUOUS
10
6.1196220078740158
20
-2.4183197244094488
11
6.1171115354330707
21
-2.4243805511811023
0
LINE
8
B.Mask
6
CONTINUOUS
10
6.1171115354330707
20
-2.4243805511811023
11
6.1134668897637798
21
-2.4298351574803148
0
LINE
8
B.Mask
6
CONTINUOUS
10
6.1134668897637798
20
-2.4298351574803148
11
6.1088281102362201
21
-2.4344739370078741
0
LINE
8
B.Mask
6
CONTINUOUS
10
6.1088281102362201
20
-2.4344739370078741
11
6.1033735039370081
21
-2.4381185826771654
0
LINE
8
B.Mask
6
CONTINUOUS
10
6.1033735039370081
20
-2.4381185826771654
11
6.0973126771653545
21
-2.44062905511811
0
LINE
8
B.Mask
6
CONTINUOUS
10
6.0973126771653545
20
-2.44062905511811
11
6.0908785433070864
21
-2.4419088976377954
0
LINE
8
B.Mask
6
CONTINUOUS
10
6.0908785433070864
20
-2.4419088976377954
11
6.0843183070866145
21
-2.4419088976377954
0
LINE
8
B.Mask
6
CONTINUOUS
10
6.0843183070866145
20
-2.4419088976377954
11
6.0778841732283464
21
-2.44062905511811
0
LINE
8
B.Mask
6
CONTINUOUS
10
6.0778841732283464
20
-2.44062905511811
11
6.0718233464566929
21
-2.4381185826771654
0
LINE
8
B.Mask
6
CONTINUOUS
10
6.0718233464566929
20
-2.4381185826771654
11
6.06636874015748
21
-2.4344739370078741
0
LINE
8
B.Mask
6
CONTINUOUS
10
6.06636874015748
20
-2.4344739370078741
11
6.0617299606299211
21
-2.4298351574803148
0
LINE
8
B.Mask
6
CONTINUOUS
10
6.0617299606299211
20
-2.4298351574803148
11
6.0580853149606302
21
-2.4243805511811023
0
LINE
8
B.Mask
6
CONTINUOUS
10
6.0580853149606302
20
-2.4243805511811023
11
6.0555748425196851
21
-2.4183197244094488
0
LINE
8
B.Mask
6
CONTINUOUS
10
6.0555748425196851
20
-2.4183197244094488
11
6.0542949999999998
21
-2.4118855905511811
0
LINE
8
B.Mask
6
CONTINUOUS
10
6.0542949999999998
20
-2.4118855905511811
11
6.0542949999999998
21
-2.4053253543307087
0
LINE
8
B.Mask
6
CONTINUOUS
10
6.0542949999999998
20
-2.4053253543307087
11
6.0555748425196851
21
-2.3988912204724411
0
LINE
8
B.Mask
6
CONTINUOUS
10
6.0555748425196851
20
-2.3988912204724411
11
6.0580853149606302
21
-2.3928303937007875
0
LINE
8
B.Mask
6
CONTINUOUS
10
6.0580853149606302
20
-2.3928303937007875
11
6.0617299606299211
21
-2.3873757874015746
0
LINE
8
B.Mask
6
CONTINUOUS
10
6.0617299606299211
20
-2.3873757874015746
11
6.06636874015748
21
-2.3827370078740158
0
LINE
8
B.Mask
6
CONTINUOUS
10
6.06636874015748
20
-2.3827370078740158
11
6.0718233464566929
21
-2.3790923622047244
0
LINE
8
B.Mask
6
CONTINUOUS
10
6.0718233464566929
20
-2.3790923622047244
11
6.0778841732283464
21
-2.3765818897637794
0
LINE
8
B.Mask
6
CONTINUOUS
10
6.0778841732283464
20
-2.3765818897637794
11
6.0843183070866145
21
-2.3753020472440944
0
LINE
8
B.Mask
6
CONTINUOUS
10
6.0843183070866145
20
-2.3753020472440944
11
6.0908785433070864
21
-2.3753020472440944
0
LINE
8
B.Mask
6
CONTINUOUS
10
6.0908785433070864
20
-2.3753020472440944
11
6.0973126771653545
21
-2.3765818897637794
0
LINE
8
B.Mask
6
CONTINUOUS
10
6.0467193307086609
20
-2.1261271653543306
11
6.0499124803149602
21
-2.1282607480314959
0
LINE
8
B.Mask
6
CONTINUOUS
10
6.0499124803149602
20
-2.1282607480314959
11
6.052046062992126
21
-2.1314538976377952
0
LINE
8
B.Mask
6
CONTINUOUS
10
6.052046062992126
20
-2.1314538976377952
11
6.052795275590551
21
-2.1352204724409449
0
LINE
8
B.Mask
6
CONTINUOUS
10
6.052795275590551
20
-2.1352204724409449
11
6.052795275590551
21
-2.1627795275590551
0
LINE
8
B.Mask
6
CONTINUOUS
10
6.052795275590551
20
-2.1627795275590551
11
6.052046062992126
21
-2.1665461023622048
0
LINE
8
B.Mask
6
CONTINUOUS
10
6.052046062992126
20
-2.1665461023622048
11
6.0499124803149602
21
-2.1697392519685037
0
LINE
8
B.Mask
6
CONTINUOUS
10
6.0499124803149602
20
-2.1697392519685037
11
6.0467193307086609
21
-2.171872834645669
0
LINE
8
B.Mask
6
CONTINUOUS
10
6.0467193307086609
20
-2.171872834645669
11
6.0429527559055121
21
-2.1726220472440945
0
LINE
8
B.Mask
6
CONTINUOUS
10
6.0429527559055121
20
-2.1726220472440945
11
5.9937401574803149
21
-2.1726220472440945
0
LINE
8
B.Mask
6
CONTINUOUS
10
5.9937401574803149
20
-2.1726220472440945
11
5.9899735826771652
21
-2.171872834645669
0
LINE
8
B.Mask
6
CONTINUOUS
10
5.9899735826771652
20
-2.171872834645669
11
5.9867804330708658
21
-2.1697392519685037
0
LINE
8
B.Mask
6
CONTINUOUS
10
5.9867804330708658
20
-2.1697392519685037
11
5.9846468503937009
21
-2.1665461023622048
0
LINE
8
B.Mask
6
CONTINUOUS
10
5.9846468503937009
20
-2.1665461023622048
11
5.9838976377952751
21
-2.1627795275590551
0
LINE
8
B.Mask
6
CONTINUOUS
10
5.9838976377952751
20
-2.1627795275590551
11
5.9838976377952751
21
-2.1352204724409449
0
LINE
8
B.Mask
6
CONTINUOUS
10
5.9838976377952751
20
-2.1352204724409449
11
5.9846468503937009
21
-2.1314538976377952
0
LINE
8
B.Mask
6
CONTINUOUS
10
5.9846468503937009
20
-2.1314538976377952
11
5.9867804330708658
21
-2.1282607480314959
0
LINE
8
B.Mask
6
CONTINUOUS
10
5.9867804330708658
20
-2.1282607480314959
11
5.9899735826771652
21
-2.1261271653543306
0
LINE
8
B.Mask
6
CONTINUOUS
10
5.9899735826771652
20
-2.1261271653543306
11
5.9937401574803149
21
-2.1253779527559056
0
LINE
8
B.Mask
6
CONTINUOUS
10
5.9937401574803149
20
-2.1253779527559056
11
6.0429527559055121
21
-2.1253779527559056
0
LINE
8
B.Mask
6
CONTINUOUS
10
6.0429527559055121
20
-2.1253779527559056
11
6.0467193307086609
21
-2.1261271653543306
0
LINE
8
B.Mask
6
CONTINUOUS
10
6.0322565354330706
20
-2.0468398818897637
11
6.0382129921259837
21
-2.0484359055118109
0
LINE
8
B.Mask
6
CONTINUOUS
10
6.0382129921259837
20
-2.0484359055118109
11
6.0435534251968503
21
-2.051519212598425
0
LINE
8
B.Mask
6
CONTINUOUS
10
6.0435534251968503
20
-2.051519212598425
11
6.0479138582677168
21
-2.0558796456692914
0
LINE
8
B.Mask
6
CONTINUOUS
10
6.0479138582677168
20
-2.0558796456692914
11
6.0509971653543309
21
-2.0612200787401576
0
LINE
8
B.Mask
6
CONTINUOUS
10
6.0509971653543309
20
-2.0612200787401576
11
6.0525931889763775
21
-2.0671765354330707
0
LINE
8
B.Mask
6
CONTINUOUS
10
6.0525931889763775
20
-2.0671765354330707
11
6.0525931889763775
21
-2.0733431496062993
0
LINE
8
B.Mask
6
CONTINUOUS
10
6.0525931889763775
20
-2.0733431496062993
11
6.0509971653543309
21
-2.0792996062992124
0
LINE
8
B.Mask
6
CONTINUOUS
10
6.0509971653543309
20
-2.0792996062992124
11
6.0479138582677168
21
-2.0846400393700786
0
LINE
8
B.Mask
6
CONTINUOUS
10
6.0479138582677168
20
-2.0846400393700786
11
6.0435534251968503
21
-2.089000472440945
0
LINE
8
B.Mask
6
CONTINUOUS
10
6.0435534251968503
20
-2.089000472440945
11
6.0382129921259837
21
-2.0920837795275591
0
LINE
8
B.Mask
6
CONTINUOUS
10
6.0382129921259837
20
-2.0920837795275591
11
6.0322565354330706
21
-2.0936798031496062
0
LINE
8
B.Mask
6
CONTINUOUS
10
6.0322565354330706
20
-2.0936798031496062
11
6.0291732283464565
21
-2.0938818897637796
0
LINE
8
B.Mask
6
CONTINUOUS
10
6.0291732283464565
20
-2.0938818897637796
11
6.0075196850393695
21
-2.0938818897637796
0
LINE
8
B.Mask
6
CONTINUOUS
10
6.0075196850393695
20
-2.0938818897637796
11
6.0044363779527554
21
-2.0936798031496062
0
LINE
8
B.Mask
6
CONTINUOUS
10
6.0044363779527554
20
-2.0936798031496062
11
5.9984799212598423
21
-2.0920837795275591
0
LINE
8
B.Mask
6
CONTINUOUS
10
5.9984799212598423
20
-2.0920837795275591
11
5.9931394881889766
21
-2.089000472440945
0
LINE
8
B.Mask
6
CONTINUOUS
10
5.9931394881889766
20
-2.089000472440945
11
5.9887790551181102
21
-2.0846400393700786
0
LINE
8
B.Mask
6
CONTINUOUS
10
5.9887790551181102
20
-2.0846400393700786
11
5.9856957480314961
21
-2.0792996062992124
0
LINE
8
B.Mask
6
CONTINUOUS
10
5.9856957480314961
20
-2.0792996062992124
11
5.9840997244094485
21
-2.0733431496062993
0
LINE
8
B.Mask
6
CONTINUOUS
10
5.9840997244094485
20
-2.0733431496062993
11
5.9840997244094485
21
-2.0671765354330707
0
LINE
8
B.Mask
6
CONTINUOUS
10
5.9840997244094485
20
-2.0671765354330707
11
5.9856957480314961
21
-2.0612200787401576
0
LINE
8
B.Mask
6
CONTINUOUS
10
5.9856957480314961
20
-2.0612200787401576
11
5.9887790551181102
21
-2.0558796456692914
0
LINE
8
B.Mask
6
CONTINUOUS
10
5.9887790551181102
20
-2.0558796456692914
11
5.9931394881889766
21
-2.051519212598425
0
LINE
8
B.Mask
6
CONTINUOUS
10
5.9931394881889766
20
-2.051519212598425
11
5.9984799212598423
21
-2.0484359055118109
0
LINE
8
B.Mask
6
CONTINUOUS
10
5.9984799212598423
20
-2.0484359055118109
11
6.0044363779527554
21
-2.0468398818897637
0
LINE
8
B.Mask
6
CONTINUOUS
10
6.0044363779527554
20
-2.0468398818897637
11
6.0075196850393695
21
-2.0466377952755903
0
LINE
8
B.Mask
6
CONTINUOUS
10
6.0075196850393695
20
-2.0466377952755903
11
6.0291732283464565
21
-2.0466377952755903
0
LINE
8
B.Mask
6
CONTINUOUS
10
6.0291732283464565
20
-2.0466377952755903
11
6.0322565354330706
21
-2.0468398818897637
0
LINE
8
B.Mask
6
CONTINUOUS
10
5.4682077165354332
20
-1.9485970866141731
11
5.4731031102362202
21
-1.9514234645669291
0
LINE
8
B.Mask
6
CONTINUOUS
10
5.4731031102362202
20
-1.9514234645669291
11
5.4771001574803151
21
-1.9554205118110235
0
LINE
8
B.Mask
6
CONTINUOUS
10
5.4771001574803151
20
-1.9554205118110235
11
5.4799265354330711
21
-1.9603159055118109
0
LINE
8
B.Mask
6
CONTINUOUS
10
5.4799265354330711
20
-1.9603159055118109
11
5.4813895669291339
21
-1.9657760236220472
0
LINE
8
B.Mask
6
CONTINUOUS
10
5.4813895669291339
20
-1.9657760236220472
11
5.4815748031496065
21
-1.9686023622047244
0
LINE
8
B.Mask
6
CONTINUOUS
10
5.4815748031496065
20
-1.9686023622047244
11
5.4815748031496065
21
-2.0040354330708663
0
LINE
8
B.Mask
6
CONTINUOUS
10
5.4815748031496065
20
-2.0040354330708663
11
5.4813895669291339
21
-2.0068617716535431
0
LINE
8
B.Mask
6
CONTINUOUS
10
5.4813895669291339
20
-2.0068617716535431
11
5.4799265354330711
21
-2.0123218897637796
0
LINE
8
B.Mask
6
CONTINUOUS
10
5.4799265354330711
20
-2.0123218897637796
11
5.4771001574803151
21
-2.017217283464567
0
LINE
8
B.Mask
6
CONTINUOUS
10
5.4771001574803151
20
-2.017217283464567
11
5.4731031102362202
21
-2.0212143307086614
0
LINE
8
B.Mask
6
CONTINUOUS
10
5.4731031102362202
20
-2.0212143307086614
11
5.4682077165354332
21
-2.0240407086614174
0
LINE
8
B.Mask
6
CONTINUOUS
10
5.4682077165354332
20
-2.0240407086614174
11
5.4627475984251967
21
-2.0255037401574802
0
LINE
8
B.Mask
6
CONTINUOUS
10
5.4627475984251967
20
-2.0255037401574802
11
5.4570949212598423
21
-2.0255037401574802
0
LINE
8
B.Mask
6
CONTINUOUS
10
5.4570949212598423
20
-2.0255037401574802
11
5.4516348031496058
21
-2.0240407086614174
0
LINE
8
B.Mask
6
CONTINUOUS
10
5.4516348031496058
20
-2.0240407086614174
11
5.4467394094488188
21
-2.0212143307086614
0
LINE
8
B.Mask
6
CONTINUOUS
10
5.4467394094488188
20
-2.0212143307086614
11
5.442742362204724
21
-2.017217283464567
0
LINE
8
B.Mask
6
CONTINUOUS
10
5.442742362204724
20
-2.017217283464567
11
5.439915984251968
21
-2.0123218897637796
0
LINE
8
B.Mask
6
CONTINUOUS
10
5.439915984251968
20
-2.0123218897637796
11
5.4384529527559051
21
-2.0068617716535431
0
LINE
8
B.Mask
6
CONTINUOUS
10
5.4384529527559051
20
-2.0068617716535431
11
5.4382677165354325
21
-2.0040354330708663
0
LINE
8
B.Mask
6
CONTINUOUS
10
5.4382677165354325
20
-2.0040354330708663
11
5.4382677165354325
21
-1.9686023622047244
0
LINE
8
B.Mask
6
CONTINUOUS
10
5.4382677165354325
20
-1.9686023622047244
11
5.4384529527559051
21
-1.9657760236220472
0
LINE
8
B.Mask
6
CONTINUOUS
10
5.4384529527559051
20
-1.9657760236220472
11
5.439915984251968
21
-1.9603159055118109
0
LINE
8
B.Mask
6
CONTINUOUS
10
5.439915984251968
20
-1.9603159055118109
11
5.442742362204724
21
-1.9554205118110235
0
LINE
8
B.Mask
6
CONTINUOUS
10
5.442742362204724
20
-1.9554205118110235
11
5.4467394094488188
21
-1.9514234645669291
0
LINE
8
B.Mask
6
CONTINUOUS
10
5.4467394094488188
20
-1.9514234645669291
11
5.4516348031496058
21
-1.9485970866141731
0
LINE
8
B.Mask
6
CONTINUOUS
10
5.4516348031496058
20
-1.9485970866141731
11
5.4570949212598423
21
-1.9471340551181102
0
LINE
8
B.Mask
6
CONTINUOUS
10
5.4570949212598423
20
-1.9471340551181102
11
5.4627475984251967
21
-1.9471340551181102
0
LINE
8
B.Mask
6
CONTINUOUS
10
5.4627475984251967
20
-1.9471340551181102
11
5.4682077165354332
21
-1.9485970866141731
0
LINE
8
B.Mask
6
CONTINUOUS
10
5.808365196850394
20
-1.9485970866141731
11
5.8132605905511809
21
-1.9514234645669291
0
LINE
8
B.Mask
6
CONTINUOUS
10
5.8132605905511809
20
-1.9514234645669291
11
5.8172576377952758
21
-1.9554205118110235
0
LINE
8
B.Mask
6
CONTINUOUS
10
5.8172576377952758
20
-1.9554205118110235
11
5.8200840157480318
21
-1.9603159055118109
0
LINE
8
B.Mask
6
CONTINUOUS
10
5.8200840157480318
20
-1.9603159055118109
11
5.8215470472440947
21
-1.9657760236220472
0
LINE
8
B.Mask
6
CONTINUOUS
10
5.8215470472440947
20
-1.9657760236220472
11
5.8217322834645664
21
-1.9686023622047244
0
LINE
8
B.Mask
6
CONTINUOUS
10
5.8217322834645664
20
-1.9686023622047244
11
5.8217322834645664
21
-2.0040354330708663
0
LINE
8
B.Mask
6
CONTINUOUS
10
5.8217322834645664
20
-2.0040354330708663
11
5.8215470472440947
21
-2.0068617716535431
0
LINE
8
B.Mask
6
CONTINUOUS
10
5.8215470472440947
20
-2.0068617716535431
11
5.8200840157480318
21
-2.0123218897637796
0
LINE
8
B.Mask
6
CONTINUOUS
10
5.8200840157480318
20
-2.0123218897637796
11
5.8172576377952758
21
-2.017217283464567
0
LINE
8
B.Mask
6
CONTINUOUS
10
5.8172576377952758
20
-2.017217283464567
11
5.8132605905511809
21
-2.0212143307086614
0
LINE
8
B.Mask
6
CONTINUOUS
10
5.8132605905511809
20
-2.0212143307086614
11
5.808365196850394
21
-2.0240407086614174
0
LINE
8
B.Mask
6
CONTINUOUS
10
5.808365196850394
20
-2.0240407086614174
11
5.8029050787401575
21
-2.0255037401574802
0
LINE
8
B.Mask
6
CONTINUOUS
10
5.8029050787401575
20
-2.0255037401574802
11
5.797252401574803
21
-2.0255037401574802
0
LINE
8
B.Mask
6
CONTINUOUS
10
5.797252401574803
20
-2.0255037401574802
11
5.7917922834645665
21
-2.0240407086614174
0
LINE
8
B.Mask
6
CONTINUOUS
10
5.7917922834645665
20
-2.0240407086614174
11
5.7868968897637796
21
-2.0212143307086614
0
LINE
8
B.Mask
6
CONTINUOUS
10
5.7868968897637796
20
-2.0212143307086614
11
5.7828998425196847
21
-2.017217283464567
0
LINE
8
B.Mask
6
CONTINUOUS
10
5.7828998425196847
20
-2.017217283464567
11
5.7800734645669287
21
-2.0123218897637796
0
LINE
8
B.Mask
6
CONTINUOUS
10
5.7800734645669287
20
-2.0123218897637796
11
5.7786104330708659
21
-2.0068617716535431
0
LINE
8
B.Mask
6
CONTINUOUS
10
5.7786104330708659
20
-2.0068617716535431
11
5.7784251968503932
21
-2.0040354330708663
0
LINE
8
B.Mask
6
CONTINUOUS
10
5.7784251968503932
20
-2.0040354330708663
11
5.7784251968503932
21
-1.9686023622047244
0
LINE
8
B.Mask
6
CONTINUOUS
10
5.7784251968503932
20
-1.9686023622047244
11
5.7786104330708659
21
-1.9657760236220472
0
LINE
8
B.Mask
6
CONTINUOUS
10
5.7786104330708659
20
-1.9657760236220472
11
5.7800734645669287
21
-1.9603159055118109
0
LINE
8
B.Mask
6
CONTINUOUS
10
5.7800734645669287
20
-1.9603159055118109
11
5.7828998425196847
21
-1.9554205118110235
0
LINE
8
B.Mask
6
CONTINUOUS
10
5.7828998425196847
20
-1.9554205118110235
11
5.7868968897637796
21
-1.9514234645669291
0
LINE
8
B.Mask
6
CONTINUOUS
10
5.7868968897637796
20
-1.9514234645669291
11
5.7917922834645665
21
-1.9485970866141731
0
LINE
8
B.Mask
6
CONTINUOUS
10
5.7917922834645665
20
-1.9485970866141731
11
5.797252401574803
21
-1.9471340551181102
0
LINE
8
B.Mask
6
CONTINUOUS
10
5.797252401574803
20
-1.9471340551181102
11
5.8029050787401575
21
-1.9471340551181102
0
LINE
8
B.Mask
6
CONTINUOUS
10
5.8029050787401575
20
-1.9471340551181102
11
5.808365196850394
21
-1.9485970866141731
0
LINE
8
B.Mask
6
CONTINUOUS
10
5.5214936614173231
20
-1.952722125984252
11
5.5246089370078737
21
-1.9545207086614174
0
LINE
8
B.Mask
6
CONTINUOUS
10
5.5246089370078737
20
-1.9545207086614174
11
5.5271525196850391
21
-1.9570642913385827
0
LINE
8
B.Mask
6
CONTINUOUS
10
5.5271525196850391
20
-1.9570642913385827
11
5.5289511023622042
21
-1.9601795669291338
0
LINE
8
B.Mask
6
CONTINUOUS
10
5.5289511023622042
20
-1.9601795669291338
11
5.5298821259842521
21
-1.9636541732283463
0
LINE
8
B.Mask
6
CONTINUOUS
10
5.5298821259842521
20
-1.9636541732283463
11
5.5298821259842521
21
-1.9672513385826771
0
LINE
8
B.Mask
6
CONTINUOUS
10
5.5298821259842521
20
-1.9672513385826771
11
5.5289511023622042
21
-1.9707259448818897
0
LINE
8
B.Mask
6
CONTINUOUS
10
5.5289511023622042
20
-1.9707259448818897
11
5.5271525196850391
21
-1.9738412204724409
0
LINE
8
B.Mask
6
CONTINUOUS
10
5.5271525196850391
20
-1.9738412204724409
11
5.5246089370078737
21
-1.9763848031496063
0
LINE
8
B.Mask
6
CONTINUOUS
10
5.5246089370078737
20
-1.9763848031496063
11
5.5214936614173231
21
-1.9781833858267717
0
LINE
8
B.Mask
6
CONTINUOUS
10
5.5214936614173231
20
-1.9781833858267717
11
5.5180190551181099
21
-1.9791144094488189
0
LINE
8
B.Mask
6
CONTINUOUS
10
5.5180190551181099
20
-1.9791144094488189
11
5.5144218897637796
21
-1.9791144094488189
0
LINE
8
B.Mask
6
CONTINUOUS
10
5.5144218897637796
20
-1.9791144094488189
11
5.5109472834645672
21
-1.9781833858267717
0
LINE
8
B.Mask
6
CONTINUOUS
10
5.5109472834645672
20
-1.9781833858267717
11
5.5078320078740157
21
-1.9763848031496063
0
LINE
8
B.Mask
6
CONTINUOUS
10
5.5078320078740157
20
-1.9763848031496063
11
5.5052884251968504
21
-1.9738412204724409
0
LINE
8
B.Mask
6
CONTINUOUS
10
5.5052884251968504
20
-1.9738412204724409
11
5.5034898425196852
21
-1.9707259448818897
0
LINE
8
B.Mask
6
CONTINUOUS
10
5.5034898425196852
20
-1.9707259448818897
11
5.5025588188976373
21
-1.9672513385826771
0
LINE
8
B.Mask
6
CONTINUOUS
10
5.5025588188976373
20
-1.9672513385826771
11
5.5025588188976373
21
-1.9636541732283463
0
LINE
8
B.Mask
6
CONTINUOUS
10
5.5025588188976373
20
-1.9636541732283463
11
5.5034898425196852
21
-1.9601795669291338
0
LINE
8
B.Mask
6
CONTINUOUS
10
5.5034898425196852
20
-1.9601795669291338
11
5.5052884251968504
21
-1.9570642913385827
0
LINE
8
B.Mask
6
CONTINUOUS
10
5.5052884251968504
20
-1.9570642913385827
11
5.5078320078740157
21
-1.9545207086614174
0
LINE
8
B.Mask
6
CONTINUOUS
10
5.5078320078740157
20
-1.9545207086614174
11
5.5109472834645672
21
-1.952722125984252
0
LINE
8
B.Mask
6
CONTINUOUS
10
5.5109472834645672
20
-1.952722125984252
11
5.5144218897637796
21
-1.9517911023622048
0
LINE
8
B.Mask
6
CONTINUOUS
10
5.5144218897637796
20
-1.9517911023622048
11
5.5180190551181099
21
-1.9517911023622048
0
LINE
8
B.Mask
6
CONTINUOUS
10
5.5180190551181099
20
-1.9517911023622048
11
5.5214936614173231
21
-1.952722125984252
0
LINE
8
B.Mask
6
CONTINUOUS
10
5.7490527165354326
20
-1.952722125984252
11
5.7521679921259841
21
-1.9545207086614174
0
LINE
8
B.Mask
6
CONTINUOUS
10
5.7521679921259841
20
-1.9545207086614174
11
5.7547115748031494
21
-1.9570642913385827
0
LINE
8
B.Mask
6
CONTINUOUS
10
5.7547115748031494
20
-1.9570642913385827
11
5.7565101574803146
21
-1.9601795669291338
0
LINE
8
B.Mask
6
CONTINUOUS
10
5.7565101574803146
20
-1.9601795669291338
11
5.7574411811023625
21
-1.9636541732283463
0
LINE
8
B.Mask
6
CONTINUOUS
10
5.7574411811023625
20
-1.9636541732283463
11
5.7574411811023625
21
-1.9672513385826771
0
LINE
8
B.Mask
6
CONTINUOUS
10
5.7574411811023625
20
-1.9672513385826771
11
5.7565101574803146
21
-1.9707259448818897
0
LINE
8
B.Mask
6
CONTINUOUS
10
5.7565101574803146
20
-1.9707259448818897
11
5.7547115748031494
21
-1.9738412204724409
0
LINE
8
B.Mask
6
CONTINUOUS
10
5.7547115748031494
20
-1.9738412204724409
11
5.7521679921259841
21
-1.9763848031496063
0
LINE
8
B.Mask
6
CONTINUOUS
10
5.7521679921259841
20
-1.9763848031496063
11
5.7490527165354326
21
-1.9781833858267717
0
LINE
8
B.Mask
6
CONTINUOUS
10
5.7490527165354326
20
-1.9781833858267717
11
5.7455781102362202
21
-1.9791144094488189
0
LINE
8
B.Mask
6
CONTINUOUS
10
5.7455781102362202
20
-1.9791144094488189
11
5.7419809448818899
21
-1.9791144094488189
0
LINE
8
B.Mask
6
CONTINUOUS
10
5.7419809448818899
20
-1.9791144094488189
11
5.7385063385826767
21
-1.9781833858267717
0
LINE
8
B.Mask
6
CONTINUOUS
10
5.7385063385826767
20
-1.9781833858267717
11
5.7353910629921261
21
-1.9763848031496063
0
LINE
8
B.Mask
6
CONTINUOUS
10
5.7353910629921261
20
-1.9763848031496063
11
5.7328474803149607
21
-1.9738412204724409
0
LINE
8
B.Mask
6
CONTINUOUS
10
5.7328474803149607
20
-1.9738412204724409
11
5.7310488976377956
21
-1.9707259448818897
0
LINE
8
B.Mask
6
CONTINUOUS
10
5.7310488976377956
20
-1.9707259448818897
11
5.7301178740157477
21
-1.9672513385826771
0
LINE
8
B.Mask
6
CONTINUOUS
10
5.7301178740157477
20
-1.9672513385826771
11
5.7301178740157477
21
-1.9636541732283463
0
LINE
8
B.Mask
6
CONTINUOUS
10
5.7301178740157477
20
-1.9636541732283463
11
5.7310488976377956
21
-1.9601795669291338
0
LINE
8
B.Mask
6
CONTINUOUS
10
5.7310488976377956
20
-1.9601795669291338
11
5.7328474803149607
21
-1.9570642913385827
0
LINE
8
B.Mask
6
CONTINUOUS
10
5.7328474803149607
20
-1.9570642913385827
11
5.7353910629921261
21
-1.9545207086614174
0
LINE
8
B.Mask
6
CONTINUOUS
10
5.7353910629921261
20
-1.9545207086614174
11
5.7385063385826767
21
-1.952722125984252
0
LINE
8
B.Mask
6
CONTINUOUS
10
5.7385063385826767
20
-1.952722125984252
11
5.7419809448818899
21
-1.9517911023622048
0
LINE
8
B.Mask
6
CONTINUOUS
10
5.7419809448818899
20
-1.9517911023622048
11
5.7455781102362202
21
-1.9517911023622048
0
LINE
8
B.Mask
6
CONTINUOUS
10
5.7455781102362202
20
-1.9517911023622048
11
5.7490527165354326
21
-1.952722125984252
0
LINE
8
B.Mask
6
CONTINUOUS
10
6.0639999606299213
20
-1.8304414566929132
11
6.0714868897637793
21
-1.8335426377952755
0
LINE
8
B.Mask
6
CONTINUOUS
10
6.0714868897637793
20
-1.8335426377952755
11
6.0782249212598423
21
-1.8380448425196849
0
LINE
8
B.Mask
6
CONTINUOUS
10
6.0782249212598423
20
-1.8380448425196849
11
6.0839551574803146
21
-1.8437750787401574
0
LINE
8
B.Mask
6
CONTINUOUS
10
6.0839551574803146
20
-1.8437750787401574
11
6.088457362204724
21
-1.8505131102362204
0
LINE
8
B.Mask
6
CONTINUOUS
10
6.088457362204724
20
-1.8505131102362204
11
6.0915585433070865
21
-1.8580000393700786
0
LINE
8
B.Mask
6
CONTINUOUS
10
6.0915585433070865
20
-1.8580000393700786
11
6.093139527559055
21
-1.8659481102362205
0
LINE
8
B.Mask
6
CONTINUOUS
10
6.093139527559055
20
-1.8659481102362205
11
6.093139527559055
21
-1.8740518897637795
0
LINE
8
B.Mask
6
CONTINUOUS
10
6.093139527559055
20
-1.8740518897637795
11
6.0915585433070865
21
-1.8819999606299211
0
LINE
8
B.Mask
6
CONTINUOUS
10
6.0915585433070865
20
-1.8819999606299211
11
6.088457362204724
21
-1.8894868897637795
0
LINE
8
B.Mask
6
CONTINUOUS
10
6.088457362204724
20
-1.8894868897637795
11
6.0839551574803146
21
-1.8962249212598425
0
LINE
8
B.Mask
6
CONTINUOUS
10
6.0839551574803146
20
-1.8962249212598425
11
6.0782249212598423
21
-1.9019551574803149
0
LINE
8
B.Mask
6
CONTINUOUS
10
6.0782249212598423
20
-1.9019551574803149
11
6.0714868897637793
21
-1.9064573622047243
0
LINE
8
B.Mask
6
CONTINUOUS
10
6.0714868897637793
20
-1.9064573622047243
11
6.0639999606299213
21
-1.9095585433070865
0
LINE
8
B.Mask
6
CONTINUOUS
10
6.0639999606299213
20
-1.9095585433070865
11
6.0560518897637792
21
-1.911139527559055
0
LINE
8
B.Mask
6
CONTINUOUS
10
6.0560518897637792
20
-1.911139527559055
11
6.04794811023622
21
-1.911139527559055
0
LINE
8
B.Mask
6
CONTINUOUS
10
6.04794811023622
20
-1.911139527559055
11
6.0400000393700788
21
-1.9095585433070865
0
LINE
8
B.Mask
6
CONTINUOUS
10
6.0400000393700788
20
-1.9095585433070865
11
6.0325131102362199
21
-1.9064573622047243
0
LINE
8
B.Mask
6
CONTINUOUS
10
6.0325131102362199
20
-1.9064573622047243
11
6.0257750787401569
21
-1.9019551574803149
0
LINE
8
B.Mask
6
CONTINUOUS
10
6.0257750787401569
20
-1.9019551574803149
11
6.0200448425196846
21
-1.8962249212598425
0
LINE
8
B.Mask
6
CONTINUOUS
10
6.0200448425196846
20
-1.8962249212598425
11
6.0155426377952752
21
-1.8894868897637795
0
LINE
8
B.Mask
6
CONTINUOUS
10
6.0155426377952752
20
-1.8894868897637795
11
6.0124414566929136
21
-1.8819999606299211
0
LINE
8
B.Mask
6
CONTINUOUS
10
6.0124414566929136
20
-1.8819999606299211
11
6.0108604724409451
21
-1.8740518897637795
0
LINE
8
B.Mask
6
CONTINUOUS
10
6.0108604724409451
20
-1.8740518897637795
11
6.0108604724409451
21
-1.8659481102362205
0
LINE
8
B.Mask
6
CONTINUOUS
10
6.0108604724409451
20
-1.8659481102362205
11
6.0124414566929136
21
-1.8580000393700786
0
LINE
8
B.Mask
6
CONTINUOUS
10
6.0124414566929136
20
-1.8580000393700786
11
6.0155426377952752
21
-1.8505131102362204
0
LINE
8
B.Mask
6
CONTINUOUS
10
6.0155426377952752
20
-1.8505131102362204
11
6.0200448425196846
21
-1.8437750787401574
0
LINE
8
B.Mask
6
CONTINUOUS
10
6.0200448425196846
20
-1.8437750787401574
11
6.0257750787401569
21
-1.8380448425196849
0
LINE
8
B.Mask
6
CONTINUOUS
10
6.0257750787401569
20
-1.8380448425196849
11
6.0325131102362199
21
-1.8335426377952755
0
LINE
8
B.Mask
6
CONTINUOUS
10
6.0325131102362199
20
-1.8335426377952755
11
6.0400000393700788
21
-1.8304414566929132
0
LINE
8
B.Mask
6
CONTINUOUS
10
6.0400000393700788
20
-1.8304414566929132
11
6.04794811023622
21
-1.8288604724409447
0
LINE
8
B.Mask
6
CONTINUOUS
10
6.04794811023622
20
-1.8288604724409447
11
6.0560518897637792
21
-1.8288604724409447
0
LINE
8
B.Mask
6
CONTINUOUS
10
6.0560518897637792
20
-1.8288604724409447
11
6.0639999606299213
21
-1.8304414566929132
0
LINE
8
B.Mask
6
CONTINUOUS
10
5.2257503149606297
20
-1.8295468110236219
11
5.2332372440944877
21
-1.8326479921259842
0
LINE
8
B.Mask
6
CONTINUOUS
10
5.2332372440944877
20
-1.8326479921259842
11
5.2399752755905507
21
-1.8371501968503936
0
LINE
8
B.Mask
6
CONTINUOUS
10
5.2399752755905507
20
-1.8371501968503936
11
5.2457055118110238
21
-1.8428804330708661
0
LINE
8
B.Mask
6
CONTINUOUS
10
5.2457055118110238
20
-1.8428804330708661
11
5.2502077165354333
21
-1.8496184645669291
0
LINE
8
B.Mask
6
CONTINUOUS
10
5.2502077165354333
20
-1.8496184645669291
11
5.2533088976377948
21
-1.8571053937007873
0
LINE
8
B.Mask
6
CONTINUOUS
10
5.2533088976377948
20
-1.8571053937007873
11
5.2548898818897634
21
-1.865053464566929
0
LINE
8
B.Mask
6
CONTINUOUS
10
5.2548898818897634
20
-1.865053464566929
11
5.2548898818897634
21
-1.8731572440944881
0
LINE
8
B.Mask
6
CONTINUOUS
10
5.2548898818897634
20
-1.8731572440944881
11
5.2533088976377948
21
-1.8811053149606298
0
LINE
8
B.Mask
6
CONTINUOUS
10
5.2533088976377948
20
-1.8811053149606298
11
5.2502077165354333
21
-1.8885922440944882
0
LINE
8
B.Mask
6
CONTINUOUS
10
5.2502077165354333
20
-1.8885922440944882
11
5.2457055118110238
21
-1.8953302755905512
0
LINE
8
B.Mask
6
CONTINUOUS
10
5.2457055118110238
20
-1.8953302755905512
11
5.2399752755905507
21
-1.9010605118110235
0
LINE
8
B.Mask
6
CONTINUOUS
10
5.2399752755905507
20
-1.9010605118110235
11
5.2332372440944877
21
-1.905562716535433
0
LINE
8
B.Mask
6
CONTINUOUS
10
5.2332372440944877
20
-1.905562716535433
11
5.2257503149606297
21
-1.9086638976377952
0
LINE
8
B.Mask
6
CONTINUOUS
10
5.2257503149606297
20
-1.9086638976377952
11
5.2178022440944885
21
-1.9102448818897637
0
LINE
8
B.Mask
6
CONTINUOUS
10
5.2178022440944885
20
-1.9102448818897637
11
5.2096984645669293
21
-1.9102448818897637
0
LINE
8
B.Mask
6
CONTINUOUS
10
5.2096984645669293
20
-1.9102448818897637
11
5.2017503937007872
21
-1.9086638976377952
0
LINE
8
B.Mask
6
CONTINUOUS
10
5.2017503937007872
20
-1.9086638976377952
11
5.1942634645669292
21
-1.905562716535433
0
LINE
8
B.Mask
6
CONTINUOUS
10
5.1942634645669292
20
-1.905562716535433
11
5.1875254330708662
21
-1.9010605118110235
0
LINE
8
B.Mask
6
CONTINUOUS
10
5.1875254330708662
20
-1.9010605118110235
11
5.1817951968503939
21
-1.8953302755905512
0
LINE
8
B.Mask
6
CONTINUOUS
10
5.1817951968503939
20
-1.8953302755905512
11
5.1772929921259845
21
-1.8885922440944882
0
LINE
8
B.Mask
6
CONTINUOUS
10
5.1772929921259845
20
-1.8885922440944882
11
5.174191811023622
21
-1.8811053149606298
0
LINE
8
B.Mask
6
CONTINUOUS
10
5.174191811023622
20
-1.8811053149606298
11
5.1726108267716535
21
-1.8731572440944881
0
LINE
8
B.Mask
6
CONTINUOUS
10
5.1726108267716535
20
-1.8731572440944881
11
5.1726108267716535
21
-1.865053464566929
0
LINE
8
B.Mask
6
CONTINUOUS
10
5.1726108267716535
20
-1.865053464566929
11
5.174191811023622
21
-1.8571053937007873
0
LINE
8
B.Mask
6
CONTINUOUS
10
5.174191811023622
20
-1.8571053937007873
11
5.1772929921259845
21
-1.8496184645669291
0
LINE
8
B.Mask
6
CONTINUOUS
10
5.1772929921259845
20
-1.8496184645669291
11
5.1817951968503939
21
-1.8428804330708661
0
LINE
8
B.Mask
6
CONTINUOUS
10
5.1817951968503939
20
-1.8428804330708661
11
5.1875254330708662
21
-1.8371501968503936
0
LINE
8
B.Mask
6
CONTINUOUS
10
5.1875254330708662
20
-1.8371501968503936
11
5.1942634645669292
21
-1.8326479921259842
0
LINE
8
B.Mask
6
CONTINUOUS
10
5.1942634645669292
20
-1.8326479921259842
11
5.2017503937007872
21
-1.8295468110236219
0
LINE
8
B.Mask
6
CONTINUOUS
10
5.2017503937007872
20
-1.8295468110236219
11
5.2096984645669293
21
-1.8279658267716534
0
LINE
8
B.Mask
6
CONTINUOUS
10
5.2096984645669293
20
-1.8279658267716534
11
5.2178022440944885
21
-1.8279658267716534
0
LINE
8
B.Mask
6
CONTINUOUS
10
5.2178022440944885
20
-1.8279658267716534
11
5.2257503149606297
21
-1.8295468110236219
0
LINE
8
B.Mask
6
CONTINUOUS
10
5.4689610236220467
20
-1.786935905511811
11
5.4743014566929133
21
-1.7900192125984251
0
LINE
8
B.Mask
6
CONTINUOUS
10
5.4743014566929133
20
-1.7900192125984251
11
5.4786618897637798
21
-1.7943796456692913
0
LINE
8
B.Mask
6
CONTINUOUS
10
5.4786618897637798
20
-1.7943796456692913
11
5.4817451968503939
21
-1.7997200787401575
0
LINE
8
B.Mask
6
CONTINUOUS
10
5.4817451968503939
20
-1.7997200787401575
11
5.4833412204724405
21
-1.8056765354330708
0
LINE
8
B.Mask
6
CONTINUOUS
10
5.4833412204724405
20
-1.8056765354330708
11
5.483543307086614
21
-1.8087598425196849
0
LINE
8
B.Mask
6
CONTINUOUS
10
5.483543307086614
20
-1.8087598425196849
11
5.483543307086614
21
-1.8323818897637796
0
LINE
8
B.Mask
6
CONTINUOUS
10
5.483543307086614
20
-1.8323818897637796
11
5.4833412204724405
21
-1.8354651968503937
0
LINE
8
B.Mask
6
CONTINUOUS
10
5.4833412204724405
20
-1.8354651968503937
11
5.4817451968503939
21
-1.841421653543307
0
LINE
8
B.Mask
6
CONTINUOUS
10
5.4817451968503939
20
-1.841421653543307
11
5.4786618897637798
21
-1.8467620866141732
0
LINE
8
B.Mask
6
CONTINUOUS
10
5.4786618897637798
20
-1.8467620866141732
11
5.4743014566929133
21
-1.8511225196850394
0
LINE
8
B.Mask
6
CONTINUOUS
10
5.4743014566929133
20
-1.8511225196850394
11
5.4689610236220467
21
-1.8542058267716535
0
LINE
8
B.Mask
6
CONTINUOUS
10
5.4689610236220467
20
-1.8542058267716535
11
5.4630045669291336
21
-1.8558018503937008
0
LINE
8
B.Mask
6
CONTINUOUS
10
5.4630045669291336
20
-1.8558018503937008
11
5.4568379527559054
21
-1.8558018503937008
0
LINE
8
B.Mask
6
CONTINUOUS
10
5.4568379527559054
20
-1.8558018503937008
11
5.4508814960629923
21
-1.8542058267716535
0
LINE
8
B.Mask
6
CONTINUOUS
10
5.4508814960629923
20
-1.8542058267716535
11
5.4455410629921257
21
-1.8511225196850394
0
LINE
8
B.Mask
6
CONTINUOUS
10
5.4455410629921257
20
-1.8511225196850394
11
5.4411806299212593
21
-1.8467620866141732
0
LINE
8
B.Mask
6
CONTINUOUS
10
5.4411806299212593
20
-1.8467620866141732
11
5.4380973228346452
21
-1.841421653543307
0
LINE
8
B.Mask
6
CONTINUOUS
10
5.4380973228346452
20
-1.841421653543307
11
5.4365012992125985
21
-1.8354651968503937
0
LINE
8
B.Mask
6
CONTINUOUS
10
5.4365012992125985
20
-1.8354651968503937
11
5.4362992125984251
21
-1.8323818897637796
0
LINE
8
B.Mask
6
CONTINUOUS
10
5.4362992125984251
20
-1.8323818897637796
11
5.4362992125984251
21
-1.8087598425196849
0
LINE
8
B.Mask
6
CONTINUOUS
10
5.4362992125984251
20
-1.8087598425196849
11
5.4365012992125985
21
-1.8056765354330708
0
LINE
8
B.Mask
6
CONTINUOUS
10
5.4365012992125985
20
-1.8056765354330708
11
5.4380973228346452
21
-1.7997200787401575
0
LINE
8
B.Mask
6
CONTINUOUS
10
5.4380973228346452
20
-1.7997200787401575
11
5.4411806299212593
21
-1.7943796456692913
0
LINE
8
B.Mask
6
CONTINUOUS
10
5.4411806299212593
20
-1.7943796456692913
11
5.4455410629921257
21
-1.7900192125984251
0
LINE
8
B.Mask
6
CONTINUOUS
10
5.4455410629921257
20
-1.7900192125984251
11
5.4508814960629923
21
-1.786935905511811
0
LINE
8
B.Mask
6
CONTINUOUS
10
5.4508814960629923
20
-1.786935905511811
11
5.4568379527559054
21
-1.7853398818897637
0
LINE
8
B.Mask
6
CONTINUOUS
10
5.4568379527559054
20
-1.7853398818897637
11
5.4630045669291336
21
-1.7853398818897637
0
LINE
8
B.Mask
6
CONTINUOUS
10
5.4630045669291336
20
-1.7853398818897637
11
5.4689610236220467
21
-1.786935905511811
0
LINE
8
B.Mask
6
CONTINUOUS
10
5.8091185039370075
20
-1.786935905511811
11
5.8144589370078741
21
-1.7900192125984251
0
LINE
8
B.Mask
6
CONTINUOUS
10
5.8144589370078741
20
-1.7900192125984251
11
5.8188193700787396
21
-1.7943796456692913
0
LINE
8
B.Mask
6
CONTINUOUS
10
5.8188193700787396
20
-1.7943796456692913
11
5.8219026771653546
21
-1.7997200787401575
0
LINE
8
B.Mask
6
CONTINUOUS
10
5.8219026771653546
20
-1.7997200787401575
11
5.8234987007874013
21
-1.8056765354330708
0
LINE
8
B.Mask
6
CONTINUOUS
10
5.8234987007874013
20
-1.8056765354330708
11
5.8237007874015747
21
-1.8087598425196849
0
LINE
8
B.Mask
6
CONTINUOUS
10
5.8237007874015747
20
-1.8087598425196849
11
5.8237007874015747
21
-1.8323818897637796
0
LINE
8
B.Mask
6
CONTINUOUS
10
5.8237007874015747
20
-1.8323818897637796
11
5.8234987007874013
21
-1.8354651968503937
0
LINE
8
B.Mask
6
CONTINUOUS
10
5.8234987007874013
20
-1.8354651968503937
11
5.8219026771653546
21
-1.841421653543307
0
LINE
8
B.Mask
6
CONTINUOUS
10
5.8219026771653546
20
-1.841421653543307
11
5.8188193700787396
21
-1.8467620866141732
0
LINE
8
B.Mask
6
CONTINUOUS
10
5.8188193700787396
20
-1.8467620866141732
11
5.8144589370078741
21
-1.8511225196850394
0
LINE
8
B.Mask
6
CONTINUOUS
10
5.8144589370078741
20
-1.8511225196850394
11
5.8091185039370075
21
-1.8542058267716535
0
LINE
8
B.Mask
6
CONTINUOUS
10
5.8091185039370075
20
-1.8542058267716535
11
5.8031620472440943
21
-1.8558018503937008
0
LINE
8
B.Mask
6
CONTINUOUS
10
5.8031620472440943
20
-1.8558018503937008
11
5.7969954330708662
21
-1.8558018503937008
0
LINE
8
B.Mask
6
CONTINUOUS
10
5.7969954330708662
20
-1.8558018503937008
11
5.7910389763779531
21
-1.8542058267716535
0
LINE
8
B.Mask
6
CONTINUOUS
10
5.7910389763779531
20
-1.8542058267716535
11
5.7856985433070864
21
-1.8511225196850394
0
LINE
8
B.Mask
6
CONTINUOUS
10
5.7856985433070864
20
-1.8511225196850394
11
5.78133811023622
21
-1.8467620866141732
0
LINE
8
B.Mask
6
CONTINUOUS
10
5.78133811023622
20
-1.8467620866141732
11
5.7782548031496059
21
-1.841421653543307
0
LINE
8
B.Mask
6
CONTINUOUS
10
5.7782548031496059
20
-1.841421653543307
11
5.7766587795275592
21
-1.8354651968503937
0
LINE
8
B.Mask
6
CONTINUOUS
10
5.7766587795275592
20
-1.8354651968503937
11
5.7764566929133858
21
-1.8323818897637796
0
LINE
8
B.Mask
6
CONTINUOUS
10
5.7764566929133858
20
-1.8323818897637796
11
5.7764566929133858
21
-1.8087598425196849
0
LINE
8
B.Mask
6
CONTINUOUS
10
5.7764566929133858
20
-1.8087598425196849
11
5.7766587795275592
21
-1.8056765354330708
0
LINE
8
B.Mask
6
CONTINUOUS
10
5.7766587795275592
20
-1.8056765354330708
11
5.7782548031496059
21
-1.7997200787401575
0
LINE
8
B.Mask
6
CONTINUOUS
10
5.7782548031496059
20
-1.7997200787401575
11
5.78133811023622
21
-1.7943796456692913
0
LINE
8
B.Mask
6
CONTINUOUS
10
5.78133811023622
20
-1.7943796456692913
11
5.7856985433070864
21
-1.7900192125984251
0
LINE
8
B.Mask
6
CONTINUOUS
10
5.7856985433070864
20
-1.7900192125984251
11
5.7910389763779531
21
-1.786935905511811
0
LINE
8
B.Mask
6
CONTINUOUS
10
5.7910389763779531
20
-1.786935905511811
11
5.7969954330708662
21
-1.7853398818897637
0
LINE
8
B.Mask
6
CONTINUOUS
10
5.7969954330708662
20
-1.7853398818897637
11
5.8031620472440943
21
-1.7853398818897637
0
LINE
8
B.Mask
6
CONTINUOUS
10
5.8031620472440943
20
-1.7853398818897637
11
5.8091185039370075
21
-1.786935905511811
  0
ENDSEC
  0
EOF
