  0
SECTION
  2
HEADER
  9
$ANGBASE
  50
0.0
  9
$ANGDIR
  70
1
  9
$MEASUREMENT
  70
0
  9
$INSUNITS
  70
1
  0
ENDSEC
  0
SECTION
  2
TABLES
  0
TABLE
  2
LTYPE
  70
4
  0
LTYPE
  5
40F
  2
CONTINUOUS
  70
0
  3
Solid line
  72
65
  73
0
  40
0.0
  0
LTYPE
  5
410
  2
DASHDOT
 70
0
  3
Dash Dot ____ _ ____ _
 72
65
 73
4
 40
2.0
 49
1.25
 49
-0.25
 49
0.25
 49
-0.25
  0
LTYPE
  5
411
  2
DASHED
 70
0
  3
Dashed __ __ __ __ __
 72
65
 73
2
 40
0.75
 49
0.5
 49
-0.25
  0
LTYPE
  5
43B
  2
DOTTED
 70
0
  3
Dotted .  .  .  .
 72
65
 73
2
 40
0.2
 49
0.0
 49
-0.2
  0
ENDTAB
  0
TABLE
  2
STYLE
  70
4
  0
STYLE
  2
KICAD
  70
0
  40
0
  41
1
  42
1
  50
0
  71
0
  3
isocp.shx
  0
STYLE
  2
KICADB
  70
0
  40
0
  41
1
  42
1
  50
0
  71
0
  3
isocp.shx
  0
STYLE
  2
KICADI
  70
0
  40
0
  41
1
  42
1
  50
15
  71
0
  3
isocp.shx
  0
STYLE
  2
KICADBI
  70
0
  40
0
  41
1
  42
1
  50
15
  71
0
  3
isocp.shx
  0
ENDTAB
  0
TABLE
  2
LAYER
  70
11
  0
LAYER
  2
F.Cu
  70
0
  62
13
  420
13120564
  6
CONTINUOUS
  0
LAYER
  2
In1.Cu
  70
0
  62
91
  420
8374399
  6
CONTINUOUS
  0
LAYER
  2
In2.Cu
  70
0
  62
33
  420
13532460
  6
CONTINUOUS
  0
LAYER
  2
B.Cu
  70
0
  62
153
  420
5078980
  6
CONTINUOUS
  0
LAYER
  2
F.Paste
  70
0
  62
253
  420
11837594
  6
CONTINUOUS
  0
LAYER
  2
B.Paste
  70
0
  62
132
  420
49858
  6
CONTINUOUS
  0
LAYER
  2
F.Silkscreen
  70
0
  62
41
  420
15920545
  6
CONTINUOUS
  0
LAYER
  2
B.Silkscreen
  70
0
  62
31
  420
15250087
  6
CONTINUOUS
  0
LAYER
  2
F.Mask
  70
0
  62
201
  420
14181631
  6
CONTINUOUS
  0
LAYER
  2
B.Mask
  70
0
  62
4
  420
196590
  6
CONTINUOUS
  0
LAYER
  2
Edge.Cuts
  70
0
  62
254
  420
13685453
  6
CONTINUOUS
  0
ENDTAB
  0
ENDSEC
  0
SECTION
  2
ENTITIES
0
LINE
8
Edge.Cuts
6
CONTINUOUS
10
6.1236220472440941
20
-1.7677165354330708
11
6.1311422440944883
21
-1.7683744488188975
0
LINE
8
Edge.Cuts
6
CONTINUOUS
10
6.1311422440944883
20
-1.7683744488188975
11
6.138433937007874
21
-1.7703282677165353
0
LINE
8
Edge.Cuts
6
CONTINUOUS
10
6.138433937007874
20
-1.7703282677165353
11
6.1452755905511811
21
-1.7735185826771653
0
LINE
8
Edge.Cuts
6
CONTINUOUS
10
6.1452755905511811
20
-1.7735185826771653
11
6.1514593307086614
21
-1.777848464566929
0
LINE
8
Edge.Cuts
6
CONTINUOUS
10
6.1514593307086614
20
-1.777848464566929
11
6.1567972047244091
21
-1.7831863385826772
0
LINE
8
Edge.Cuts
6
CONTINUOUS
10
6.1567972047244091
20
-1.7831863385826772
11
6.1611270866141732
21
-1.7893700787401574
0
LINE
8
Edge.Cuts
6
CONTINUOUS
10
6.1611270866141732
20
-1.7893700787401574
11
6.1643174015748032
21
-1.7962117322834645
0
LINE
8
Edge.Cuts
6
CONTINUOUS
10
6.1643174015748032
20
-1.7962117322834645
11
6.1662712204724404
21
-1.8035034251968503
0
LINE
8
Edge.Cuts
6
CONTINUOUS
10
6.1662712204724404
20
-1.8035034251968503
11
6.1669291338582672
21
-1.811023622047244
0
LINE
8
Edge.Cuts
6
CONTINUOUS
10
6.1669291338582672
20
-1.811023622047244
11
6.1669291338582672
21
-4.0944881889763778
0
LINE
8
Edge.Cuts
6
CONTINUOUS
10
6.1669291338582672
20
-4.0944881889763778
11
6.1662712204724404
21
-4.102008385826772
0
LINE
8
Edge.Cuts
6
CONTINUOUS
10
6.1662712204724404
20
-4.102008385826772
11
6.1643174015748032
21
-4.1093000787401577
0
LINE
8
Edge.Cuts
6
CONTINUOUS
10
6.1643174015748032
20
-4.1093000787401577
11
6.1611270866141732
21
-4.1161417322834648
0
LINE
8
Edge.Cuts
6
CONTINUOUS
10
6.1611270866141732
20
-4.1161417322834648
11
6.1567972047244091
21
-4.122325472440945
0
LINE
8
Edge.Cuts
6
CONTINUOUS
10
6.1567972047244091
20
-4.122325472440945
11
6.1514593307086614
21
-4.1276633464566928
0
LINE
8
Edge.Cuts
6
CONTINUOUS
10
6.1514593307086614
20
-4.1276633464566928
11
6.1452755905511811
21
-4.1319932283464569
0
LINE
8
Edge.Cuts
6
CONTINUOUS
10
6.1452755905511811
20
-4.1319932283464569
11
6.138433937007874
21
-4.1351835433070869
0
LINE
8
Edge.Cuts
6
CONTINUOUS
10
6.138433937007874
20
-4.1351835433070869
11
6.1311422440944883
21
-4.1371373622047241
0
LINE
8
Edge.Cuts
6
CONTINUOUS
10
6.1311422440944883
20
-4.1371373622047241
11
6.1236220472440941
21
-4.1377952755905509
0
LINE
8
Edge.Cuts
6
CONTINUOUS
10
6.1236220472440941
20
-4.1377952755905509
11
5.1393700787401571
21
-4.1377952755905509
0
LINE
8
Edge.Cuts
6
CONTINUOUS
10
5.1393700787401571
20
-4.1377952755905509
11
5.1318498818897638
21
-4.1371373622047241
0
LINE
8
Edge.Cuts
6
CONTINUOUS
10
5.1318498818897638
20
-4.1371373622047241
11
5.124558188976378
21
-4.1351835433070869
0
LINE
8
Edge.Cuts
6
CONTINUOUS
10
5.124558188976378
20
-4.1351835433070869
11
5.1177165354330709
21
-4.1319932283464569
0
LINE
8
Edge.Cuts
6
CONTINUOUS
10
5.1177165354330709
20
-4.1319932283464569
11
5.1115327952755907
21
-4.1276633464566928
0
LINE
8
Edge.Cuts
6
CONTINUOUS
10
5.1115327952755907
20
-4.1276633464566928
11
5.1061949212598421
21
-4.122325472440945
0
LINE
8
Edge.Cuts
6
CONTINUOUS
10
5.1061949212598421
20
-4.122325472440945
11
5.1018650393700788
21
-4.1161417322834648
0
LINE
8
Edge.Cuts
6
CONTINUOUS
10
5.1018650393700788
20
-4.1161417322834648
11
5.0986747244094488
21
-4.1093000787401577
0
LINE
8
Edge.Cuts
6
CONTINUOUS
10
5.0986747244094488
20
-4.1093000787401577
11
5.0967209055118108
21
-4.102008385826772
0
LINE
8
Edge.Cuts
6
CONTINUOUS
10
5.0967209055118108
20
-4.102008385826772
11
5.0960629921259839
21
-4.0944881889763778
0
LINE
8
Edge.Cuts
6
CONTINUOUS
10
5.0960629921259839
20
-4.0944881889763778
11
5.0960629921259839
21
-1.811023622047244
0
LINE
8
Edge.Cuts
6
CONTINUOUS
10
5.0960629921259839
20
-1.811023622047244
11
5.0967209055118108
21
-1.8035034251968503
0
LINE
8
Edge.Cuts
6
CONTINUOUS
10
5.0967209055118108
20
-1.8035034251968503
11
5.0986747244094488
21
-1.7962117322834645
0
LINE
8
Edge.Cuts
6
CONTINUOUS
10
5.0986747244094488
20
-1.7962117322834645
11
5.1018650393700788
21
-1.7893700787401574
0
LINE
8
Edge.Cuts
6
CONTINUOUS
10
5.1018650393700788
20
-1.7893700787401574
11
5.1061949212598421
21
-1.7831863385826772
0
LINE
8
Edge.Cuts
6
CONTINUOUS
10
5.1061949212598421
20
-1.7831863385826772
11
5.1115327952755907
21
-1.777848464566929
0
LINE
8
Edge.Cuts
6
CONTINUOUS
10
5.1115327952755907
20
-1.777848464566929
11
5.1177165354330709
21
-1.7735185826771653
0
LINE
8
Edge.Cuts
6
CONTINUOUS
10
5.1177165354330709
20
-1.7735185826771653
11
5.124558188976378
21
-1.7703282677165353
0
LINE
8
Edge.Cuts
6
CONTINUOUS
10
5.124558188976378
20
-1.7703282677165353
11
5.1318498818897638
21
-1.7683744488188975
0
LINE
8
Edge.Cuts
6
CONTINUOUS
10
5.1318498818897638
20
-1.7683744488188975
11
5.1393700787401571
21
-1.7677165354330708
0
LINE
8
Edge.Cuts
6
CONTINUOUS
10
5.1393700787401571
20
-1.7677165354330708
11
6.1236220472440941
21
-1.7677165354330708
0
LINE
8
Edge.Cuts
6
CONTINUOUS
10
5.1393700787401571
20
-1.7755905511811023
11
5.1358802362204727
21
-1.7755905511811023
0
LINE
8
Edge.Cuts
6
CONTINUOUS
10
5.1358802362204727
20
-1.7755905511811023
11
5.1290346062992125
21
-1.7769522047244095
0
LINE
8
Edge.Cuts
6
CONTINUOUS
10
5.1290346062992125
20
-1.7769522047244095
11
5.1225862204724404
21
-1.7796232283464566
0
LINE
8
Edge.Cuts
6
CONTINUOUS
10
5.1225862204724404
20
-1.7796232283464566
11
5.1167827952755909
21
-1.7835009448818897
0
LINE
8
Edge.Cuts
6
CONTINUOUS
10
5.1167827952755909
20
-1.7835009448818897
11
5.1118474015748028
21
-1.7884363385826771
0
LINE
8
Edge.Cuts
6
CONTINUOUS
10
5.1118474015748028
20
-1.7884363385826771
11
5.1079696850393699
21
-1.7942397637795275
0
LINE
8
Edge.Cuts
6
CONTINUOUS
10
5.1079696850393699
20
-1.7942397637795275
11
5.105298661417323
21
-1.8006881496062992
0
LINE
8
Edge.Cuts
6
CONTINUOUS
10
5.105298661417323
20
-1.8006881496062992
11
5.1039370078740154
21
-1.807533779527559
0
LINE
8
Edge.Cuts
6
CONTINUOUS
10
5.1039370078740154
20
-1.807533779527559
11
5.1039370078740154
21
-1.811023622047244
0
LINE
8
Edge.Cuts
6
CONTINUOUS
10
5.1039370078740154
20
-1.811023622047244
11
5.1039370078740154
21
-4.0944881889763778
0
LINE
8
Edge.Cuts
6
CONTINUOUS
10
5.1039370078740154
20
-4.0944881889763778
11
5.1039370078740154
21
-4.097978031496063
0
LINE
8
Edge.Cuts
6
CONTINUOUS
10
5.1039370078740154
20
-4.097978031496063
11
5.105298661417323
21
-4.1048236614173224
0
LINE
8
Edge.Cuts
6
CONTINUOUS
10
5.105298661417323
20
-4.1048236614173224
11
5.1079696850393699
21
-4.1112720472440945
0
LINE
8
Edge.Cuts
6
CONTINUOUS
10
5.1079696850393699
20
-4.1112720472440945
11
5.1118474015748028
21
-4.1170754724409448
0
LINE
8
Edge.Cuts
6
CONTINUOUS
10
5.1118474015748028
20
-4.1170754724409448
11
5.1167827952755909
21
-4.1220108661417321
0
LINE
8
Edge.Cuts
6
CONTINUOUS
10
5.1167827952755909
20
-4.1220108661417321
11
5.1225862204724404
21
-4.125888582677165
0
LINE
8
Edge.Cuts
6
CONTINUOUS
10
5.1225862204724404
20
-4.125888582677165
11
5.1290346062992125
21
-4.1285596062992127
0
LINE
8
Edge.Cuts
6
CONTINUOUS
10
5.1290346062992125
20
-4.1285596062992127
11
5.1358802362204727
21
-4.1299212598425195
0
LINE
8
Edge.Cuts
6
CONTINUOUS
10
5.1358802362204727
20
-4.1299212598425195
11
5.1393700787401571
21
-4.1299212598425195
0
LINE
8
Edge.Cuts
6
CONTINUOUS
10
5.1393700787401571
20
-4.1299212598425195
11
6.1236220472440941
21
-4.1299212598425195
0
LINE
8
Edge.Cuts
6
CONTINUOUS
10
6.1236220472440941
20
-4.1299212598425195
11
6.1271118897637793
21
-4.1299212598425195
0
LINE
8
Edge.Cuts
6
CONTINUOUS
10
6.1271118897637793
20
-4.1299212598425195
11
6.1339575196850395
21
-4.1285596062992127
0
LINE
8
Edge.Cuts
6
CONTINUOUS
10
6.1339575196850395
20
-4.1285596062992127
11
6.1404059055118108
21
-4.125888582677165
0
LINE
8
Edge.Cuts
6
CONTINUOUS
10
6.1404059055118108
20
-4.125888582677165
11
6.1462093307086612
21
-4.1220108661417321
0
LINE
8
Edge.Cuts
6
CONTINUOUS
10
6.1462093307086612
20
-4.1220108661417321
11
6.1511447244094484
21
-4.1170754724409448
0
LINE
8
Edge.Cuts
6
CONTINUOUS
10
6.1511447244094484
20
-4.1170754724409448
11
6.1550224409448822
21
-4.1112720472440945
0
LINE
8
Edge.Cuts
6
CONTINUOUS
10
6.1550224409448822
20
-4.1112720472440945
11
6.157693464566929
21
-4.1048236614173224
0
LINE
8
Edge.Cuts
6
CONTINUOUS
10
6.157693464566929
20
-4.1048236614173224
11
6.1590551181102358
21
-4.097978031496063
0
LINE
8
Edge.Cuts
6
CONTINUOUS
10
6.1590551181102358
20
-4.097978031496063
11
6.1590551181102358
21
-4.0944881889763778
0
LINE
8
Edge.Cuts
6
CONTINUOUS
10
6.1590551181102358
20
-4.0944881889763778
11
6.1590551181102358
21
-1.811023622047244
0
LINE
8
Edge.Cuts
6
CONTINUOUS
10
6.1590551181102358
20
-1.811023622047244
11
6.1590551181102358
21
-1.807533779527559
0
LINE
8
Edge.Cuts
6
CONTINUOUS
10
6.1590551181102358
20
-1.807533779527559
11
6.157693464566929
21
-1.8006881496062992
0
LINE
8
Edge.Cuts
6
CONTINUOUS
10
6.157693464566929
20
-1.8006881496062992
11
6.1550224409448822
21
-1.7942397637795275
0
LINE
8
Edge.Cuts
6
CONTINUOUS
10
6.1550224409448822
20
-1.7942397637795275
11
6.1511447244094484
21
-1.7884363385826771
0
LINE
8
Edge.Cuts
6
CONTINUOUS
10
6.1511447244094484
20
-1.7884363385826771
11
6.1462093307086612
21
-1.7835009448818897
0
LINE
8
Edge.Cuts
6
CONTINUOUS
10
6.1462093307086612
20
-1.7835009448818897
11
6.1404059055118108
21
-1.7796232283464566
0
LINE
8
Edge.Cuts
6
CONTINUOUS
10
6.1404059055118108
20
-1.7796232283464566
11
6.1339575196850395
21
-1.7769522047244095
0
LINE
8
Edge.Cuts
6
CONTINUOUS
10
6.1339575196850395
20
-1.7769522047244095
11
6.1271118897637793
21
-1.7755905511811023
0
LINE
8
Edge.Cuts
6
CONTINUOUS
10
6.1271118897637793
20
-1.7755905511811023
11
6.1236220472440941
21
-1.7755905511811023
0
LINE
8
Edge.Cuts
6
CONTINUOUS
10
6.1236220472440941
20
-1.7755905511811023
11
5.1393700787401571
21
-1.7755905511811023
  0
ENDSEC
  0
EOF
